<svg xmlns="http://www.w3.org/2000/svg" width="36" height="40" fill="none" viewBox="0 0 36 40"><path fill="#006b99" fill-rule="evenodd" d="M9.716.383C3.299 1.617 0 6.506 0 14.89c-.022 8.59 8.482 13.868 17.233 10.692l1.616-.594c1.323 1.416 1.548 1.416.134 2.284-1.122.686-1.01 1.394-.291 1.668.964.366 6.82 6.1 7.606 7.494 2.895 5.14 10.12 3.336 9.627-.685-.225-1.828-1.594-3.953-3.21-5.46-1.794-1.691-2.804-3.062-4.128-5.621-1.279-2.49-2.423-3.039-4.084-2.01-.718.434-.785.456-1.167.09-.785-.707-.74-1.187.225-2.672 3.68-5.758 3.882-10.784.628-14.782-4.533-5.575-8.414-3.564-5.767-1.828 6.44 4.204 6.104 12.749-.763 19.192-3.814 3.586-11.488 1.667-13.463-3.359C1.077 11.304 6.216.748 14.54 2.44c2.873.753 4.017-3.748-4.824-2.057m-.898 5.689c-.964.822-.336 1.53 1.459.274 1.257-.868 1.863-1.028 3.007-.754 1.503.343 2.423-.046 1.952-.823-.157-.274-3.456-1.233-6.418 1.303m8.998-.297c-1.211-.069-1.525.617-.695 1.508 1.032 1.12 3.096 1.302 2.984.274-.067-.708-1.369-1.737-2.289-1.782m7.81 19.145c.179.754 1.951 3.404 2.894 4.387 1.144 1.165 1.638 1.942 3.119 3.587 3.006 3.358-.584 6.694-3.411 2.49-3.568-5.3-6.889-6.968-6.844-7.585.067-.777 4.084-3.518 4.241-2.879" clip-rule="evenodd"/></svg>