<svg xmlns="http://www.w3.org/2000/svg" width="41" height="37" fill="none" viewBox="0 0 41 37"><path fill="#006b99" fill-rule="evenodd" d="M8.479.166c-2.482.413-.812 2.09 1.24 2.381 1.72.243 5.013.243 12.1.219 8.64-.025 12.34.073 12.888.316 1.36.631 1.957 3.061 2.34 9.647.142 2.332.429 5.832.643 7.775.669 6.245.048 6.853-7.804 7.169-3.03.121-6.968.364-8.734.534-8.258.802-13.39.656-16.253-.51-2.387-.972-2.267-1.75-2.339-3.378-.167-3.158-.095-9.598.215-15.454.262-4.909.573-5.88 2.124-6.61.955-.437.62-.947-.573-.899-1.79.097-3.174.705-3.436 3.548-.335 3.5-2.459 22.72 1.36 24.348 2.506 1.07 6.873 2.114 8.592 2.114 1.193 0 1.145 1.361-.048 1.726-2.745.802-.812 2.746 2.816 2.891 7.35.243 18.09-.364 18.186-1.069.095-.705-1.456-2.308-2.268-2.308-.262 0-.43-.316-.43-.778 0-.656 0-1.58.74-1.58 3.175 0 4.87-.145 5.824-.364 4.654-1.02 4.845-4.228 4.797-6.1-.167-7.653-1.575-14.968-1.575-16.693-.024-2.989-1.742-5.93-5.418-6.464C32.034.19 10.937-.247 8.48.166m12.458 14.871c-.287-.316-3.055-3.45-3.819-4.252-.954-.997-1.933-.68-3.985 1.239-1.05.996-2.697 2.478-3.676 3.329-3.389 2.916-3.651 4.228-.859 4.228.955 0 1.408-.34 4.248-3.305 3.676-3.84 3.342-3.815 6.54-.656 2.147 2.114 1.885 2.139 5.37-.632 3.006-2.843 4.725-4.738 6.896-6.95 2.148-2.186-1.145-3.182-2.887-1.676-2.053 1.725-7.804 8.65-7.828 8.675m7.732-1.142c-.43 1.118-.215 8.578.263 9.04 1.17 1.19 1.885-1.361 1.814-6.416-.048-2.794-1.385-4.47-2.077-2.624m-13.818 3.037c-.74 1.993-.12 7.436 1.384 7.169s.477-6.27.143-7.144c-.214-.632-1.288-.656-1.527-.025m9.713.56c-.405.51-.811 4.276-.549 5.297.454 1.822 2.34 1.02 2.34-.997 0-3.377-.86-5.443-1.79-4.3m-13.58 2.6c-.357.364-.214 3.085.216 3.669.763 1.069 1.431.388 1.431-1.483-.023-1.944-.835-3.037-1.646-2.187m8.234 0c-.62.631-.19 3.231.573 3.596 1.217.559 1.623-.972.883-3.402-.12-.438-1.098-.56-1.456-.195m6.158 10.57c.954.267.596 1.142.692 1.944l-11.026.194c0-.073.19-1.993.19-1.871.765-.024 7.757-.316 8.712-.389.382-.048 1.05.024 1.432.122" clip-rule="evenodd"/></svg>