<svg xmlns="http://www.w3.org/2000/svg" width="55" height="55" fill="none" viewBox="0 0 55 55"><path fill="#000001" fill-rule="evenodd" d="M30.292 6.32c-4.74 2.408-15.422 14.294-18.906 20.955-2.1 4.022-1.844 4.252 4.944 4.637l4.842.281c-8.787 15.37-7.89 13.731-7.967 13.885-1.921 3.305.692 5.508 3.458 2.92.026-.025 23.773-18.47 28.026-24.592.487-.692.359-1.486-.717-2.28-1.768-1.307-4.15-1.717-12.835-2.434-1.358-.103-1.972-.256-1.87-.461.64-1.563 3.1-8.121 4.278-10.683 1.384-2.997 1.256-4.534-3.253-2.228m-1.768 5.738c-.23.538-3.074 7.352-3.202 7.634-.666 1.332-.23 2.024 1.435 2.203 5.533.59 7.736.794 9.965.897 3.689.179 3.715.025-.18 3.945-4.15 4.201-14.755 13.936-14.986 13.705-.205-.205 3.203-6.712 4.125-7.916 1.665-2.177 1.152-2.485-4.15-2.485-2.383 0-3.869-.05-4.996-.128a1.457 1.457 0 0 1-1.178-2.152c1.921-3.51 5.354-7.89 11.067-14.166 2.613-2.818 2.664-2.87 2.1-1.537" clip-rule="evenodd"/></svg>