<svg xmlns="http://www.w3.org/2000/svg" width="55" height="55" fill="none" viewBox="0 0 55 55"><path fill="#000001" fill-rule="evenodd" d="M36.559 10.919c-1.804.812-2.775 2.398-2.914 4.736-.178 3.131-.891 4.201-1.704 2.576-2.953-5.826-13.098-7.47-14.129-2.279-.119.555-.139.555-1.427.555-5.667-.04-8.937 11.117-4.875 16.646.278.377-.118 1.704-1.288 4.3-.654 1.447-.574 1.685.575 2.2 1.05.475 1.387-.02 3.488-5.172a3.2 3.2 0 0 0 0-2.418c-.476-1.15-1.05-2.418-1.506-3.27-1.506-2.952-.516-7.114 2.298-9.61 2.577-2.28 5.212-.397 2.953 2.12-3.111 3.448-.159 7.629 4.42 6.262 4.101-1.21 4.26-6.936.217-8.026-2.14-.575-3.052-3.587-1.427-4.677 4.043-2.734 9.076 2.874 8.541 9.532-.277 3.468 3.21 1.883 3.21-.495 0-.615.159-.952.793-1.685 1.348-1.565 1.982-3.21 2.28-6.044.276-2.616 3.685-4.795 4.656-2.972.614 1.15-.357 7.292-1.447 9.056-.872 1.427-3.963 4.934-4.954 5.608-1.288.872-1.15 1.625.377 1.883.753.118.872.079 2.279-1.09 3.507-2.913 4.617-4.34 5.45-7.075.594-1.942 1.466-1.506 1.485.515.02 4.142-4.32 8.977-8.481 10.681-.99.417-1.05.872-.198 1.506 1.268.932 3.527-.04 6.123-2.635 1.625-1.625 1.704-1.665 1.526-1.01-.971 3.764-4.102 6.876-8.085 8.045-2.636.773-5.093 1.328-6.936 1.565-.258.08-1.823.02-3.131 1.407-1.922 2.041 1.03 3.666 2.041 2.041.753-1.228.99-1.347 2.457-1.367 1.447 0 1.526-.02 5.628-1.17 3.488-.97 5.549-1.98 7.035-3.427 3.131-3.072 4.439-7.51 2.814-9.651-.357-.476-.357-.495.218-1.744 1.17-2.497.892-5.786-.654-7.65-.555-.673-.594-.851-.654-2.476-.08-3.845-3.904-6.718-7.054-5.291M22.35 20.748c1.645.832.674 5.132-1.248 5.608-.674.178-3.666-1.368-1.328-4.597 1.07-1.487 1.387-1.625 2.576-1.011" clip-rule="evenodd"/></svg>