<svg xmlns="http://www.w3.org/2000/svg" width="55" height="55" fill="none" viewBox="0 0 55 55"><path fill="#000001" d="M38.152 37.059c.455.195.953.087 1.32-.238.326-.282 1.863-1.69 2.448-2.036.736-.433 1.3-7.818 1.3-7.796a1.45 1.45 0 0 0-.412-1.17c-2.967-3.01-3.119-3.4-6.649-3.833-.974-.13-1.624-.086-1.754.13-.541.866 1.906 2.447 3.833 2.447.737 0 3.01 2.404 2.794 2.946-.151.368-.087 2.728-.108 5.327l-.975.498c-.541.282-1.212.78-1.494 1.148-.498.628-.541.628-1.386.13-.801-.477-2.187-.455-2.187.043 0 .433 1.71 1.798 2.837 2.252z"/><path fill="#000001" d="M48.222 18.65a2.13 2.13 0 0 0-.801-1.732c-.975-.758-2.036-.844-2.556-.238-1.646 1.992-8.272 1.278-14.92-1.624-4.57-1.993-9.855-2.88-14.402-2.426-9.876.975-8.858 1.213-7.905 25.403l1.061.542c1.04.541 1.126.541 4.071-.109 4.7-1.04 12.366-.953 16.828.152 4.006.996 4.829.823 3.183-.736-3.032-2.86-15.116-4.505-20.01-2.707-.997.368-1.928.65-2.08.65-.52 0 .455-6.52-.043-20.011.022 0 10.244-2.88 17.845.996 4.115 2.1 9.14 3.465 12.907 3.487h3.66c0 17.606.152 19.447-.476 19.447-.282 0-1.992-.195-3.812-.433-3.53-.455-4.028-.368-3.313.65.693.974 5.046 2.035 7.775 2.165 2.512.13 2.209-.238 2.317-1.776.108-1.884 0-.39.671-21.7"/><path fill="#000001" d="M15.174 20.362c.672-.174 1.82-1.148 2.014-1.711.087-.282.888-.26 3.357.021 6.107.715 3.292-1.819 2.122-2.144-1.364-.39-3.486-.238-5.912.13-.455.065-.996.412-1.19.78-.196.368-1.192.975-1.885 1.69-1.884 1.883-2.08 11.304-.26 11.585 1.494.217 1.992.412 2.75 1.127.932.844 1.04.757 7.212.757.845 0 1.3-2.079-4.007-2.295-2.187-.087-2.663-.217-3.443-.866-.498-.412-1.04-.758-1.19-.758-.672 0-.24-8.165.432-8.316"/><path fill="#000001" d="M28.081 32.035c.239-.304.412-1.473.412-1.581 0-.109.65-.065 1.364-.26 2.642-.715 2.577-3.92-.108-5.436-.736-.412-3.422-.563-3.054-2.209.26-1.213 1.17-.801 2.144-.325.672.303 1.257.65 1.841.953 1.04.541 1.018-.845.325-1.43-.433-.367-1.061-.736-1.69-1.017-.129-.065.13-.693-.086-1.148-.455-.931-1.754-1.343-1.754-.541 0 .108-.195.974-.195.974-.022 0-2.317-1.061-3.183 1.494-.434 1.278.108 3.14 1.732 3.639 1.3.411 3.66.823 3.487 2.165-.238 1.863-3.4.585-3.422.585-2.252-.563-3.79.173-1.126 1.364.455.217 1.473.477 1.69.672s-.022 1.43-.022 1.646c.043.953 1.126 1.17 1.645.455"/></svg>