<svg xmlns="http://www.w3.org/2000/svg" width="382" height="374" fill="none" viewBox="0 0 382 374"><path fill="#fff" d="m367.649 94.7-16.016 84.449a55 55 0 0 0-6.969-3.467c.969-7.17.619-11.151-.888-13.409.22-.376.372-.787.449-1.214a3.9 3.9 0 0 0-.595-2.896 3.83 3.83 0 0 0-2.453-1.622c-1-.192-2.033.024-2.873.601a3.86 3.86 0 0 0-1.61 2.472c-.02.116-.04.239-.054.353-2.966 1.343-4.912 5.92-6.871 11.415l-.039.401a56.5 56.5 0 0 0-34.863 7.103c-.814-14.509 4.213-33.554-.223-39.929a3.5 3.5 0 0 0 .457-1.219 3.88 3.88 0 0 0-.788-3.161 3.83 3.83 0 0 0-2.906-1.428 3.81 3.81 0 0 0-2.957 1.322 3.88 3.88 0 0 0-.9 3.13c-10.054 6.078-11.695 43.964-24.785 41.834-13.179-2.151 6.352-56.104-3.427-68.291.3-.435.504-.93.597-1.452a3.89 3.89 0 0 0-.594-2.896 3.84 3.84 0 0 0-2.451-1.624 3.8 3.8 0 0 0-1.496.011 3.845 3.845 0 0 0-2.988 3.058 3.8 3.8 0 0 0-.055 1.071c-14.503 7.392-15.304 86.333-36.208 82.8-20.527-3.467 2.2-65.932-7.853-78.323a3.87 3.87 0 0 0 .157-2.111 3.9 3.9 0 0 0-.583-1.389 3.9 3.9 0 0 0-1.067-1.059 3.81 3.81 0 0 0-4.263.033 3.86 3.86 0 0 0-1.676 3.029c-14.219 6.296-22.095 57.876-30.393 56.764l20.554-108.384zm-129.79-15.476a4.2 4.2 0 0 0-.252-2.4 4.16 4.16 0 0 0-1.533-1.855 4.1 4.1 0 0 0-4.584.035 4.15 4.15 0 0 0-1.505 1.877 4.19 4.19 0 0 0 .928 4.524 4.1 4.1 0 0 0 2.12 1.121 4.1 4.1 0 0 0 3.088-.648 4.17 4.17 0 0 0 1.738-2.654m-17.262-3.33a4.2 4.2 0 0 0-.252-2.401 4.15 4.15 0 0 0-1.533-1.854 4.1 4.1 0 0 0-4.584.034 4.14 4.14 0 0 0-1.505 1.877 4.19 4.19 0 0 0 .927 4.524 4.104 4.104 0 0 0 5.214.478 4.16 4.16 0 0 0 1.733-2.659m-17.257-3.322a4.2 4.2 0 0 0-.254-2.398 4.15 4.15 0 0 0-1.534-1.852 4.1 4.1 0 0 0-4.581.037 4.15 4.15 0 0 0-1.504 1.877 4.19 4.19 0 0 0 .929 4.52 4.1 4.1 0 0 0 2.119 1.121 4.1 4.1 0 0 0 3.09-.647 4.17 4.17 0 0 0 1.735-2.657"/><path fill="#f7cedc" d="M363.24 188.168c10.666 10.749 16.659 25.328 16.659 40.53 0 15.201-5.993 29.781-16.659 40.531-10.667 10.748-25.133 16.786-40.217 16.786-15.086 0-29.552-6.038-40.219-16.786l40.219-40.531z"/><path fill="#006b99" d="m363.24 188.167-40.217 40.527-40.219-40.53a56.8 56.8 0 0 1 29.059-15.668 56.54 56.54 0 0 1 32.805 3.181c2.4.991 4.729 2.15 6.968 3.467a56.9 56.9 0 0 1 11.604 9.023"/><path fill="#fff" d="M343.787 162.273c1.507 2.258 1.857 6.239.888 13.409a56.3 56.3 0 0 0-14.934-3.9l.041-.402c1.959-5.494 3.905-10.072 6.871-11.415a3.9 3.9 0 0 0 .615 2.496 3.84 3.84 0 0 0 2.031 1.553c.834.27 1.734.244 2.549-.074a3.84 3.84 0 0 0 1.941-1.669z"/><path fill="#006b99" d="M341.189 156.542a3.83 3.83 0 0 1 2.452 1.622c.571.847.785 1.889.596 2.895-.077.429-.23.84-.45 1.214a6.32 6.32 0 0 0-3.953-2.537 4.66 4.66 0 0 0-3.184.231c.012-.114.033-.236.054-.353a3.839 3.839 0 0 1 2.987-3.062 3.8 3.8 0 0 1 1.498-.01"/><path fill="#006b99" d="M343.787 162.273a3.84 3.84 0 0 1-1.94 1.669 3.822 3.822 0 0 1-4.581-1.48 3.9 3.9 0 0 1-.615-2.495 4.67 4.67 0 0 1 3.186-.23 6.32 6.32 0 0 1 3.95 2.536"/><path fill="#cceff6" d="m323.023 228.694-40.219 40.53a57.3 57.3 0 0 1-12.335-18.594 57.68 57.68 0 0 1 0-43.872 57.3 57.3 0 0 1 12.335-18.594z"/><path fill="#006b99" d="M292.065 133.223c.494.095.966.286 1.386.565.423.278.785.637 1.068 1.057a3.88 3.88 0 0 1 .594 2.897 3.5 3.5 0 0 1-.458 1.22 4.76 4.76 0 0 0-2.955-2.021 5.355 5.355 0 0 0-4.137.664 3.87 3.87 0 0 1 1.123-3.368 3.8 3.8 0 0 1 3.379-1.014"/><path fill="#fff" d="M294.655 138.962c4.437 6.368-.597 25.413.223 39.927a57.15 57.15 0 0 0-18.52 17.056 57.7 57.7 0 0 0-9.451 23.421l-35.42-6.822-66.832-12.873 5.144-27.124.666-3.485c8.298 1.111 16.173-50.468 30.412-56.762a3.9 3.9 0 0 0 .814 2.551 3.83 3.83 0 0 0 2.265 1.404 3.8 3.8 0 0 0 2.626-.418 3.84 3.84 0 0 0 1.725-2.038c10.056 12.392-12.672 74.856 7.855 78.323 20.906 3.533 21.702-75.408 36.208-82.799.073.79.384 1.538.894 2.143a3.807 3.807 0 0 0 6.075-.312c9.78 12.188-9.757 66.141 3.426 68.292 13.092 2.128 14.734-35.757 24.788-41.835.12.789.478 1.522 1.029 2.096a3.8 3.8 0 0 0 4.345.831 3.84 3.84 0 0 0 1.719-1.57z"/><path fill="#006b99" d="M291.7 136.941a4.76 4.76 0 0 1 2.955 2.021 3.84 3.84 0 0 1-1.719 1.57c-.72.332-1.526.43-2.303.281a3.8 3.8 0 0 1-2.042-1.112 3.86 3.86 0 0 1-1.028-2.096 5.358 5.358 0 0 1 4.137-.664M256.906 105.173a3.84 3.84 0 0 1 2.453 1.626c.571.848.786 1.89.597 2.897a3.7 3.7 0 0 1-.607 1.452 6.2 6.2 0 0 0-3.783-2.293 4.87 4.87 0 0 0-3.204.462 3.8 3.8 0 0 1 .055-1.072 3.87 3.87 0 0 1 1.611-2.475 3.82 3.82 0 0 1 2.878-.597"/><path fill="#006b99" d="M259.349 111.149a3.84 3.84 0 0 1-1.818 1.43 3.81 3.81 0 0 1-4.257-1.119 3.87 3.87 0 0 1-.894-2.143 4.87 4.87 0 0 1 3.204-.462 6.2 6.2 0 0 1 3.765 2.294"/><path fill="#f7cedc" d="M234.582 74.353a4.1 4.1 0 0 1 2.125 1.12 4.17 4.17 0 0 1 1.147 2.123 4.18 4.18 0 0 1-1.722 4.287 4.11 4.11 0 0 1-4.589.035 4.17 4.17 0 0 1-1.786-4.26 4.17 4.17 0 0 1 1.737-2.656 4.1 4.1 0 0 1 3.088-.65M217.318 71.03a4.1 4.1 0 0 1 2.122 1.12 4.175 4.175 0 0 1 .929 4.524 4.15 4.15 0 0 1-1.505 1.878 4.105 4.105 0 0 1-4.584.035 4.14 4.14 0 0 1-1.533-1.854 4.166 4.166 0 0 1 1.481-5.058 4.1 4.1 0 0 1 3.09-.645"/><path fill="#cceff6" d="m203.933 250.517 12.269 65.539-9.744 1.852-12.262-65.538z"/><path fill="#006b99" d="M205.426 108.665c1 .193 1.883.778 2.454 1.626.572.849.787 1.891.597 2.898q-.06.308-.17.602a5.5 5.5 0 0 0-3.505-2.042 6.86 6.86 0 0 0-3.925.543q.013-.28.061-.555a3.88 3.88 0 0 1 1.613-2.472 3.82 3.82 0 0 1 2.875-.6"/><path fill="#006b99" d="M204.802 111.751a5.5 5.5 0 0 1 3.505 2.042 3.87 3.87 0 0 1-1.725 2.039 3.8 3.8 0 0 1-2.626.417 3.83 3.83 0 0 1-2.265-1.404 3.88 3.88 0 0 1-.814-2.551 6.86 6.86 0 0 1 3.925-.543"/><path fill="#f7cedc" d="m197.284 214.991-9.741 1.852 6.654 35.544 9.741-1.852zM200.062 67.708a4.1 4.1 0 0 1 2.122 1.12 4.17 4.17 0 0 1 1.146 2.12c.165.806.09 1.642-.217 2.405a4.15 4.15 0 0 1-1.505 1.877 4.1 4.1 0 0 1-4.584.035 4.15 4.15 0 0 1-1.533-1.854 4.2 4.2 0 0 1-.252-2.4 4.15 4.15 0 0 1 1.735-2.656 4.1 4.1 0 0 1 3.088-.648"/><path fill="#cceff6" d="m183.488 293.805 5.146 27.488v.007l-9.738 1.846-5.149-27.492z"/><path fill="#f7cedc" d="m169.724 220.225-9.742 1.852 13.777 73.589 9.741-1.853z"/><path fill="#cceff6" d="m151.815 277.079 9.254 49.457-9.74 1.852-9.26-49.458 9.738-1.851z"/><path fill="#f7cedc" d="m142.151 225.451 9.664 51.628h-.008l-9.738 1.853-9.664-51.628z"/><path fill="#fae173" d="M139.007 66.528a53.14 53.14 0 0 1-2.389 33.979 97.5 97.5 0 0 0-5.875 57.649l.209 1.019c.528 2.523.08 5.152-1.252 7.353a10.04 10.04 0 0 1-5.916 4.485l-1.651.433-.019-.074-19.813-76.202c-1.439 7.785-5.802 7.745-9.497 5.004 2.411-5.494 1.92-14.378-3.096-13.056-5.35 1.405-1.694 9.503 3.096 13.056-1.877 4.288-5.525 6.511-10.154.185l19.809 76.212.019.068-1.278.34c-.799.199-1.62.302-2.443.305a10 10 0 0 1-5.928-1.969 10.13 10.13 0 0 1-3.628-5.118c-5.988-19.166-17.658-36.024-33.44-48.305a53 53 0 0 1-15.439-19.504 53.4 53.4 0 0 1-4.89-24.458 53.4 53.4 0 0 1 6.738-24.007A52.9 52.9 0 0 1 59.05 35.67a52.4 52.4 0 0 1 23.289-8.463c8.32-.916 16.737.18 24.553 3.196a52.65 52.65 0 0 1 20.392 14.149 53.2 53.2 0 0 1 11.723 21.975"/><path fill="#cceff6" d="M133.926 184.201a5.085 5.085 0 0 1-1.826 5.342 5 5 0 0 1-1.774.863l-25.03 6.605a5 5 0 0 1-1.966.119 5.03 5.03 0 0 1-3.333-1.968 5.1 5.1 0 0 1-.86-1.786 5 5 0 0 1-.167-1.288 5.12 5.12 0 0 1 1.054-3.106 5.06 5.06 0 0 1 2.715-1.812l25.029-6.605a5.06 5.06 0 0 1 3.291.25 5.05 5.05 0 0 1 2.867 3.386M131.439 320.744l-9.741 1.851 2.066 11.044 9.742-1.851zM131.443 190.196a10.241 10.241 0 0 1-1.779 8.794 10.1 10.1 0 0 1-5.43 3.622l-8.446 2.224a10.008 10.008 0 0 1-7.656-1.056 10.1 10.1 0 0 1-2.947-2.634 10.2 10.2 0 0 1-1.719-3.573z"/><path fill="#f7cedc" d="m114.583 230.694 16.852 90.042-9.738 1.853-16.86-90.043z"/><path fill="#cceff6" d="M131.356 174.278c.106.42.161.853.161 1.29a5.1 5.1 0 0 1-1.051 3.109 5.05 5.05 0 0 1-2.718 1.814l-25.029 6.605a4.963 4.963 0 0 1-4.435-.963 5.1 5.1 0 0 1-1.387-1.769 5.16 5.16 0 0 1-.499-2.197 5.1 5.1 0 0 1 1.054-3.106 5.05 5.05 0 0 1 2.715-1.812l1.037-.272 1.279-.338 19.651-5.183 1.65-.434 1.412-.372a5.01 5.01 0 0 1 3.824.53 5.09 5.09 0 0 1 2.336 3.098"/><path fill="#fae173" d="m122.107 171.382.02.074-19.651 5.183-.02-.068-19.808-76.213c4.631 6.326 8.278 4.103 10.154-.185 3.695 2.741 8.057 2.781 9.497-5.004z"/><path fill="#f7cedc" d="M89.708 87.118c5.015-1.322 5.507 7.562 3.096 13.056-4.79-3.554-8.446-11.646-3.096-13.056"/><path fill="#cceff6" d="M80.092 262.537a25 25 0 0 1-3.867 18.613 24.65 24.65 0 0 1-15.792 10.409l-1.278-6.844a17.7 17.7 0 0 0 8.83-4.507 17.9 17.9 0 0 0 5.06-8.573 18 18 0 0 0-.282-9.971 17.9 17.9 0 0 0-5.539-8.269l4.643-5.149a24.76 24.76 0 0 1 8.225 14.291"/><path fill="#f7cedc" d="m71.867 248.246-4.643 5.149a17.632 17.632 0 0 0-21.212-1.157 17.86 17.86 0 0 0-6.88 8.899 18 18 0 0 0-.224 11.278l-.11.034-6.7 1.276c-.184-.652-.331-1.31-.459-1.981a25 25 0 0 1 1.809-14.954 24.8 24.8 0 0 1 10.051-11.151 24.5 24.5 0 0 1 14.597-3.247 24.56 24.56 0 0 1 13.775 5.851z"/><path fill="#006b99" d="m65.776 333.223 2.067 11.035-18.46 3.514-2.067-11.044zM62.7 316.768l2.067 11.036-18.468 3.513-2.065-11.041z"/><path fill="#f7cedc" d="M61.86 204.461c.18.966.07 1.965-.313 2.87a4.97 4.97 0 0 1-1.842 2.21 4.91 4.91 0 0 1-5.483-.058 4.97 4.97 0 0 1-1.796-2.25 5 5 0 0 1-.253-2.876c.2-.964.678-1.845 1.375-2.533a4.93 4.93 0 0 1 2.538-1.339 5 5 0 0 1 1.93.019 4.9 4.9 0 0 1 1.775.763 4.97 4.97 0 0 1 2.07 3.194"/><path fill="#006b99" d="m59.618 300.316 2.067 11.033-18.468 3.513-2.065-11.041zM59.155 284.715l1.278 6.844a24.5 24.5 0 0 1-17.624-3.34 24.83 24.83 0 0 1-10.716-14.491l6.702-1.276.11-.034a17.88 17.88 0 0 0 7.797 10.04 17.64 17.64 0 0 0 12.453 2.257"/><path fill="#f7cedc" d="M41.184 208.387c.18.966.073 1.966-.31 2.872a4.96 4.96 0 0 1-1.84 2.213 4.9 4.9 0 0 1-5.484-.051 4.97 4.97 0 0 1-1.797-2.251 5.01 5.01 0 0 1 1.118-5.411 4.915 4.915 0 0 1 7.592.825c.355.548.6 1.161.72 1.803M20.51 212.321c.179.967.07 1.965-.314 2.87a4.97 4.97 0 0 1-1.842 2.212 4.906 4.906 0 0 1-5.483-.059 4.96 4.96 0 0 1-1.796-2.251 5.01 5.01 0 0 1 1.122-5.409 4.92 4.92 0 0 1 4.468-1.319c.636.133 1.24.393 1.776.762a4.97 4.97 0 0 1 2.068 3.194"/><path stroke="#1f2223" stroke-linecap="round" stroke-linejoin="round" stroke-width="2" d="M123.778 171.022a10.04 10.04 0 0 0 5.916-4.484 10.18 10.18 0 0 0 1.252-7.353l-.209-1.02a97.52 97.52 0 0 1 5.875-57.649 53.45 53.45 0 0 0 3.446-28.933 53.26 53.26 0 0 0-12.232-26.406 52.63 52.63 0 0 0-24.223-15.916 52.27 52.27 0 0 0-28.91-.628 52.6 52.6 0 0 0-24.881 14.849 53.2 53.2 0 0 0-13.351 25.85 53.46 53.46 0 0 0 2.205 29.056 53.05 53.05 0 0 0 17.096 23.503c15.778 12.282 27.444 29.14 33.429 48.305a10.12 10.12 0 0 0 3.628 5.119 10 10 0 0 0 5.929 1.967 10 10 0 0 0 2.443-.304M98.278 186.138a5.154 5.154 0 0 1-1.885-3.968 5.1 5.1 0 0 1 1.054-3.104 5.05 5.05 0 0 1 2.715-1.813l1.037-.271 1.278-.339 19.651-5.183 1.651-.433 1.411-.374a5 5 0 0 1 1.968-.12c.657.09 1.291.309 1.864.647a5 5 0 0 1 1.476 1.316 5.07 5.07 0 0 1 1.026 3.075c0 1.125-.37 2.219-1.052 3.109a5.05 5.05 0 0 1-2.717 1.816l-25.035 6.6a4.964 4.964 0 0 1-4.436-.963M102.302 95.17l19.806 76.212"/><path stroke="#1f2223" stroke-linecap="round" stroke-linejoin="round" stroke-width="2" d="M92.804 100.173c3.695 2.741 8.057 2.781 9.497-5.004"/><path stroke="#1f2223" stroke-linecap="round" stroke-linejoin="round" stroke-width="2" d="M92.804 100.174c2.41-5.494 1.92-14.378-3.096-13.056-5.35 1.41-1.694 9.502 3.096 13.056M102.456 176.57l-19.808-76.212c4.631 6.326 8.278 4.103 10.154-.185M131.059 180.815a5.06 5.06 0 0 1 2.312 2.044c.542.907.789 1.96.708 3.016a5.1 5.1 0 0 1-1.157 2.87 5.04 5.04 0 0 1-2.596 1.661l-25.03 6.605a5 5 0 0 1-1.966.119 5.03 5.03 0 0 1-3.333-1.968 5.1 5.1 0 0 1-.86-1.786 5 5 0 0 1-.167-1.288 5.12 5.12 0 0 1 1.054-3.106 5.06 5.06 0 0 1 2.715-1.812l25.029-6.605a5.06 5.06 0 0 1 3.291.25M124.234 202.613l-8.446 2.227a10.042 10.042 0 0 1-7.656-1.057 10.13 10.13 0 0 1-4.666-6.207l27.977-7.38a10.224 10.224 0 0 1-1.779 8.794 10.08 10.08 0 0 1-5.43 3.623M351.633 179.156c12.607 7.415 21.865 19.477 25.82 33.639a57.15 57.15 0 0 1-4.624 42.273c-6.92 12.955-18.561 22.695-32.47 27.167a55.9 55.9 0 0 1-42.081-3.197c-13.086-6.522-23.148-17.911-28.063-31.765a57.16 57.16 0 0 1 1.716-42.493c6.017-13.404 16.964-23.931 30.533-29.36a55.91 55.91 0 0 1 42.201.262c2.4.99 4.729 2.148 6.968 3.467M130.77 179.961l.128-.025 38.899-7.394"/><path stroke="#1f2223" stroke-linecap="round" stroke-linejoin="round" stroke-width="2" d="m231.487 212.538 21.811 116.548-220.532 41.928-31.161-166.5 96.672-18.381h.007M29.334 224.936l131.162-24.937"/><path stroke="#1f2223" stroke-linecap="round" stroke-linejoin="round" stroke-width="2" d="M20.51 212.321c.179.967.07 1.965-.314 2.87a4.97 4.97 0 0 1-1.842 2.212 4.906 4.906 0 0 1-5.483-.059 4.96 4.96 0 0 1-1.796-2.251 5.01 5.01 0 0 1 1.122-5.409 4.92 4.92 0 0 1 4.468-1.319c.636.133 1.24.393 1.776.762a4.97 4.97 0 0 1 2.068 3.194M41.184 208.387c.18.966.073 1.966-.31 2.872a4.96 4.96 0 0 1-1.84 2.213 4.9 4.9 0 0 1-5.484-.051 4.97 4.97 0 0 1-1.797-2.251 5.01 5.01 0 0 1 1.118-5.411 4.915 4.915 0 0 1 7.592.825c.355.548.6 1.161.72 1.803M61.86 204.461c.18.966.07 1.965-.313 2.87a4.97 4.97 0 0 1-1.842 2.21 4.91 4.91 0 0 1-5.483-.058 4.97 4.97 0 0 1-1.796-2.25 5 5 0 0 1-.253-2.876c.2-.964.678-1.845 1.375-2.533a4.93 4.93 0 0 1 2.538-1.339 5 5 0 0 1 1.93.019 4.9 4.9 0 0 1 1.775.763 4.97 4.97 0 0 1 2.07 3.194M266.907 219.36l-35.42-6.822-66.832-12.873 5.144-27.124.666-3.485 20.553-108.384L367.651 94.7l-16.018 84.449v.005M206.977 83.516l140.531 27.069"/><path stroke="#1f2223" stroke-linecap="round" stroke-linejoin="round" stroke-width="2" d="M203.34 72.572a4.17 4.17 0 0 1-1.113 2.136 4.093 4.093 0 0 1-4.486.935 4.13 4.13 0 0 1-1.862-1.516 4.17 4.17 0 0 1-.712-2.302 4.17 4.17 0 0 1 .677-2.314 4.13 4.13 0 0 1 1.838-1.545 4.09 4.09 0 0 1 3.871.354 4.15 4.15 0 0 1 1.774 2.63c.11.535.114 1.087.013 1.622M220.599 75.893a4.17 4.17 0 0 1-1.114 2.137 4.096 4.096 0 0 1-4.488.936 4.14 4.14 0 0 1-1.863-1.516 4.17 4.17 0 0 1-.713-2.304 4.18 4.18 0 0 1 .677-2.315 4.13 4.13 0 0 1 1.84-1.546 4.106 4.106 0 0 1 5.022 1.49 4.201 4.201 0 0 1 .639 3.118M237.859 79.224a4.16 4.16 0 0 1-1.115 2.135 4.1 4.1 0 0 1-2.105 1.15 4.1 4.1 0 0 1-2.383-.222 4.14 4.14 0 0 1-1.862-1.518 4.2 4.2 0 0 1-.709-2.304 4.17 4.17 0 0 1 .677-2.313 4.14 4.14 0 0 1 1.839-1.544 4.1 4.1 0 0 1 2.382-.255 4.14 4.14 0 0 1 2.639 1.752c.613.914.843 2.036.637 3.12M343.786 162.273c1.507 2.26 1.857 6.241.887 13.409M329.778 171.382c1.96-5.494 3.905-10.072 6.871-11.415M294.655 138.962c4.435 6.369-.598 25.413.222 39.929M259.349 111.149c9.78 12.187-9.757 66.14 3.425 68.291 13.091 2.128 14.735-35.757 24.789-41.834M208.307 113.793c10.056 12.392-12.672 74.856 7.855 78.323 20.906 3.534 21.702-75.407 36.208-82.799M170.465 169.056c8.298 1.111 16.172-50.468 30.412-56.762M71.867 248.246a24.84 24.84 0 0 1 6.731 9.289 25.02 25.02 0 0 1-1.555 22.324 24.76 24.76 0 0 1-7.953 8.251 24.48 24.48 0 0 1-22.098 2.213 24.64 24.64 0 0 1-9.409-6.512 24.9 24.9 0 0 1-5.49-10.083c-.183-.652-.33-1.31-.458-1.979a25.02 25.02 0 0 1 1.81-14.956 24.77 24.77 0 0 1 10.05-11.149 24.5 24.5 0 0 1 14.597-3.247 24.54 24.54 0 0 1 13.775 5.849"/><path stroke="#1f2223" stroke-linecap="round" stroke-linejoin="round" stroke-width="2" d="M67.224 253.395c3.1 2.602 5.229 6.19 6.035 10.174a18.02 18.02 0 0 1-1.6 11.745 17.82 17.82 0 0 1-8.535 8.157 17.62 17.62 0 0 1-11.72.99 17.74 17.74 0 0 1-9.764-6.61 18 18 0 0 1-3.52-11.311 17.97 17.97 0 0 1 4.268-11.045 17.73 17.73 0 0 1 10.184-5.933 17.5 17.5 0 0 1 7.754.254 17.6 17.6 0 0 1 6.898 3.579M59.155 284.715l1.278 6.844M67.224 253.395l4.643-5.149"/><path stroke="#1f2223" stroke-linecap="round" stroke-linejoin="round" stroke-width="2" d="m38.795 272.452-6.702 1.276-.082.014M216.202 316.056l20.319-3.864-18.515-98.916M188.634 321.293l17.824-3.385M178.896 323.144l9.738-1.846M161.069 326.536l17.827-3.386M133.502 331.778l17.827-3.39M105.324 337.136l18.44-3.506M61.685 311.349l-18.468 3.513-2.065-11.041 18.466-3.505zM64.767 327.804 46.3 331.317l-2.065-11.041 18.467-3.508zM67.843 344.258l-18.46 3.514-2.067-11.044 18.46-3.505zM133.501 331.778l-9.738 1.853-2.066-11.042-16.86-90.043 9.746-1.852 16.852 90.042zM161.069 326.536l-9.74 1.852-9.26-49.456-9.664-51.628 9.746-1.853 9.664 51.628zM188.634 321.298l-9.738 1.853v-.007l-5.149-27.49-13.775-73.588 9.739-1.852 13.777 73.591 5.146 27.488zM216.202 316.056l-9.744 1.852-12.262-65.538-6.658-35.546 9.739-1.853 6.656 35.546zM121.698 322.589l9.738-1.851M142.069 278.93l9.738-1.851M173.747 295.654l9.741-1.849M194.196 252.37l9.737-1.853M363.235 188.168l-40.212 40.526-40.213 40.523M282.81 188.168l40.213 40.526M71.41 19.784 66.542 1.605M92.495 19.784 94.46 3.485M52.793 32.29 42.08 19.783"/></svg>