<svg xmlns="http://www.w3.org/2000/svg" width="355" height="238" fill="none" viewBox="0 0 355 238"><g clip-path="url(#a)"><path fill="#fae173" d="M355 0H0v238h355z"/><path fill="#ffceb6" d="M165.137 139.959a3.3 3.3 0 0 1 .01-1.468c.892-3.961.757-9.806 1.649-14.557s3.831-4.218 7.081-5.356c2.074-.73 4.016-1.851 6.225-2.881a28.6 28.6 0 0 1 4.076-1.58c4.137-1.221 14.523 3.169 19.553 3.976 1.189.189 2.36.475 3.503.854l.023-.069s22.94-15.763 28.937-20.08c5.998-4.317 18.31-13.083 18.31-13.083l14.022 32.377s-27.531 18.243-31.606 21.84c-4.074 3.596-13.035 8.168-13.035 8.168l-.072-.018c-.547 2.512-2.367 5.377-7.384 8.217l-.302.106a27 27 0 0 0-3.129-5.398c-5.003-9.227-25.409-22.9-27.173-22.606s-6.637.937-6.637.937c-.358 1.079-1.856 1.683-1.856 1.683h-.128a13.97 13.97 0 0 1-3.16 8.957c-3.265 4.129-8.235 2.957-8.907-.019"/><path fill="#cceff6" d="M221.895 58.74a17 17 0 0 1 .369 4.485 1.88 1.88 0 0 1-2.183 1.742l-6.817-1.128a1.86 1.86 0 0 1-1.564-1.728 5 5 0 0 0-1.149-3.073 6.3 6.3 0 0 0-.981-.92l-1.962 11.916 2.802 1.7q5.78 3.415 7.429 7.926a18.3 18.3 0 0 1 .845 9.398 16.8 16.8 0 0 1-2.311 6.257 17.4 17.4 0 0 1-4.28 4.705 15.8 15.8 0 0 1-5.789 2.721c-1.36.335-2.758.489-4.158.459l-.939 5.707a2.44 2.44 0 0 1-1.849 1.978 2.42 2.42 0 0 1-1.837-.305 2.45 2.45 0 0 1-1.116-2.469l.928-5.636a15.7 15.7 0 0 1-8.42-5.624 15 15 0 0 1-2.383-4.33q-.254-.696-.451-1.44a16.3 16.3 0 0 1-.547-3.956 2.97 2.97 0 0 1 1.013-2.299 2.95 2.95 0 0 1 2.411-.687l2.88.48 2.044.337a2.95 2.95 0 0 1 2.42 2.429c.143.84.386 1.66.724 2.441a4.05 4.05 0 0 0 2.05 2.077l2.213-13.443-2.445-1.392a18.34 18.34 0 0 1-7.222-7.164 15.1 15.1 0 0 1-1.432-9.89 16.2 16.2 0 0 1 2.363-6.246 15.9 15.9 0 0 1 4.425-4.568 14.8 14.8 0 0 1 5.638-2.471 16.8 16.8 0 0 1 3.951-.347l.826-5.019a2.44 2.44 0 0 1 1.849-1.978 2.43 2.43 0 0 1 2.531.955 2.45 2.45 0 0 1 .423 1.819l-.823 5.006a15.6 15.6 0 0 1 3.746 1.69 14.4 14.4 0 0 1 4.375 4.184 16.3 16.3 0 0 1 2.403 5.701m-13.651 28.813a6.53 6.53 0 0 0-.55-4.105 7 7 0 0 0-1.932-2.231l-1.836 11.147a7.2 7.2 0 0 0 1.698-.726 5.46 5.46 0 0 0 2.62-4.085m-5.119-20.279 1.695-10.293a4.5 4.5 0 0 0-2.169 1.027 5.9 5.9 0 0 0-2.044 3.624 6.5 6.5 0 0 0 .266 3.111 5.56 5.56 0 0 0 2.252 2.531"/><path fill="#ffceb6" d="M165.137 139.958c.671 2.977 5.642 4.145 8.902.021a13.98 13.98 0 0 0 3.16-8.957h.129s1.497-.604 1.856-1.683c0 0 4.868-.643 6.636-.937s22.17 13.379 27.174 22.606a27 27 0 0 1 3.128 5.398c.543 1.406.75 2.746.096 3.522-2.256 2.688-5.014 1.897-6.95-.337a12 12 0 0 1-.287-.343c-1.946-2.492-6.941-8.574-6.941-8.574l-4.167-2.593a31 31 0 0 1 2.733 2.914c1.116 1.525 5.504 6.016 7.475 9.096.507.666.84 1.448.969 2.276a3.821 3.821 0 0 1-3.5 3.547 3.8 3.8 0 0 1-1.768-.282 1 1 0 0 1-.198-.106c-1.669-1.036-9.882-8.421-11.156-9.625a3.9 3.9 0 0 0-1.03-1.222 6 6 0 0 0-.817-.554l-.013-.01c-2.159-1.231-4.523-.768-6.564.831-2.252 1.773-1.264.726-2.238 1.743a3.7 3.7 0 0 0-.972-2.138c-2.017-2.271-4.753-2.383-7.327-.994a58 58 0 0 0-5.741 3.782l-7.493.719-.065-.012a5.8 5.8 0 0 0-.817-3.841c-1.628-2.462-4.071-2.208-5.358-2.131a2.8 2.8 0 0 0-.623.112l-.016-.112a27 27 0 0 1-2.894-1.658c-1.218-.762-2.54-1.64-3.598-2.352a200 200 0 0 1-2.001-1.366 222 222 0 0 1 2.07-28.461l1.69.657c2.738 1.066 7.913 3.073 8.574 3.307a2.2 2.2 0 0 0 2.055 0c.937-.356 11.965-6.177 14.194-6.708 2.228-.532 6.652.2 6.652.2-2.212 1.033-4.154 2.155-6.225 2.881-3.246 1.139-6.192.6-7.081 5.355s-.756 10.597-1.649 14.557a3.3 3.3 0 0 0-.004 1.472"/><path fill="#ffceb6" d="M208.991 159.247q.144.178.288.342s-1.159.538-1.182.503c-1.971-3.079-6.36-7.571-7.475-9.096a31 31 0 0 0-2.733-2.914l4.167 2.592s4.989 6.081 6.935 8.573M203.595 165.526l-.227.333a2.93 2.93 0 0 1-1.593 2.087 4.95 4.95 0 0 1-3.944.586 14 14 0 0 1-1.714-.986l-.876-.096c.442-.41.834-.872 1.165-1.376 1.245-2.105 1.202-3.409-.171-4.505a4.06 4.06 0 0 0-3.937-.946l-.145-.09q.111-.184.192-.384a4.98 4.98 0 0 0 .095-4.243c1.274 1.198 9.483 8.584 11.155 9.62"/><path fill="#ffceb6" d="M197.831 168.533a8.77 8.77 0 0 1-4.552 2.971 2.77 2.77 0 0 1-2.314-.205l-.448-.007a47 47 0 0 0 4.723-3.84l.877.096q.823.552 1.714.985"/><path fill="#ffceb6" d="M196.235 161.561c1.373 1.096 1.412 2.401.171 4.505a7.5 7.5 0 0 1-1.165 1.377 47 47 0 0 1-4.724 3.84c-.55.4-.901.643-.901.643-5.42 3.192-7.822 3.901-9.761 2.986a4.29 4.29 0 0 1-2.518-2.765l-.096-.218a52 52 0 0 0 6.308-3.302s7.087-5.528 8.601-8.105l.145.089a4.05 4.05 0 0 1 3.94.95"/><path fill="#ffceb6" d="M192.441 155.897a4.97 4.97 0 0 1-.096 4.244 2.6 2.6 0 0 1-.191.384c-1.515 2.577-8.601 8.104-8.601 8.104a52 52 0 0 1-6.308 3.303c-4.501 1.878-5.549.769-7.166.007a6.63 6.63 0 0 1-3.219-3.874v-.046c1.339-.1 2.645-.459 3.848-1.056 0 0 8.783-4.705 10.103-6.874a5.55 5.55 0 0 0 .971-3.406c.974-1.017-.013.03 2.238-1.742 2.041-1.601 4.406-2.063 6.565-.832l.012.01q.433.243.817.555c.424.331.774.748 1.027 1.223"/><path fill="#ffceb6" d="M167.731 157.337a58 58 0 0 1 5.746-3.782c2.575-1.39 5.31-1.277 7.328.994.547.588.888 1.338.971 2.138a5.53 5.53 0 0 1-.971 3.405c-1.32 2.169-10.102 6.874-10.102 6.874-1.203.597-2.51.956-3.849 1.056a22 22 0 0 1-7.508-1.056c-2.643-.686-3.904-5.642-3.904-5.642a11.5 11.5 0 0 0 2.93-.892 3.11 3.11 0 0 0 1.804-2.389l.065.013z"/><path fill="#cceff6" d="m178.881 36.874.621 3.017-37.042 7.652 10.043 48.865-3.012.62-.621-3.02-10.041-48.86 37.04-7.653z"/><path fill="#006b99" d="m175.869 37.495-37.04 7.653 10.041 48.86-3.012.624-10.663-51.884 40.055-8.273z"/><path fill="#ffceb6" d="M153.378 152.185q.305-.092.623-.113c1.287-.073 3.726-.33 5.359 2.132.711 1.145 1 2.504.817 3.841a3.117 3.117 0 0 1-1.805 2.388 11.5 11.5 0 0 1-2.929.891c-2.248.379-4.586.175-5.613-.838-1.724-1.706-3.578-5.626.448-9.768l.192-.304a27 27 0 0 0 2.893 1.657z"/><path fill="#cceff6" d="m148.053 116.58-.037.03a.4.4 0 0 0-.303-.162.4.4 0 0 0-.318.132 4.6 4.6 0 0 0-.455 1.657 222 222 0 0 0-2.07 28.46c.042 2.194.217 3.64.569 3.835.22.152.491.211.754.164l.013.043c-.981.654-3.598.983-4.31-1.092a26.3 26.3 0 0 1-.039-5.063c.339-8.161 1.665-23.523 2.394-27.733.039-.366.13-.725.271-1.065.786-1.034 3.439-.439 3.531.794"/><path fill="#ffceb6" d="m144.074 116.818.181.034c-.73 4.214-2.057 19.576-2.394 27.733h-.096s-5.675-2.554-8.558-2.898c-4.181-.494-46.655-20.268-46.655-20.268l16.252-31.733 38.629 25.815z"/><path stroke="#ffceb6" stroke-linecap="round" stroke-linejoin="round" stroke-width="3.396" d="m254.5 85.715 14.023 32.377M86.548 121.415l16.255-31.73"/><path stroke="#006b99" stroke-linecap="round" stroke-linejoin="round" stroke-width="3.396" d="M221.012 189.832a69.5 69.5 0 0 1-34.041 11.42 69.47 69.47 0 0 1-35.191-7.095 69.7 69.7 0 0 1-26.99-23.726 69.9 69.9 0 0 1-11.614-34.05M252.205 133.701a69.8 69.8 0 0 1-7.087 28.685 69.6 69.6 0 0 1-18.316 23.156"/><path stroke="#006b99" stroke-linecap="round" stroke-linejoin="round" stroke-width="3.396" d="M213.244 178.714a55.397 55.397 0 0 1-51.873 4.969 55.5 55.5 0 0 1-21.578-16.019 55.7 55.7 0 0 1-11.557-24.297M237.182 142.646a55.65 55.65 0 0 1-19.32 32.646M219.955 91.305a55.8 55.8 0 0 1 8.701 9.993M133.052 107.548a55.9 55.9 0 0 1 9.905-14.018M216.677 70.723a70.06 70.06 0 0 1 22.273 19.863M121.103 98.929a70.1 70.1 0 0 1 17.963-21.758M207.26 118.877s22.94-15.764 28.937-20.08c5.998-4.317 18.307-13.082 18.307-13.082M223.884 148.099s8.959-4.574 13.035-8.168c4.075-3.593 31.606-21.839 31.606-21.839M86.548 121.415s42.475 19.779 46.655 20.268c2.884.344 8.559 2.898 8.559 2.898M144.076 116.818l-2.643-1.317-38.63-25.815"/><path stroke="#006b99" stroke-linecap="round" stroke-linejoin="round" stroke-width="3.396" d="M148.662 118.808a5.4 5.4 0 0 0-.646-2.198.4.4 0 0 0-.621-.03 4.6 4.6 0 0 0-.455 1.657 222 222 0 0 0-2.07 28.459c.042 2.194.216 3.641.569 3.836.22.152.49.21.754.164.862-.224.583-2.353.583-2.353"/><path stroke="#006b99" stroke-linecap="round" stroke-linejoin="round" stroke-width="3.396" d="M148.053 116.58c-.096-1.233-2.745-1.824-3.526-.795-.14.341-.231.7-.27 1.066-.731 4.214-2.057 19.576-2.394 27.733-.15 1.685-.137 3.38.039 5.063.708 2.075 3.325 1.745 4.31 1.092"/><path stroke="#006b99" stroke-linecap="round" stroke-linejoin="round" stroke-width="3.396" d="m146.94 118.237 1.689.656c2.739 1.066 7.913 3.073 8.575 3.307a2.19 2.19 0 0 0 2.055 0c.937-.356 11.965-6.178 14.194-6.708 2.228-.531 6.652.2 6.652.2M144.87 146.697s.836.58 2.001 1.366c1.053.712 2.38 1.59 3.598 2.352q1.396.918 2.893 1.657M223.554 141.805c0 1.394.832 3.638.257 6.277-.547 2.512-2.367 5.377-7.384 8.218"/><path stroke="#006b99" stroke-linecap="round" stroke-linejoin="round" stroke-width="3.396" d="M211.766 121.111a17.6 17.6 0 0 0-4.53-2.165 22 22 0 0 0-3.502-.854c-5.03-.806-15.42-5.198-19.554-3.977a28.6 28.6 0 0 0-4.075 1.581c-2.212 1.033-4.154 2.154-6.225 2.88-3.246 1.139-6.192.6-7.081 5.356s-.757 10.597-1.649 14.557a3.3 3.3 0 0 0-.01 1.468c.67 2.977 5.642 4.145 8.902.02a13.97 13.97 0 0 0 3.16-8.956 13 13 0 0 0-.309-2.736"/><path stroke="#006b99" stroke-linecap="round" stroke-linejoin="round" stroke-width="3.396" d="M177.33 131.021s1.498-.604 1.856-1.683c0 0 4.869-.643 6.637-.937s22.17 13.379 27.173 22.605M212.997 151.007a27 27 0 0 1 3.128 5.398c.543 1.406.75 2.746.095 3.522-2.255 2.688-5.014 1.897-6.949-.337a10 10 0 0 1-.287-.343c-1.947-2.492-6.94-8.574-6.94-8.574l-4.167-2.593"/><path stroke="#006b99" stroke-linecap="round" stroke-linejoin="round" stroke-width="3.396" d="M190.593 139.226c.085.889.307 1.759.658 2.579.273.317 3.914 3.608 6.633 6.277a31 31 0 0 1 2.732 2.914c1.116 1.525 5.505 6.017 7.476 9.096.506.666.839 1.448.968 2.276a3.83 3.83 0 0 1-1.798 2.988 3.812 3.812 0 0 1-3.47.277 1 1 0 0 1-.198-.106c-1.668-1.036-9.881-8.421-11.156-9.625l-.006-.007M203.368 165.859a2.93 2.93 0 0 1-1.593 2.087 4.95 4.95 0 0 1-3.944.586 14 14 0 0 1-1.714-.986M197.831 168.532a8.77 8.77 0 0 1-4.552 2.971 2.77 2.77 0 0 1-2.314-.204M185.823 128.401s1.488-1.479 1.488-2.32M179.187 129.338a5.6 5.6 0 0 0 0-2.099M165.062 139.651a.66.66 0 0 0 .075.31c.596 1.208 4.774.818 6.113-1.194 1.445-2.175-.319-5.066-.319-5.066M165.95 132.915s1.073-.082 2.49-.248M212.52 160.092a6.65 6.65 0 0 0 2.63-1.499"/><path stroke="#006b99" stroke-linecap="round" stroke-linejoin="round" stroke-width="3.396" d="M209.274 159.59s-1.159.537-1.182.502M151.094 153.4a8 8 0 0 1 2.284-1.21q.305-.092.623-.113c1.287-.073 3.726-.33 5.359 2.132.711 1.145 1 2.504.817 3.84a3.117 3.117 0 0 1-1.805 2.389 11.5 11.5 0 0 1-2.929.891c-2.248.379-4.586.175-5.613-.838-1.724-1.706-3.578-5.626.448-9.768M167.731 157.337c-.761.555-1.393 1.027-1.784 1.318"/><path stroke="#006b99" stroke-linecap="round" stroke-linejoin="round" stroke-width="3.396" d="M155.443 161.326s1.261 4.956 3.904 5.642a22 22 0 0 0 7.509 1.056c1.338-.1 2.645-.459 3.848-1.056 0 0 8.782-4.705 10.102-6.873a5.54 5.54 0 0 0 .971-3.406 3.7 3.7 0 0 0-.971-2.138c-2.018-2.271-4.753-2.384-7.328-.994a58 58 0 0 0-5.741 3.782"/><path stroke="#006b99" stroke-linecap="round" stroke-linejoin="round" stroke-width="3.396" d="M167.738 157.339h-.003l-7.493.719M173.656 156.944a4.06 4.06 0 0 0-.957 2.646 2.504 2.504 0 0 0 2.506 2.219 2.5 2.5 0 0 0 1.17-.305c1.703-.944 4.428-2.854 3.678-4.56M174.825 155.897a4.44 4.44 0 0 1 2.1-1.04 2.17 2.17 0 0 1 1.505.518M190.58 154.115c-2.16-1.231-4.523-.769-6.564.831-2.252 1.773-1.265.726-2.239 1.743q-.029.03-.062.066M166.86 168.071a6.62 6.62 0 0 0 3.219 3.874c1.616.762 2.669 1.871 7.165-.007a52 52 0 0 0 6.308-3.303s7.088-5.528 8.601-8.104q.111-.185.192-.384a4.99 4.99 0 0 0 .095-4.244 3.9 3.9 0 0 0-1.029-1.222 6 6 0 0 0-.817-.554"/><path stroke="#006b99" stroke-linecap="round" stroke-linejoin="round" stroke-width="3.396" d="M184.763 158.253a4.08 4.08 0 0 0-.491 2.772 2.5 2.5 0 0 0 1.64 1.682 2.49 2.49 0 0 0 2.307-.421c1.521-1.221 3.881-3.568 2.855-5.122M185.737 157.019a4.45 4.45 0 0 1 1.892-1.38 2.18 2.18 0 0 1 1.574.255M177.337 172.156a4.3 4.3 0 0 0 2.518 2.765c1.939.914 4.342.205 9.76-2.986 0 0 .352-.244.902-.643a47 47 0 0 0 4.723-3.841c.443-.41.834-.872 1.166-1.377 1.245-2.104 1.202-3.408-.171-4.504a4.042 4.042 0 0 0-3.937-.946"/><path stroke="#006b99" stroke-linecap="round" stroke-linejoin="round" stroke-width="3.396" d="M190.823 163.827a3.15 3.15 0 0 0-.378 2.142 1.937 1.937 0 0 0 2.202 1.364c.311-.057.604-.191.852-.388 1.176-.944 3.003-2.758 2.203-3.963M191.579 162.87a3.4 3.4 0 0 1 1.469-1.066c.415-.092.849-.02 1.214.198M187.311 149.934l1.103 2.109 2.166 2.072.012.01M158.373 160.435a9 9 0 0 1-2.578-1.785 5.56 5.56 0 0 1-1.03-2.255 1.085 1.085 0 0 0-1.758-.63 2.4 2.4 0 0 0-.909 1.399 2.95 2.95 0 0 0 1.56 3.287M186.505 92.53l-33.383 6.893-.619-3.016-10.043-48.864 37.042-7.652 3.01-.62 9.322 45.342"/><path stroke="#006b99" stroke-linecap="round" stroke-linejoin="round" stroke-width="3.396" d="m152.503 96.408-3.012.62-.621-3.02-10.041-48.86 37.04-7.653 3.012-.621.621 3.017v.003"/><path stroke="#006b99" stroke-linecap="round" stroke-linejoin="round" stroke-width="3.396" d="m148.87 94.008-3.012.624-10.663-51.884 40.055-8.273.619 3.02M150.251 53.13l27.309-5.64M152.997 58.86l27.309-5.644M150.607 62.5l30.321-6.265M151.226 65.518l30.321-6.263M151.848 68.538l21.285-4.399M155.479 70.935l27.309-5.64M153.09 74.574l30.32-6.26M153.708 77.593l30.321-6.263M157.339 79.993l27.313-5.643M154.949 83.633l30.321-6.263M155.571 86.652l30.321-6.263M165.252 92.52l3.092-.637 3.673-.76 7.63-1.577 1.45-.3 2.432-.502"/><path stroke="#006b99" stroke-linecap="round" stroke-linejoin="round" stroke-width="3.396" d="M174.244 87.863c-.096.35-.689 2.555.128 2.578.882.026 2.894-5.06 2.894-5.06s-.985 4.13.206 4.215 1.019-2.937 2.052-3.217c.727-.199.124 1.96.124 3.168 0 .519.112.864.485.768.464-.115.743-.554.965-1.07.362-.863.568-1.94 1.214-2.101M170.413 89.348c.421 1.027 1.053 1.824 1.586 1.7 1.211-.294 2.113-2.812 2.242-3.185l.009-.033v-.01M170.413 89.348c.977-1.848 1.517-4.016.348-3.715-1.134.293-.953 2.237-.348 3.715"/><path stroke="#006b99" stroke-linecap="round" stroke-linejoin="round" stroke-width="3.396" d="M168.321 91.774c.655-.178 1.464-1.234 2.093-2.425M163.364 88.926l-1.515 2.306-1.514 2.303"/><path stroke="#006b99" stroke-linecap="round" stroke-linejoin="round" stroke-width="3.396" d="m159.548 89.714 2.301 1.518 2.298 1.515M186.528 92.52a15 15 0 0 0 2.383 4.33 15.7 15.7 0 0 0 8.421 5.623l-.929 5.636c-.052.316-.041.639.031.952a2.458 2.458 0 0 0 1.085 1.518 2.42 2.42 0 0 0 2.702-.089 2.43 2.43 0 0 0 .984-1.585l.939-5.706c1.4.03 2.798-.125 4.158-.459a15.8 15.8 0 0 0 5.789-2.724 17.3 17.3 0 0 0 4.28-4.705 16.8 16.8 0 0 0 2.313-6.254 18.3 18.3 0 0 0-.846-9.398q-1.649-4.512-7.429-7.927l-2.802-1.699 1.962-11.916c.359.27.687.58.98.92a5 5 0 0 1 1.15 3.073 1.86 1.86 0 0 0 1.564 1.728l6.817 1.128a1.87 1.87 0 0 0 1.975-.987c.122-.234.192-.49.208-.755a17 17 0 0 0-.369-4.484 16.3 16.3 0 0 0-2.403-5.696 14.4 14.4 0 0 0-4.375-4.184 15.6 15.6 0 0 0-3.746-1.69l.823-5.006a2.46 2.46 0 0 0-.423-1.82 2.44 2.44 0 0 0-1.582-.986 2.43 2.43 0 0 0-1.815.425 2.44 2.44 0 0 0-.983 1.585l-.826 5.02a16.7 16.7 0 0 0-3.95.346 14.8 14.8 0 0 0-5.639 2.471 16 16 0 0 0-4.425 4.568 16.2 16.2 0 0 0-2.363 6.247 15.1 15.1 0 0 0 1.432 9.89 18.34 18.34 0 0 0 7.222 7.163l2.443 1.39-2.212 13.442a4.04 4.04 0 0 1-2.051-2.076 10.7 10.7 0 0 1-.724-2.443 2.95 2.95 0 0 0-2.42-2.428l-2.044-.337-2.88-.48a2.94 2.94 0 0 0-2.411.687 2.96 2.96 0 0 0-1.013 2.299c.019 1.336.203 2.665.547 3.957q.198.737.452 1.436"/><path stroke="#006b99" stroke-linecap="round" stroke-linejoin="round" stroke-width="3.396" d="M200.869 64.746a6.5 6.5 0 0 1-.266-3.111 5.9 5.9 0 0 1 2.044-3.624 4.5 4.5 0 0 1 2.169-1.026l-1.695 10.292a5.56 5.56 0 0 1-2.252-2.53M205.627 91.638a7.2 7.2 0 0 1-1.698.726l1.836-11.147a7 7 0 0 1 1.932 2.23 6.53 6.53 0 0 1 .55 4.106 5.466 5.466 0 0 1-2.62 4.085"/></g><defs><clipPath id="a"><path fill="#fff" d="M0 0h355v238H0z"/></clipPath></defs></svg>