<svg xmlns="http://www.w3.org/2000/svg" width="355" height="238" fill="none" viewBox="0 0 355 238"><g clip-path="url(#a)"><path fill="#cceff6" d="M355 0H0v238h355z"/><path fill="#006b99" d="M262.075 83.355v4.78h-66.679v-4.78zm-53.672 2.588a1.13 1.13 0 0 0-.187-.62 1.097 1.097 0 0 0-1.701-.169 1.12 1.12 0 0 0-.24 1.217 1.1 1.1 0 0 0 1.808.363 1.13 1.13 0 0 0 .323-.795zm-4.353 0a1.12 1.12 0 0 0-.683-1.031 1.09 1.09 0 0 0-1.204.242 1.12 1.12 0 0 0-.241 1.216c.084.204.225.379.407.502a1.1 1.1 0 0 0 1.039.105 1.1 1.1 0 0 0 .602-.607q.084-.207.084-.43zm-4.354 0a1.113 1.113 0 0 0-.683-1.031 1.09 1.09 0 0 0-1.204.242 1.12 1.12 0 0 0-.24 1.217 1.1 1.1 0 0 0 1.448.607 1.11 1.11 0 0 0 .686-1.039z"/><path fill="#cceff6" d="M248.78 183.232h-72.762l-9.151-6.545-27.373-19.58.041-.185c.393.122.802.185 1.213.185h68.672a4.05 4.05 0 0 0 2.056-.559zm-39.624-10.039h19.571l-5.75-4.112-12.77-9.138h-59.075l5.118 3.663 13.402 9.587zm-15.964 7.527h28.399l-7.08-5.064h-28.47l7.08 5.064z"/><path fill="#cceff6" d="M228.727 173.193h-19.571v-.116l-5.336-3.816h19.033l.124-.179z"/><path fill="#cceff6" d="m178.011 163.606-5.118-3.663h37.314l12.77 9.138-.124.179H203.82l5.335 3.817v.116h-39.508l-13.402-9.587z"/><path fill="#f7cedc" d="M221.591 180.72H193.12l-7.08-5.064h28.471z"/><path fill="#cceff6" d="M213.506 128.287v24.696a4.15 4.15 0 0 1-1.197 2.917 4.058 4.058 0 0 1-2.889 1.207h-68.672a4.05 4.05 0 0 1-2.888-1.207 4.1 4.1 0 0 1-.885-1.339 4.2 4.2 0 0 1-.31-1.578v-49.389c0-1.095.43-2.144 1.196-2.917a4.06 4.06 0 0 1 2.887-1.21h68.672a4.079 4.079 0 0 1 2.89 1.209 4.14 4.14 0 0 1 1.196 2.919zm-3.109 22.44v-44.881c0-.86-.338-1.684-.94-2.292a3.2 3.2 0 0 0-2.268-.949H142.98c-.851 0-1.667.341-2.269.949a3.26 3.26 0 0 0-.939 2.292v44.881c0 .859.338 1.684.939 2.291a3.2 3.2 0 0 0 2.269.949h64.208c.851 0 1.667-.341 2.268-.949.602-.607.94-1.432.94-2.291z"/><path fill="#f7cedc" d="M210.396 105.846v13.874h-.61v-.233c0-3.96-2.208-5.896-4.906-5.896h-.289a.65.65 0 0 1-.465-.193.67.67 0 0 1-.194-.469v-1.046a2.54 2.54 0 0 0 1.027-.94c.249-.404.381-.871.381-1.346v-1.421c0-.676-.266-1.325-.739-1.804a2.52 2.52 0 0 0-1.786-.747c-.67 0-1.312.269-1.786.747a2.57 2.57 0 0 0-.739 1.804v1.421c0 .475.132.942.381 1.346s.605.729 1.027.94v1.049a.67.67 0 0 1-.658.667 5.4 5.4 0 0 0-2.196.39 5.4 5.4 0 0 0-1.855 1.252 5.48 5.48 0 0 0-1.53 4.129h-.063v-16.763h11.792c.85 0 1.666.341 2.268.948.601.608.94 1.431.94 2.291"/><path fill="#006b99" d="m209.713 152.527.137.01a3.184 3.184 0 0 1-2.659 1.429h-11.795v-.36h.063a5.5 5.5 0 0 1 .334-2.228 5.5 5.5 0 0 1 1.196-1.901 5.36 5.36 0 0 1 4.051-1.642.66.66 0 0 0 .66-.663v-1.049a2.54 2.54 0 0 1-1.028-.94 2.57 2.57 0 0 1-.381-1.347v-1.419c0-.677.266-1.326.739-1.804a2.51 2.51 0 0 1 3.572 0c.473.478.739 1.127.739 1.804v1.419c0 .476-.132.942-.381 1.347a2.54 2.54 0 0 1-1.028.94v1.051a.66.66 0 0 0 .66.663h.288c2.411-.003 4.428 1.542 4.833 4.69M209.787 136.453v.336h-14.391v-.462h.063a5.5 5.5 0 0 1 1.531-4.128 5.36 5.36 0 0 1 4.05-1.641.66.66 0 0 0 .66-.664v-1.048a2.53 2.53 0 0 1-1.028-.941 2.57 2.57 0 0 1-.381-1.347v-1.419c0-.677.266-1.326.739-1.804a2.52 2.52 0 0 1 1.786-.747c.67 0 1.312.269 1.786.747.473.478.739 1.127.739 1.804v1.422c0 .476-.132.943-.381 1.347a2.54 2.54 0 0 1-1.028.941v1.043a.66.66 0 0 0 .66.663h.288c2.699.003 4.907 1.941 4.907 5.898M209.787 119.491v.233h-14.391v-.36h.063a5.5 5.5 0 0 1 .336-2.226 5.5 5.5 0 0 1 1.197-1.899 5.375 5.375 0 0 1 4.048-1.64.66.66 0 0 0 .66-.662v-1.054a2.53 2.53 0 0 1-1.028-.94 2.57 2.57 0 0 1-.381-1.347v-1.42c0-.677.266-1.325.739-1.804a2.52 2.52 0 0 1 1.786-.747c.67 0 1.312.269 1.786.747.473.479.739 1.127.739 1.804v1.42c0 .476-.132.942-.381 1.347a2.53 2.53 0 0 1-1.028.94v1.049a.66.66 0 0 0 .66.663h.288c2.699.004 4.907 1.938 4.907 5.896"/><path fill="#ffceb6" d="M202.946 84.824c.219 0 .433.064.615.187a1.123 1.123 0 0 1 .17 1.72 1.1 1.1 0 0 1-1.206.242 1.12 1.12 0 0 1-.682-1.034c0-.295.116-.579.323-.788a1.1 1.1 0 0 1 .78-.327"/><path fill="#cceff6" d="M198.593 84.824a1.111 1.111 0 0 1 1.024.689 1.122 1.122 0 0 1-.24 1.218 1.1 1.1 0 0 1-1.206.242 1.1 1.1 0 0 1-.496-.412 1.12 1.12 0 0 1-.185-.622c0-.295.116-.579.323-.788a1.1 1.1 0 0 1 .78-.327"/><path fill="#006b99" d="M184.342 51.625v4.784H92.78v-4.785zm-78.548 2.588a1.13 1.13 0 0 0-.187-.62 1.1 1.1 0 0 0-1.701-.169 1.12 1.12 0 0 0 .781 1.907 1.1 1.1 0 0 0 1.023-.69c.055-.135.084-.281.084-.428m-4.353 0a1.12 1.12 0 0 0-.683-1.03 1.09 1.09 0 0 0-1.205.241 1.129 1.129 0 0 0 .166 1.718 1.1 1.1 0 0 0 1.638-.5c.056-.136.084-.282.084-.429m-4.354 0a1.12 1.12 0 0 0-.683-1.031 1.1 1.1 0 0 0-1.204.242 1.12 1.12 0 0 0-.24 1.217 1.101 1.101 0 0 0 2.044 0c.055-.135.084-.281.083-.428"/><path fill="#ffceb6" d="M181.186 120.631v2.196l-2.152-1.08c.221-.37.54-.669.92-.866a2.3 2.3 0 0 1 1.232-.25"/><path fill="#cceff6" d="m172.894 159.943 5.117 3.663h-21.766l-5.118-3.663z"/><path fill="#006b99" d="M163.192 75.945a.7.7 0 0 1 .102 1.04l-1.96 2.091-2.027 2.16-3.811 4.071-.225.032a1.647 1.647 0 0 0-1.11-.506v-.006l5.179-5.603 2.94-3.189a.7.7 0 0 1 .507-.223.7.7 0 0 1 .405.133"/><path fill="#ffceb6" d="m158.782 111.55 2.34 1.178c-.457 1.436-2.341.964-2.341.964zM157.747 68.377v2.196l-2.149-1.08c.221-.37.538-.669.918-.866s.806-.283 1.231-.25M156.242 88.622c.336.94-.7 1.89-.7 1.89-.792-.55-2.425.2-2.894 1.1-1.426-.195-1.39-.946-.891-1.653a4.5 4.5 0 0 1 1.252-1.146c1.116-.678 2.897-1.13 3.233-.191"/><path fill="#ffceb6" d="M155.122 86.941c1.27.727 1.12 1.68 1.12 1.68-.336-.938-2.117-.486-3.234.19a4.5 4.5 0 0 0-1.253 1.147l-.162-.111a2 2 0 0 1-.386-.06c-1.05-.263-.426-1.225-.382-1.294.56-.215 1.089-.5 1.576-.852q.213-.165.351-.398l.103.015s1.418-.803 2.267-.317"/><path fill="#ffceb6" d="M152.647 91.61c.47-.901 2.102-1.65 2.895-1.1s.345 2.048-1.532 4.197a5 5 0 0 1-1.689 1.427 4.9 4.9 0 0 1-2.133.553l-1.336 2.742v.038h-6.879v-.036l2.87-6.141 2.664-5.131c.172-.282.419-.51.713-.656a11.9 11.9 0 0 1 3.759-1.288q.216-.015.423.044.146.046.256.15.11.107.162.251a.65.65 0 0 1-.067.58q-.138.231-.351.398a7 7 0 0 1-1.576.851q-.258.106-.476.19l.025.068-4.44 4.743a.699.699 0 0 0 .51 1.169.69.69 0 0 0 .507-.224l4.145-4.428.111-.223q.19.048.386.059l.162.11c-.499.711-.533 1.462.891 1.656"/><path fill="#ffceb6" d="M155.272 85.342c.582.679-.149 1.6-.149 1.6-.849-.488-2.264.313-2.264.313l-.102-.015a.657.657 0 0 0-.352-.98 1.3 1.3 0 0 0-.423-.044c.221-.396.536-.73.917-.97.38-.24.815-.38 1.263-.407a1.65 1.65 0 0 1 1.11.503"/><path fill="#006b99" d="M154.974 153.604v.361H142.98a3.17 3.17 0 0 1-2.643-1.407l.046-.032c.405-3.15 2.423-4.693 4.83-4.693h.292a.656.656 0 0 0 .656-.662v-1.05a2.53 2.53 0 0 1-1.026-.94 2.56 2.56 0 0 1-.379-1.346v-1.42a2.56 2.56 0 0 1 .722-1.835 2.513 2.513 0 0 1 3.605 0c.234.243.42.529.544.844a2.6 2.6 0 0 1 .178.991v1.42c0 .476-.132.942-.381 1.346s-.604.73-1.027.94v1.053c0 .176.07.344.192.468.123.124.29.194.464.194a5.38 5.38 0 0 1 4.053 1.641 5.48 5.48 0 0 1 1.532 4.13z"/><path fill="#f7cedc" d="M154.974 136.789v16.816h-.335a5.486 5.486 0 0 0-1.532-4.131 5.4 5.4 0 0 0-1.856-1.251 5.35 5.35 0 0 0-2.197-.389.65.65 0 0 1-.464-.194.67.67 0 0 1-.192-.468v-1.05c.422-.21.778-.536 1.027-.94s.381-.87.381-1.346v-1.42a2.57 2.57 0 0 0-.756-1.773 2.51 2.51 0 0 0-3.538 0 2.57 2.57 0 0 0-.756 1.773v1.42c0 .475.131.942.379 1.346.249.404.604.73 1.027.94v1.052c0 .176-.07.345-.193.469a.65.65 0 0 1-.463.194h-.292c-2.406 0-4.425 1.545-4.83 4.693l-.046.031a3.23 3.23 0 0 1-.563-1.831v-13.941z"/><path fill="#006b99" d="M154.974 136.328v.461h-14.665v-.336c0-3.96 2.208-5.895 4.901-5.895h.292a.66.66 0 0 0 .464-.195.67.67 0 0 0 .192-.469v-1.048a2.54 2.54 0 0 1-1.026-.941 2.57 2.57 0 0 1-.379-1.346v-1.42a2.558 2.558 0 0 1 1.547-2.4 2.51 2.51 0 0 1 3.324 1.409c.124.315.185.652.179.991v1.422a2.6 2.6 0 0 1-.381 1.347c-.249.404-.605.73-1.027.941v1.043a.659.659 0 0 0 .655.663 5.397 5.397 0 0 1 4.053 1.64 5.48 5.48 0 0 1 1.532 4.13zM154.974 119.366v.36h-14.665v-.234c0-3.96 2.208-5.896 4.901-5.896h.292c.174 0 .341-.07.464-.194a.66.66 0 0 0 .192-.468v-1.051a2.53 2.53 0 0 1-1.025-.941 2.56 2.56 0 0 1-.38-1.346v-1.42a2.558 2.558 0 0 1 1.547-2.4 2.51 2.51 0 0 1 3.324 1.409c.124.315.185.652.179.991v1.42a2.6 2.6 0 0 1-.381 1.347 2.54 2.54 0 0 1-1.027.94v1.049a.664.664 0 0 0 .655.663 5.388 5.388 0 0 1 4.053 1.64 5.509 5.509 0 0 1 1.532 4.131zM151.208 89.787l-.112.223-4.141 4.429a.695.695 0 0 1-.914.092.7.7 0 0 1-.25-.786.7.7 0 0 1 .147-.251l4.44-4.744-.025-.068q.218-.083.476-.19c-.043.07-.672 1.031.379 1.295"/><path fill="#ffceb6" d="m135.344 59.296 2.344 1.178c-.454 1.435-2.341.964-2.341.964zM136.665 105.336v10.072h-4.21v-.105l-2.87-3.42c.572-1.345.878-2.79.898-4.253 0-1.7-1.107-3.821-2.062-5.337l4.034-2.826z"/><path fill="#cceff6" d="M127.582 56.409v35.345l-.044.09a8 8 0 0 0-1.85-.58l.028-.141V56.409z"/><path fill="#006b99" d="M121.08 83.445c.507 1.02-.056 2.505-1.126 2.64a1.9 1.9 0 0 1-1.11-.18 7.7 7.7 0 0 0 .998-2.15c.131-.317.345-.663.554-1.102.296.195.533.47.684.792"/><path fill="#ffceb6" d="m117.525 90.032 3.436 1.094s-1.89 2.11-6.986 2.387a16.45 16.45 0 0 1-9.096-2.387l4.329-1.807-2.808-2.94c.019 0-.37-3.132-.351-3.135.535-.069 4.3 3.308 4.607 2.862l.835.194a10.2 10.2 0 0 0 2.655 1.32l.031.01c.274.104 2.332.867 3.267 1.156h.017l.009.172z"/><path fill="#ffceb6" d="M118.763 83.046a2 2 0 0 1-.314.186s-1.069-.236-1.462-.27c-.313-.028-2.092.06-2.776.1-.168.007-.267.013-.267.013q.667.578 1.405 1.062a2.1 2.1 0 0 0 1.853.327 7.4 7.4 0 0 0 1.561-1.418m-13.488-4.428c.487-.54 1.165-.243 1.604.06.45.328.996.496 1.552.476 2.928-.194 3.547-4.614 3.73-6.185 0 0 4.015.44 5.312 1.087q.187.096.37.201a5.87 5.87 0 0 1 2.631 3.402l-.031.09c-.081.236-.153.392-.153.392.383.83.525 1.753.41 2.661a7.5 7.5 0 0 1-.618 1.938c-.277.595-.569 1.059-.743 1.486a10.5 10.5 0 0 1-1.344 2.89c-.174.21-.383.386-.618.522a2 2 0 0 1-.722.247 5.6 5.6 0 0 1-2.081-.147 6 6 0 0 1-.394-.106l-.032-.01a10.3 10.3 0 0 1-2.655-1.32l-1.455-.195a2.25 2.25 0 0 0 .209-2.52c-.535-.847-.921-1.187-2.277-.58a1.9 1.9 0 0 0-.777.763l-.094.427c-.91-.53-2.94-3.301-2.07-5.186q.09-.218.246-.393"/><path fill="#006b99" d="M112.155 72.953a.02.02 0 0 1 0 .016c-.192 1.687-.895 6.65-4.406 6.157a1.4 1.4 0 0 1-.674-.299c-.405-.326-1.232-.847-1.804-.21q-.155.178-.249.393c-.871 1.885.765 3.43 1.676 3.96l.734.51a1.94 1.94 0 0 0-.05 1.854c.382 1.09 1.259.966 1.928.983l-.106 3.002-4.329 1.807c-1.89.32-3.725.917-5.446 1.77-1.614-4.529 3.697-12.008 5.174-16.409.155-.459-.035-3.82 2.4-6.593a10.3 10.3 0 0 1 4.226-2.064q.267-.07.513-.125a7.64 7.64 0 0 1 4.771.638 7.74 7.74 0 0 1 3.466 3.373c2.084 4.288.491 5.94.491 5.94a5.86 5.86 0 0 0-2.63-3.401 8.94 8.94 0 0 0-3.813-1.87c-1.912-.311-1.884.459-1.872.568"/><path fill="#006b99" d="M117.84 74.257a8 8 0 0 0-.37-.201c-1.297-.647-5.311-1.087-5.311-1.087a.02.02 0 0 0 0-.016c-.012-.11-.04-.88 1.871-.565 1.4.308 2.706.949 3.81 1.87M117.402 87.686l.059 1.1h-.017c-.935-.29-2.993-1.053-3.267-1.156.13.04.267.075.395.106a5.6 5.6 0 0 0 2.08.148c.254-.036.498-.12.721-.248z"/><path fill="#cceff6" d="M109.146 86.162a1.7 1.7 0 0 1-1.155-.276 1.74 1.74 0 0 1-.705-.965 1.687 1.687 0 0 1 .15-1.44c.125-.211.312-.377.535-.474a1.57 1.57 0 0 1 1.862.191c.166.151.298.336.388.543a1.91 1.91 0 0 1-.155 1.85 1.26 1.26 0 0 1-.876.569q-.021 0-.044.002"/><path fill="#ffceb6" d="m104.879 106.476-.273 8.932h-9.03v-9.305zM100.333 53.098c.219 0 .433.065.615.188a1.12 1.12 0 0 1 .471 1.147 1.11 1.11 0 0 1-.869.878 1.104 1.104 0 0 1-1.135-.476 1.124 1.124 0 0 1 .138-1.41 1.1 1.1 0 0 1 .78-.327"/><path fill="#cceff6" d="M95.98 53.098a1.111 1.111 0 0 1 1.023.689 1.13 1.13 0 0 1-.239 1.218 1.1 1.1 0 0 1-1.702-.17 1.124 1.124 0 0 1 .138-1.41c.207-.209.488-.326.78-.327"/><path stroke="#006b99" stroke-linecap="round" stroke-linejoin="round" stroke-width="3.234" d="M211.476 156.548a4.05 4.05 0 0 1-2.056.559h-68.672a4.05 4.05 0 0 1-2.888-1.207 4.1 4.1 0 0 1-.885-1.339 4.2 4.2 0 0 1-.31-1.578v-49.389c0-1.095.43-2.144 1.196-2.917a4.06 4.06 0 0 1 2.887-1.21h68.672a4.079 4.079 0 0 1 2.89 1.209 4.14 4.14 0 0 1 1.196 2.919v49.39c0 .721-.188 1.43-.544 2.055a4.1 4.1 0 0 1-1.486 1.508"/><path stroke="#006b99" stroke-linecap="round" stroke-linejoin="round" stroke-width="3.234" d="M154.974 153.966H142.98a3.2 3.2 0 0 1-2.268-.95 3.26 3.26 0 0 1-.94-2.291v-44.88c0-.859.338-1.683.94-2.291a3.19 3.19 0 0 1 2.268-.949h64.208c.851 0 1.667.341 2.268.949.602.608.94 1.432.94 2.291v44.882c0 .859-.338 1.683-.94 2.291a3.19 3.19 0 0 1-2.268.949h-52.214zM171.062 101.3h5.295M154.973 102.607v51.358M195.396 102.607v51.358M139.774 119.724h15.199M139.774 136.789h15.199"/><path stroke="#006b99" stroke-linecap="round" stroke-linejoin="round" stroke-width="3.234" d="M154.638 119.366a5.5 5.5 0 0 0-1.534-4.128 5.4 5.4 0 0 0-1.854-1.25 5.35 5.35 0 0 0-2.197-.389.665.665 0 0 1-.656-.662v-1.054a2.563 2.563 0 0 0 1.408-2.287v-1.42a2.56 2.56 0 0 0-.756-1.773 2.511 2.511 0 0 0-3.537 0 2.56 2.56 0 0 0-.756 1.773v1.42c-.001.476.131.942.379 1.346.249.404.604.73 1.026.941v1.049a.656.656 0 0 1-.656.663h-.292c-2.696 0-4.901 1.938-4.901 5.896M154.638 136.328a5.5 5.5 0 0 0-1.533-4.13 5.364 5.364 0 0 0-4.052-1.64.665.665 0 0 1-.656-.664v-1.049c.422-.21.778-.535 1.027-.939a2.57 2.57 0 0 0 .382-1.345v-1.422a2.57 2.57 0 0 0-.756-1.773 2.512 2.512 0 0 0-3.538 0 2.57 2.57 0 0 0-.756 1.773v1.422c0 .476.131.942.379 1.347.249.404.604.73 1.027.94v1.044a.667.667 0 0 1-.656.663h-.293c-2.696 0-4.9 1.938-4.9 5.896M154.638 153.605a5.5 5.5 0 0 0-.335-2.228 5.5 5.5 0 0 0-1.197-1.903 5.364 5.364 0 0 0-4.053-1.64.65.65 0 0 1-.464-.194.67.67 0 0 1-.192-.469v-1.049a2.54 2.54 0 0 0 1.027-.94c.249-.404.381-.871.381-1.347v-1.419a2.57 2.57 0 0 0-.756-1.773 2.51 2.51 0 0 0-1.769-.73c-.661 0-1.297.262-1.769.73a2.57 2.57 0 0 0-.756 1.773v1.419c0 .476.131.942.379 1.346.249.405.604.73 1.027.941v1.052c0 .176-.07.344-.193.469a.65.65 0 0 1-.463.194h-.293c-2.405 0-4.425 1.545-4.829 4.693M210.397 119.724h-14.963M210.397 136.789h-14.963M195.459 119.366a5.47 5.47 0 0 1 1.532-4.126 5.377 5.377 0 0 1 4.049-1.641.663.663 0 0 0 .659-.662v-1.054a2.54 2.54 0 0 1-1.027-.94 2.57 2.57 0 0 1-.381-1.347v-1.42c0-.677.266-1.325.739-1.804a2.52 2.52 0 0 1 1.786-.747c.669 0 1.312.269 1.785.747.474.479.74 1.127.74 1.804v1.42c0 .476-.132.942-.381 1.347-.25.404-.605.73-1.028.94v1.049a.659.659 0 0 0 .66.663h.288c2.699 0 4.907 1.938 4.907 5.896M195.459 136.327a5.5 5.5 0 0 1 1.531-4.128 5.36 5.36 0 0 1 4.05-1.641.66.66 0 0 0 .467-.196.67.67 0 0 0 .193-.468v-1.048a2.53 2.53 0 0 1-1.028-.941 2.57 2.57 0 0 1-.381-1.347v-1.419c0-.677.266-1.326.739-1.804a2.511 2.511 0 0 1 3.571 0c.474.478.74 1.127.74 1.804v1.422c0 .476-.132.943-.381 1.347a2.53 2.53 0 0 1-1.028.94v1.044a.659.659 0 0 0 .66.663h.289c2.698 0 4.906 1.938 4.906 5.896M195.459 153.604a5.489 5.489 0 0 1 1.53-4.129 5.4 5.4 0 0 1 4.051-1.641.66.66 0 0 0 .609-.409.7.7 0 0 0 .051-.254v-1.049a2.54 2.54 0 0 1-1.028-.94 2.57 2.57 0 0 1-.381-1.347v-1.419c0-.677.266-1.325.739-1.804a2.52 2.52 0 0 1 1.786-.747c.67 0 1.312.269 1.786.747.473.479.739 1.127.739 1.804v1.419c0 .476-.132.943-.381 1.347a2.54 2.54 0 0 1-1.028.94v1.052a.66.66 0 0 0 .66.663h.288c2.406 0 4.428 1.545 4.833 4.693"/><path stroke="#006b99" stroke-linecap="round" stroke-linejoin="round" stroke-width="3.234" d="M195.396 99.465V83.351h66.683v44.935h-48.572M195.396 88.135h66.683"/><path stroke="#006b99" stroke-linecap="round" stroke-linejoin="round" stroke-width="3.234" d="M199.703 85.94a1.12 1.12 0 0 1-.681 1.033 1.09 1.09 0 0 1-1.205-.241 1.123 1.123 0 0 1 .166-1.719 1.095 1.095 0 0 1 1.396.137 1.12 1.12 0 0 1 .324.79M204.054 85.94c0 .22-.065.436-.186.62a1.102 1.102 0 0 1-2.004-.4 1.118 1.118 0 0 1 .468-1.147 1.1 1.1 0 0 1 1.397.137 1.12 1.12 0 0 1 .325.79M208.406 85.94a1.12 1.12 0 0 1-.681 1.033 1.1 1.1 0 0 1-1.205-.24 1.122 1.122 0 0 1 .165-1.72 1.1 1.1 0 0 1 1.637.499q.084.204.084.427M136.665 115.408H92.783V51.624h91.559v47.842M92.783 56.409h91.559"/><path stroke="#006b99" stroke-linecap="round" stroke-linejoin="round" stroke-width="3.234" d="M97.087 54.214a1.11 1.11 0 0 1-.681 1.033 1.1 1.1 0 0 1-1.205-.24 1.12 1.12 0 0 1-.241-1.218 1.1 1.1 0 0 1 1.803-.364c.207.209.324.492.324.789M101.441 54.214a1.12 1.12 0 0 1-.681 1.032 1.1 1.1 0 0 1-1.206-.24 1.123 1.123 0 0 1 .165-1.718 1.1 1.1 0 0 1 1.396.136 1.1 1.1 0 0 1 .326.79M105.793 54.214a1.12 1.12 0 0 1-.681 1.033 1.09 1.09 0 0 1-1.205-.24 1.12 1.12 0 0 1 .166-1.72 1.095 1.095 0 0 1 1.396.137c.207.21.324.493.324.79M166.867 176.687l-27.373-19.58v1.08c0 .735.174 1.459.509 2.112a4.6 4.6 0 0 0 1.413 1.639l32.523 23.264a8 8 0 0 0 4.633 1.488H245.5a3.287 3.287 0 0 0 3.034-2.047c.165-.402.25-.834.25-1.269v-.139"/><path stroke="#006b99" stroke-linecap="round" stroke-linejoin="round" stroke-width="3.234" d="m211.476 156.548 37.304 26.684h-72.762M205.897 96.277h45.679M213.982 106.643h37.593M213.982 117.009h37.593M119.385 143.93h15.124M215.779 143.93h21.343"/><path stroke="#006b99" stroke-linecap="round" stroke-linejoin="round" stroke-width="3.234" d="m166.868 176.687 9.151 6.545v2.956"/><path stroke="#f7cedc" stroke-linecap="round" stroke-linejoin="round" stroke-width="3.234" d="m193.12 180.72-7.08-5.064h28.399"/><path stroke="#006b99" stroke-linecap="round" stroke-linejoin="round" stroke-width="3.234" d="m214.511 175.656 7.08 5.064h-28.399M228.727 173.193h-59.08l-13.402-9.587-5.118-3.663h59.08l12.77 9.138zM156.245 163.606h51.061M171.793 169.261h51.06"/><path stroke="#006b99" stroke-linecap="round" stroke-linejoin="round" stroke-width="3.234" d="m172.894 159.943 5.118 3.663 5.335 3.817M198.702 165.598l5.118 3.662 5.336 3.817M182.48 132.862c.849 0 1.689.169 2.473.497a6.48 6.48 0 0 1 3.497 3.535 6.6 6.6 0 0 1 .491 2.561c0 1.731-.68 3.391-1.891 4.615a6.43 6.43 0 0 1-4.569 1.911 6.42 6.42 0 0 1-4.567-1.911 6.56 6.56 0 0 1-1.892-4.678 6.56 6.56 0 0 1 1.89-4.616 6.43 6.43 0 0 1 4.568-1.914M182.48 128.724v20.838M192.794 139.457h-20.629M158.957 79.104a6.55 6.55 0 0 1 1.945-4.516 6.43 6.43 0 0 1 4.515-1.858 6.43 6.43 0 0 1 4.515 1.858 6.56 6.56 0 0 1 1.945 4.583 6.57 6.57 0 0 1-1.561 4.187 6.44 6.44 0 0 1-3.862 2.19 6.4 6.4 0 0 1-4.35-.837 6.5 6.5 0 0 1-2.796-3.47M165.419 68.436v20.839M159.277 79.17h-4.173M175.732 79.17h-14.298M158.782 113.692v4.219l10.227-1.213 12.177-1.444v7.573l-2.152-1.084-10.025-5.045-7.886-3.97-2.341-1.178z"/><path stroke="#006b99" stroke-linecap="round" stroke-linejoin="round" stroke-width="3.234" d="M158.782 113.69s1.884.471 2.341-.965M179.032 121.743a2.3 2.3 0 0 1 2.151-1.112M135.344 61.438v4.221l10.23-1.215L157.747 63v7.574l-2.152-1.084-10.021-5.045-7.889-3.97-2.341-1.178z"/><path stroke="#006b99" stroke-linecap="round" stroke-linejoin="round" stroke-width="3.234" d="M135.344 61.438s1.887.47 2.341-.965M155.598 69.493a2.3 2.3 0 0 1 .92-.864c.38-.196.806-.282 1.232-.247M172.152 136.381h-7.58v-7.658h7.58z"/><path stroke="#006b99" stroke-linecap="round" stroke-linejoin="round" stroke-width="3.234" d="M169.044 133.24h-7.581v-7.658h7.581v7.658M161.463 125.582l3.109 3.141M169.044 125.582l3.109 3.141M169.044 133.24l3.109 3.141M161.463 133.24l3.109 3.141M144.174 87.002h-7.581v-7.659h7.581z"/><path stroke="#006b99" stroke-linecap="round" stroke-linejoin="round" stroke-width="3.234" d="M141.065 83.86h-7.581V76.2h7.581v7.659M133.484 76.201l3.109 3.142M141.065 76.201l3.109 3.142M141.065 83.86 144.174 87M133.484 83.86 136.593 87M161.152 146.179s-1.272.522-1.336 1.433c-.065.91 1.097.913 1.613.392a7 7 0 0 0-.192-1.847 2.8 2.8 0 0 0-.228-.6c-.481-.911-1.29-.782-1.579-.163M185.754 108.469s-1.272.521-1.336 1.435c-.064.915 1.098.915 1.614.393a7 7 0 0 0-.193-1.85 2.7 2.7 0 0 0-.227-.597c-.482-.914-1.29-.782-1.58-.163M163.017 145.921h1.555M163.017 147.178h1.555M166.023 145.528c.077-.99 2.416-1.008 1.966.707-.309 1.166-1.92 2.121-1.92 2.121h2.638M176.777 107.767c.08-.985 2.419-1.008 1.96.704-.307 1.17-1.915 2.124-1.915 2.124h2.634M171.388 106.499c.053-.663 1.624-.676 1.319.475-.206.778-1.285 1.422-1.285 1.422h1.766M170.424 147.781c1.07 1.25 2.703.462 2.149-.81s-2.049-.362-2.149.81"/><path stroke="#006b99" stroke-linecap="round" stroke-linejoin="round" stroke-width="3.234" d="M171.407 144.329c-.641.688-2.049 2.199-.98 3.452M181.55 107.51v2.004M180.443 108.512h2.133M175.9 106.015c-.917.282-1.679 2.045-1.393 3.285a3.1 3.1 0 0 0 1.851 2.409M186.721 106.015c.918.282 1.679 2.045 1.393 3.285a3.1 3.1 0 0 1-.612 1.449c-.323.422-.75.752-1.238.958M125.716 56.409v34.717M127.582 56.409v35.345M104.879 104.887v1.589l-9.303-.373-1.023-.04s.069-7.327 1.984-10.64a7.1 7.1 0 0 1 2.892-2.527 19.7 19.7 0 0 1 5.45-1.774 16.46 16.46 0 0 0 9.096 2.388c5.097-.277 6.986-2.388 6.986-2.388a16.6 16.6 0 0 1 4.728.141 8 8 0 0 1 1.849.581c.451.204.866.48 1.229.817a33.6 33.6 0 0 1 4.633 6.135l-.948.666-4.031 2.831M95.576 106.103v9.305M104.88 106.477l-.274 8.931"/><path stroke="#006b99" stroke-linecap="round" stroke-linejoin="round" stroke-width="3.234" d="M127.05 100.333s.641.804 1.371 1.96c.955 1.516 2.059 3.637 2.062 5.337a11.3 11.3 0 0 1-.898 4.253 14.1 14.1 0 0 1-2.003 3.42M119.989 106.103s.236 4.454-1.409 6.455M119.395 78.907a2.8 2.8 0 0 0-.891-.227 1.6 1.6 0 0 0-.868.054M112.856 78.584q.521-.13 1.056-.189c.29-.057.59-.034.868.067M117.231 77.706a1.88 1.88 0 0 0 .015 1.63c.184.623.772 1.285.668 1.873s-1.175.822-1.803.65M114.146 87.62a10.3 10.3 0 0 1-2.655-1.32M120.079 82.738c-.276.594-.569 1.059-.744 1.486a10.5 10.5 0 0 1-1.342 2.89c-.176.21-.387.386-.624.522a2 2 0 0 1-.721.247 5.6 5.6 0 0 1-2.08-.147 6 6 0 0 1-.395-.107M120.439 77.747c-.081.236-.152.393-.152.393.383.83.525 1.752.411 2.66a7.6 7.6 0 0 1-.624 1.938M112.072 77.458a4.26 4.26 0 0 1 2.625-.644c1.007.173 1.063.525 1.069.54M120.11 76.915a2.8 2.8 0 0 0-.883.052q-.65.126-1.272.353M118.767 83.044a2 2 0 0 1-.314.185c-.43.182-.891.28-1.358.287a13 13 0 0 1-2.88-.45c-.203-.051-.342-.09-.389-.101"/><path stroke="#006b99" stroke-linecap="round" stroke-linejoin="round" stroke-width="3.234" d="M113.808 82.961s.053.044.137.12q.668.577 1.406 1.061a2.1 2.1 0 0 0 1.853.327 7.4 7.4 0 0 0 1.564-1.423M117.402 87.686l.059 1.1.009.173.057 1.073M120.961 91.126l-3.435-1.094M109.314 86.316l-.106 3.003-4.329 1.807M107.317 79.042s-1.259-1.295-2.042-.425q-.155.177-.25.393c-.87 1.885.989 3.954 2.406 4.47M105.275 78.617v.007M110.066 85.59a1.88 1.88 0 0 0 .155-1.85 1.6 1.6 0 0 0-.962-.876 1.58 1.58 0 0 0-1.288.142c-.222.1-.409.265-.535.474a1.69 1.69 0 0 0-.15 1.44c.116.395.366.736.707.963.339.227.748.326 1.153.279h.037a1.27 1.27 0 0 0 .883-.571M118.841 85.905c.344.172.731.235 1.11.18 1.069-.135 1.632-1.62 1.127-2.639a1.9 1.9 0 0 0-.689-.791"/><path stroke="#006b99" stroke-linecap="round" stroke-linejoin="round" stroke-width="3.234" d="M113.941 83.078s.103-.006.268-.013c.684-.04 2.462-.129 2.776-.1.389.03 1.462.27 1.462.27M114.146 87.62l.031.01c.274.103 2.332.867 3.268 1.155M112.155 72.953c-.012-.11-.04-.88 1.871-.565a8.95 8.95 0 0 1 3.813 1.87l.009.008"/><path stroke="#006b99" stroke-linecap="round" stroke-linejoin="round" stroke-width="3.234" d="M108.397 70.233s3.32-.192 3.759 2.72v.016"/><path stroke="#006b99" stroke-linecap="round" stroke-linejoin="round" stroke-width="3.234" d="M107.393 79.023c4.098 1.56 4.561-4.301 4.763-6.054 0 0 4.01.44 5.311 1.087q.188.096.37.201a5.86 5.86 0 0 1 2.631 3.402s1.592-1.652-.491-5.941a7.75 7.75 0 0 0-3.467-3.373 7.64 7.64 0 0 0-4.771-.638q-.248.055-.513.125a10.3 10.3 0 0 0-4.225 2.064c-2.435 2.774-2.246 6.135-2.401 6.593-1.477 4.401-6.787 11.882-5.174 16.41M150.829 88.49a7 7 0 0 0 1.576-.852q.213-.165.351-.398a.65.65 0 0 0 .067-.579.66.66 0 0 0-.418-.401 1.3 1.3 0 0 0-.423-.044 11.9 11.9 0 0 0-3.759 1.287 1.74 1.74 0 0 0-.713.657l-2.666 5.13-2.871 6.141"/><path stroke="#006b99" stroke-linecap="round" stroke-linejoin="round" stroke-width="3.234" d="M149.756 88.899s.245-.082.593-.217q.218-.083.476-.19M132.455 99.466l4.21 5.87M129.585 111.883l2.87 3.42M148.851 99.431l1.337-2.742a4.95 4.95 0 0 0 2.133-.553 5 5 0 0 0 1.688-1.427c1.877-2.15 2.322-3.648 1.533-4.197s-2.426.2-2.895 1.1c-.47.897-.109 2.123 2.17.401"/><path stroke="#006b99" stroke-linecap="round" stroke-linejoin="round" stroke-width="3.234" d="M155.543 90.51s1.035-.949.699-1.89c-.336-.942-2.117-.487-3.234.19a4.5 4.5 0 0 0-1.253 1.146c-.498.706-.534 1.457.892 1.651"/><path stroke="#006b99" stroke-linecap="round" stroke-linejoin="round" stroke-width="3.234" d="M156.241 88.622s.15-.954-1.119-1.68c-.849-.488-2.264.314-2.264.314M150.829 88.49c-.044.07-.668 1.031.382 1.294q.19.05.386.06M155.496 85.311l3.812-4.071 2.027-2.16 1.96-2.093a.706.706 0 0 0-.036-.988.69.69 0 0 0-.979.036l-2.94 3.189-5.175 5.606"/><path stroke="#006b99" stroke-linecap="round" stroke-linejoin="round" stroke-width="3.234" d="m150.375 88.75-4.44 4.744a.7.7 0 0 0 .102 1.037.694.694 0 0 0 .915-.092l4.145-4.429M155.123 86.941s.731-.92.149-1.598a1.4 1.4 0 0 0-.299-.25 1.65 1.65 0 0 0-.811-.256 2.66 2.66 0 0 0-1.263.407c-.381.24-.696.574-.917.969"/></g><defs><clipPath id="a"><path fill="#fff" d="M0 0h355v238H0z"/></clipPath></defs></svg>