<svg xmlns="http://www.w3.org/2000/svg" width="355" height="238" fill="none" viewBox="0 0 355 238"><g clip-path="url(#a)"><path fill="#f7cedc" d="M355 0H0v238h355z"/><path fill="#ffceb6" d="M252.707 117.427h-2.742v31.893h2.742zM176.032 152.531l-.875-.895c-4.376-.344-11.026-2.105-15.238-7.318a9 9 0 0 1-.675-.958 6 6 0 0 1-.784-1.984c-.716-3.762 3.163-6.499 4.99-6.947 2.298-.557 6.253.167 7.847.506.437.094.698.156.698.156q.428.033.856 0 .293-.017.632-.044.107-.002.221-.014.065.002.131-.007 1.304-.091 2.604.033.371.039.77.105.217.04.439.086a11 11 0 0 1 .636.159 9 9 0 0 1 .838.266v-.004a12 12 0 0 1 3.646 2.145 88 88 0 0 0 3.265 2.625 100 100 0 0 0 4.743 3.426s.574.11 1.431.219l.011-.091V133.4h20.998c3.425 7.295 8.79 20.531 12.592 31.148 3.955 11.038 16.666 30.32 19.245 36.764 3.069 7.661 3.069 11.929 3.069 11.929h-45.164a21.5 21.5 0 0 0-.53-5.006l1.646-7.381c-1.278.033-3.291 0-3.291 0v.007c-.232-.051-1.384-.338-6.078-1.565-7.162-1.872-22.692-21.354-22.692-21.354-1.568-.736-4.318-4.172-5.945-6.331a7.23 7.23 0 0 1-1.427-3.704h-.026s-8.16-.944-12.544-2.344c0 0-6.984-1.835-8.931-2.676 0 0-12.202-4.54-15.286-6.328s-1.626-9.28 4.547-7.489a195 195 0 0 1 6.988 2.17 8.13 8.13 0 0 0 4.773 1.536h9.03s10.525 2.298 12.504 2.738l.257.014c.208-.957.544-1.883.998-2.752h8.898z"/><path fill="#cceff6" d="M245.621 127.625q.038-.055.076-.105a4.95 4.95 0 0 1-.991 2.508 3.016 3.016 0 0 1-3.456 1.133l-2.14 2.724-2.397-3.051 2.14-2.723a5.34 5.34 0 0 1 .89-4.395 3.26 3.26 0 0 1 1.975-1.257.7.7 0 0 0-.085.096 4.3 4.3 0 0 0 0 5.071 2.424 2.424 0 0 0 3.988-.001"/><path fill="#cceff6" d="M243.703 138.642a3.51 3.51 0 0 1 0 4.14 1.976 1.976 0 0 1-2.548.628 2 2 0 0 1-.71-.628 3.38 3.38 0 0 1-.671-2.024l-.029.039-3.04-3.861-2.397-3.051-2.14-2.724a3.015 3.015 0 0 1-3.461-1.132 4.97 4.97 0 0 1-.988-2.509c.025.034.047.07.076.106a2.415 2.415 0 0 0 3.12.77c.347-.183.645-.447.868-.77a4.3 4.3 0 0 0 0-5.071 2 2 0 0 0-.08-.096c.789.161 1.49.608 1.969 1.257.459.623.777 1.339.931 2.098a5.4 5.4 0 0 1-.037 2.297l2.14 2.723 2.397 3.051 3.037 3.861-.03.041a2.08 2.08 0 0 1 1.593.855"/><path fill="#006b99" d="m234.305 133.884 2.4 3.051-1.093 1.391z"/><path fill="#cceff6" d="m234.305 133.884 1.307 4.442-1.947 2.471-.032-.039a3.37 3.37 0 0 1-.672 2.025 1.983 1.983 0 0 1-3.258 0 3.52 3.52 0 0 1 0-4.141 2.1 2.1 0 0 1 1.594-.858l-.032-.04z"/><path fill="#ffceb6" d="M233.872 52.256h-2.615v30.427h2.615z"/><path fill="#cceff6" d="M221.687 66.987a1.28 1.28 0 0 1 .182 1.423l-.177.328-1.627 3.01c.169.375.268.777.294 1.187.095 1.45-.701 2.68-1.773 2.747-1.071.066-2.018-1.048-2.113-2.497-.095-1.45.701-2.68 1.773-2.747.198-.013.397.014.585.08l1.455-2.686.355-.66a.627.627 0 0 1 1.046-.185"/><path fill="#ffceb6" d="M213.218 133.4H192.22V94.516s3.09.95 7.041 7.744 10.169 23.218 13.558 30.295c.13.27.266.55.399.845"/><path fill="#006b99" d="m200.826 200.868-.043-.014s2.013.033 3.291 0l-1.646 7.381c-.639-3.448-1.598-7.205-1.642-7.377a.2.2 0 0 0 .04.01"/><path fill="#cceff6" d="M192.22 133.4v10.587l-.012.092c-.856-.109-1.431-.22-1.431-.22a100 100 0 0 1-4.743-3.425l.051-.066a4.85 4.85 0 0 0 .385-1.901v-5.063z"/><path fill="#cceff6" d="M186.47 72.233V67a4.9 4.9 0 0 0-1.429-3.46 4.87 4.87 0 0 0-3.45-1.432h-28.944a4.87 4.87 0 0 0-3.45 1.432 4.9 4.9 0 0 0-1.43 3.46v10.666a4.9 4.9 0 0 0 1.43 3.46 4.88 4.88 0 0 0 3.45 1.432h28.941a4.87 4.87 0 0 0 3.451-1.433 4.9 4.9 0 0 0 1.429-3.459zm-45.294 31.312V58.97c0-2.33.923-4.564 2.566-6.212a8.76 8.76 0 0 1 6.196-2.574h1.05c0 1.756.695 3.44 1.934 4.68a6.6 6.6 0 0 0 4.668 1.94h16.424a6.6 6.6 0 0 0 4.668-1.94 6.63 6.63 0 0 0 1.937-4.68h2.834a8.74 8.74 0 0 1 6.198 2.573 8.8 8.8 0 0 1 1.901 2.85 8.8 8.8 0 0 1 .668 3.363v74.43h-5.75v-5.597a4.9 4.9 0 0 0-1.429-3.459 4.87 4.87 0 0 0-3.45-1.433h-28.944a4.87 4.87 0 0 0-3.45 1.433 4.9 4.9 0 0 0-1.43 3.459v10.664c0 1.298.515 2.542 1.43 3.46a4.87 4.87 0 0 0 3.45 1.432h6.599q.306.501.676.958c4.209 5.214 10.859 6.972 15.238 7.318l.875.895-.182.248h-25.915a8.75 8.75 0 0 1-6.196-2.577 8.8 8.8 0 0 1-2.566-6.214zm6.598 0v4.522c0 1.297.514 2.541 1.43 3.458a4.87 4.87 0 0 0 3.45 1.433h28.941a4.87 4.87 0 0 0 3.45-1.433 4.9 4.9 0 0 0 1.429-3.458V97.402a4.9 4.9 0 0 0-1.429-3.459 4.87 4.87 0 0 0-3.45-1.433h-28.948a4.87 4.87 0 0 0-3.45 1.433 4.9 4.9 0 0 0-1.43 3.46z"/><path fill="#cceff6" d="M186.47 133.4v5.063a4.85 4.85 0 0 1-.385 1.901l-.051.065a89 89 0 0 1-3.264-2.625 12.1 12.1 0 0 0-3.647-2.146 4.33 4.33 0 0 0 .248-3.826 4.326 4.326 0 0 0-4.84-2.592 4.32 4.32 0 0 0-3.035 2.335 4.35 4.35 0 0 0-.446 1.917c0 .49.085.977.25 1.439-1.594-.339-5.549-1.063-7.848-.507-1.826.448-5.706 3.186-4.99 6.948.141.702.407 1.375.784 1.984h-6.599a4.87 4.87 0 0 1-3.45-1.433 4.9 4.9 0 0 1-1.43-3.459v-10.661a4.9 4.9 0 0 1 1.43-3.459 4.87 4.87 0 0 1 3.45-1.433h28.941c1.294 0 2.535.516 3.451 1.433a4.9 4.9 0 0 1 1.429 3.459v5.597zM147.767 103.544v-6.142a4.9 4.9 0 0 1 1.43-3.46 4.87 4.87 0 0 1 3.45-1.432h28.941c1.294 0 2.535.516 3.451 1.433a4.9 4.9 0 0 1 1.429 3.459v10.664a4.9 4.9 0 0 1-1.429 3.459 4.88 4.88 0 0 1-3.451 1.433h-28.941a4.87 4.87 0 0 1-3.45-1.433 4.9 4.9 0 0 1-1.43-3.459zm14.077.095a4.34 4.34 0 0 0-2.669-4.004 4.31 4.31 0 0 0-4.712.94 4.34 4.34 0 0 0-.938 4.723 4.319 4.319 0 0 0 7.054 1.407 4.34 4.34 0 0 0 1.268-3.066zM186.47 72.233v5.432a4.9 4.9 0 0 1-1.429 3.459 4.87 4.87 0 0 1-3.45 1.433h-28.944a4.87 4.87 0 0 1-3.45-1.433 4.9 4.9 0 0 1-1.43-3.459V67.001a4.9 4.9 0 0 1 1.43-3.459 4.87 4.87 0 0 1 3.45-1.433h28.941c1.294 0 2.535.515 3.451 1.433a4.9 4.9 0 0 1 1.429 3.46zm-6.769.095a4.34 4.34 0 0 0-2.671-4.006 4.31 4.31 0 0 0-4.714.94 4.34 4.34 0 0 0 .656 6.671 4.316 4.316 0 0 0 5.46-.54 4.35 4.35 0 0 0 1.267-3.065z"/><path fill="#006b99" d="M150.988 50.184h29.631a6.63 6.63 0 0 1-1.937 4.68 6.6 6.6 0 0 1-4.668 1.94H157.59a6.6 6.6 0 0 1-4.669-1.94 6.63 6.63 0 0 1-1.933-4.68"/><path fill="#fff" d="M179.699 133.494c-.001.76-.2 1.507-.577 2.166l-.262-.086-.026-.007a7 7 0 0 0-.556-.168q-.135-.038-.272-.073-.184-.046-.363-.085l-.439-.086c-.262-.047-.513-.08-.77-.106a15.4 15.4 0 0 0-2.603-.032c-.044 0-.086.007-.132.007a38.957 38.957 0 0 0-.853.058 5.6 5.6 0 0 1-.856 0s-.257-.062-.698-.156a4.3 4.3 0 0 1-.25-1.439 4.35 4.35 0 0 1 1.245-3.105 4.32 4.32 0 0 1 7.094 1.427c.214.534.32 1.104.312 1.678zM175.375 76.665a4.33 4.33 0 0 0 4.326-4.337 4.33 4.33 0 0 0-4.326-4.337 4.33 4.33 0 0 0-4.326 4.337 4.33 4.33 0 0 0 4.326 4.337"/><path fill="#006b99" d="M153.192 152.776h13.761c-.454.869-.79 1.795-.999 2.753l-.256-.015c-1.981-.44-12.506-2.738-12.506-2.738"/><path fill="#fff" d="M157.521 99.303a4.32 4.32 0 0 1 4 2.675 4.344 4.344 0 0 1-.936 4.727 4.32 4.32 0 0 1-4.715.941 4.32 4.32 0 0 1-1.942-1.597 4.345 4.345 0 0 1 .537-5.475 4.32 4.32 0 0 1 3.056-1.271"/><path fill="#006b99" d="M147.396 50.184h2.542a8.76 8.76 0 0 0-6.196 2.574 8.8 8.8 0 0 0-2.566 6.212v44.575h-2.543V58.97c0-2.33.924-4.564 2.567-6.212a8.76 8.76 0 0 1 6.196-2.574"/><path fill="#006b99" d="M149.938 152.776h-2.542a8.76 8.76 0 0 1-6.199-2.574 8.8 8.8 0 0 1-2.568-6.215v-40.443h2.547v40.443c0 2.331.923 4.565 2.566 6.213a8.76 8.76 0 0 0 6.196 2.576"/><path fill="#ffceb6" d="M135.963 128.321v11.122s-3.963-.68-9.352-1.58c-5.388-.899-5.393-7.38-2.513-9.542s11.494 0 11.494 0z"/><path fill="#cceff6" d="M119.061 99.893v5.847h-1.762c-.65 0-.977.99-.514 1.573l1.246 1.569-3.283 4.136-1.247-1.57c-.462-.582-1.246-.171-1.246.649v2.22h-4.645v-2.22c0-.819-.785-1.231-1.246-.649l-1.246 1.57-3.283-4.136 1.246-1.569c.461-.583.134-1.573-.514-1.573h-1.764v-5.847h1.764c.65 0 .977-.994.514-1.573l-1.246-1.573 3.283-4.135 1.246 1.569c.461.579 1.246.171 1.246-.652v-2.218h4.645v2.221c0 .823.784 1.231 1.246.652l1.245-1.569 3.283 4.132-1.245 1.57c-.462.578-.135 1.572.514 1.572zm-6.374 2.924c0-1.919-1.235-3.474-2.753-3.474-1.517 0-2.756 1.555-2.756 3.474s1.234 3.469 2.756 3.469 2.753-1.558 2.753-3.469"/><path fill="#ffceb6" d="M95.73 86.222h-2.978v34.646h2.979z"/><path stroke="#006b99" stroke-linecap="round" stroke-linejoin="round" stroke-width="3.704" d="m95.73 86.222 29.152 2.548v29.549l-29.151 2.549"/><path stroke="#006b99" stroke-linecap="round" stroke-linejoin="round" stroke-width="3.704" d="M95.73 86.222h-2.978v34.646h2.979zM231.257 52.256l-25.6 5.516v27.772l25.6-2.862M233.872 52.256h-2.615v30.427h2.615zM249.965 117.427l-26.84 2.345v27.2l26.84 2.349M252.707 117.427h-2.742v31.893h2.742zM180.619 50.184h2.834a8.74 8.74 0 0 1 6.198 2.573 8.797 8.797 0 0 1 2.569 6.213v85.017M150.523 50.184h.465M147.396 152.776a8.76 8.76 0 0 1-6.199-2.574 8.8 8.8 0 0 1-2.568-6.215V58.97a8.797 8.797 0 0 1 2.568-6.213 8.77 8.77 0 0 1 6.199-2.573M175.851 152.776h-25.328"/><path stroke="#006b99" stroke-linecap="round" stroke-linejoin="round" stroke-width="3.704" d="M149.938 152.776a8.75 8.75 0 0 1-6.196-2.576 8.8 8.8 0 0 1-2.566-6.213V58.97c0-2.33.923-4.564 2.566-6.212a8.76 8.76 0 0 1 6.196-2.574"/><path stroke="#006b99" stroke-linecap="round" stroke-linejoin="round" stroke-width="3.704" d="M139.391 151.244a8.23 8.23 0 0 1-3.428-6.694V58.409a8.24 8.24 0 0 1 2.404-5.818 8.2 8.2 0 0 1 5.805-2.407h6.355M150.523 152.776h-6.351a8.14 8.14 0 0 1-4.773-1.536M180.619 50.184a6.63 6.63 0 0 1-1.937 4.68 6.6 6.6 0 0 1-4.668 1.94H157.59a6.6 6.6 0 0 1-4.669-1.94 6.63 6.63 0 0 1-1.933-4.68z"/><path stroke="#006b99" stroke-linecap="round" stroke-linejoin="round" stroke-width="3.704" d="M181.589 82.555h-28.942a4.87 4.87 0 0 1-3.45-1.433 4.9 4.9 0 0 1-1.43-3.459V67.001a4.9 4.9 0 0 1 1.43-3.459 4.87 4.87 0 0 1 3.45-1.433h28.941c1.294 0 2.535.515 3.451 1.433a4.9 4.9 0 0 1 1.429 3.46v10.663a4.9 4.9 0 0 1-1.43 3.458 4.87 4.87 0 0 1-3.449 1.432M181.589 112.956h-28.942a4.87 4.87 0 0 1-3.45-1.433 4.9 4.9 0 0 1-1.43-3.458V97.402a4.9 4.9 0 0 1 1.43-3.46 4.87 4.87 0 0 1 3.45-1.432h28.941c1.294 0 2.535.516 3.451 1.433a4.9 4.9 0 0 1 1.429 3.459v10.664a4.9 4.9 0 0 1-1.43 3.458 4.87 4.87 0 0 1-3.449 1.432M159.25 143.358h-6.603a4.87 4.87 0 0 1-3.45-1.433 4.9 4.9 0 0 1-1.43-3.459v-10.663a4.9 4.9 0 0 1 1.43-3.459 4.87 4.87 0 0 1 3.45-1.433h28.941c1.294 0 2.535.516 3.451 1.433a4.9 4.9 0 0 1 1.429 3.459v10.664c0 .654-.131 1.3-.386 1.901M127.468 103.544h23.52"/><path stroke="#006b99" stroke-linecap="round" stroke-linejoin="round" stroke-width="3.704" d="M171.3 134.933c-1.594-.34-5.549-1.064-7.848-.507-1.826.448-5.706 3.186-4.99 6.947a6 6 0 0 0 .784 1.984q.306.501.676.958c4.209 5.214 10.859 6.972 15.238 7.318l.875.895c2.128 2.189 7.521 7.724 8.956 9.269 0 0 4.184 16.442 8.811 21.08 6.261 6.281 9.845 8.072 13.868 8.672M173.483 135.041q-.343.022-.632.044M177.206 135.158c-.262-.047-.514-.08-.771-.106a15.4 15.4 0 0 0-2.603-.032M178.008 135.326c-.123-.033-.243-.059-.363-.086M178.836 135.566a7 7 0 0 0-.556-.168M197.979 147.948a40.3 40.3 0 0 1-7.202-4.089 100 100 0 0 1-4.743-3.425 88 88 0 0 1-3.264-2.626 12.1 12.1 0 0 0-3.647-2.145l-.261-.086"/><path stroke="#006b99" stroke-linecap="round" stroke-linejoin="round" stroke-width="3.704" d="M190.777 143.863s.575.11 1.431.219c1.772.229 4.765.469 6.429-.219M173.706 135.023c-.937 1.03-5.462 4.479-4.879 8.833M158.462 141.374c1.707 1.282 5.901 2.06 7.543 1.136 0 0 .967-4.933 3.138-6.575M248.124 213.244s0-4.271-3.07-11.929c-2.578-6.444-15.289-25.727-19.244-36.765-3.803-10.617-9.17-23.858-12.592-31.148q-.202-.44-.399-.848c-3.389-7.078-9.602-23.498-13.558-30.295-3.954-6.797-7.041-7.743-7.041-7.743M200.826 200.868l-.043-.014v.007c.043.171 1.002 3.929 1.642 7.376.372 1.642.55 3.323.53 5.007"/><path stroke="#006b99" stroke-linecap="round" stroke-linejoin="round" stroke-width="3.704" d="M164.763 165.563a7.8 7.8 0 0 0-.145 1.787q.002.28.025.558a7.24 7.24 0 0 0 1.427 3.703c1.627 2.159 4.377 5.595 5.946 6.331 0 0 15.529 19.481 22.692 21.353 4.695 1.228 5.846 1.515 6.077 1.566a.3.3 0 0 0 .055.008M164.618 167.908s-8.161-.945-12.545-2.345c0 0-6.983-1.835-8.93-2.676 0 0-12.202-4.54-15.286-6.328-3.083-1.787-1.626-9.28 4.547-7.489a198 198 0 0 1 6.988 2.17"/><path stroke="#006b99" stroke-linecap="round" stroke-linejoin="round" stroke-width="3.704" d="M142.184 155.15s-.428 1.93-.533 2.895M153.443 156.971s-.428 3.021-.534 3.987M200.783 200.854s2.013.033 3.291 0l-1.646 7.381M135.592 128.321s-8.621-2.163-11.494 0-2.876 8.643 2.513 9.542c5.39.899 9.352 1.58 9.352 1.58M166.953 152.776c-.454.869-.79 1.795-.999 2.753a11 11 0 0 0-.256 1.802M153.192 152.776s10.525 2.298 12.504 2.738M161.847 103.638a4.329 4.329 0 0 1-2.669 4.005 4.32 4.32 0 0 1-4.712-.94 4.343 4.343 0 0 1 .654-6.669 4.315 4.315 0 0 1 5.46.539c.402.402.721.88.938 1.406s.329 1.09.329 1.659M201.796 72.233h-19.884M175.375 76.665a4.33 4.33 0 0 0 4.326-4.337 4.33 4.33 0 0 0-4.326-4.337 4.33 4.33 0 0 0-4.326 4.337 4.33 4.33 0 0 0 4.326 4.337M219.955 133.4h-38.043M171.3 134.932c.436.095.698.157.698.157q.428.033.856 0 .293-.017.632-.044.108-.001.221-.015.065.002.131-.006c.867-.062 1.738-.05 2.603.032q.372.04.771.105.217.04.439.086a11 11 0 0 1 .635.159 10 10 0 0 1 .581.175q.13.042.257.091v-.004a4.35 4.35 0 0 0-.897-5.427 4.3 4.3 0 0 0-1.732-.928 4.326 4.326 0 0 0-5.195 5.619M119.061 99.893h-1.762c-.65 0-.977-.994-.514-1.573l1.244-1.573-3.283-4.135-1.245 1.569c-.462.579-1.246.171-1.246-.652v-2.218h-4.645v2.221c0 .823-.785 1.231-1.246.652l-1.246-1.569-3.283 4.132 1.246 1.573c.461.579.134 1.573-.514 1.573h-1.764v5.847h1.764c.65 0 .977.99.514 1.573l-1.246 1.569 3.283 4.136 1.246-1.57c.461-.582 1.246-.171 1.246.649v2.22h4.645v-2.22c0-.819.784-1.231 1.246-.649l1.245 1.57 3.283-4.136-1.245-1.569c-.462-.583-.135-1.573.514-1.573h1.761v-5.847z"/><path stroke="#006b99" stroke-linecap="round" stroke-linejoin="round" stroke-width="3.704" d="M112.687 102.817c0 1.914-1.235 3.469-2.753 3.469-1.517 0-2.756-1.555-2.756-3.469 0-1.915 1.234-3.474 2.756-3.474s2.753 1.555 2.753 3.474M220.282 67.832a4.7 4.7 0 0 0-2.233-.412c-1.678.109-3.135 1.315-4.133 3.058a11.36 11.36 0 0 0-1.351 6.566M224.636 75.525c0-.114-.006-.226-.014-.344a9.95 9.95 0 0 0-1.79-5.199 7.3 7.3 0 0 0-1.14-1.245"/><path stroke="#006b99" stroke-linecap="round" stroke-linejoin="round" stroke-width="3.704" d="m224.636 75.525 3.596-.234c-.007-.112-.007-.225-.015-.343a15.9 15.9 0 0 0-2.836-8.265c-1.95-2.694-4.7-4.307-7.641-4.114-2.829.186-5.267 2.203-6.857 5.13a17.27 17.27 0 0 0-1.932 9.234q.012.173.025.343l3.596-.232"/><path stroke="#006b99" stroke-linecap="round" stroke-linejoin="round" stroke-width="3.704" d="m221.692 68.738.177-.328a1.27 1.27 0 0 0-.182-1.424.625.625 0 0 0-1.049.187l-.356.659-1.455 2.686a1.45 1.45 0 0 0-.584-.08c-1.072.07-1.868 1.3-1.774 2.746s1.043 2.567 2.114 2.498c1.071-.07 1.867-1.3 1.773-2.746a3.4 3.4 0 0 0-.294-1.188zM217.736 62.57l.313 4.85M210.905 67.715l2.629 2.738M225.247 66.779l-2.201 3.055M239.11 133.884l2.14-2.723a3.02 3.02 0 0 0 3.458-1.133 4.95 4.95 0 0 0 .991-2.508q-.038.05-.076.105a2.44 2.44 0 0 1-1.996 1.048 2.42 2.42 0 0 1-1.996-1.048 4.31 4.31 0 0 1 0-5.071 1 1 0 0 1 .086-.096 3.27 3.27 0 0 0-1.976 1.257 5.34 5.34 0 0 0-.89 4.395l-2.14 2.723M234.305 133.884l-3.04 3.862.032.04a2.09 2.09 0 0 0-1.595.858 3.53 3.53 0 0 0 0 4.139 1.98 1.98 0 0 0 1.63.855 1.98 1.98 0 0 0 1.629-.855 3.37 3.37 0 0 0 .672-2.023l.032.039 1.947-2.471 1.093-1.392"/><path stroke="#006b99" stroke-linecap="round" stroke-linejoin="round" stroke-width="3.704" d="m236.705 130.833-2.14-2.723a5.34 5.34 0 0 0-.894-4.395 3.26 3.26 0 0 0-1.969-1.257q.042.046.08.096a4.3 4.3 0 0 1 0 5.071 2.42 2.42 0 0 1-1.994 1.048 2.42 2.42 0 0 1-1.994-1.048c-.029-.036-.051-.072-.076-.105a4.97 4.97 0 0 0 .988 2.508 3.024 3.024 0 0 0 3.461 1.133l2.14 2.723 2.397 3.051 3.04 3.862.029-.04c0 .73.235 1.44.671 2.024a1.99 1.99 0 0 0 1.629.855 1.98 1.98 0 0 0 1.63-.855 3.51 3.51 0 0 0 0-4.139 2.08 2.08 0 0 0-1.591-.858l.029-.041-3.036-3.862zM234.305 133.884l1.307 4.442"/></g><defs><clipPath id="a"><path fill="#fff" d="M0 0h355v238H0z"/></clipPath></defs></svg>