<svg xmlns="http://www.w3.org/2000/svg" width="452" height="422" fill="none" viewBox="0 0 452 422"><g clip-path="url(#a)"><path fill="#def2f7" d="M452 50.03H17.385V422H452z"/><path fill="#fff" d="M380.386 25.828c-.491 1.162 1.79 27.423-1.671 69.906-2.202 27.206.924 52.286 1.042 85.988 0 24.569-2.301 58.37-1.967 82.545.355 37.757 1.632 69.432 2.282 89.472.472 14.568-11.564 23.171-28.496 22.895-37.799-.61-107.084-1.969-169.387-3.405-22.046-.472-38.015-4.253-56.599-4.666-15.596-.354-34.555 2.658-45.528 2.422l-27.022-.61s9.833-298.403 9.833-299.387c.983-9.304 1.18-18.675.59-28.013l.669-15.414s-1.2-2.914 6.667-3.426c7.866-.512 89.403-.512 89.403-.512z"/><path fill="#ffef5f" d="M279.931 377.973c0-.374 4.13-24.943 4.306-28.112.178-3.17-1.042-12.777 5.645-11.635s47.809 8.545 47.809 8.545l-3.068 35.435s-12.862.353-20.787.531c-7.925.177-23.954-.807-27.12-.886s-7.768.355-6.785-3.878"/><path fill="#d8e9ff" d="M56.56 252.592s-11.662 21.655-11.662 21.951c0 .294-4.857 97.76-2.89 96.461 1.966-1.299 10.934-.551 10.934-.551zM56.325 154.438l3.775-4.056 4.032-122.821s.688-3.426 5.9-3.564 311.141 1.733 311.141 1.733l-1.613-14.548C371.694 13.308 59 9.568 54.87 14.902c-2.872 3.721-2.577 11.537-2.577 11.537S47.809 168.178 48.36 166.86c.55-1.32 6.077-11.044 7.965-12.422"/><path fill="#ffceb6" d="m12.528 246.47 12.842-18.544s11.347-17.836 13.215-23.959c1.869-6.122 4.7-14.646 5.9-19.45s4.445-14.901 4.445-14.901 6.195-13.406 7.355-15.178 5.664-3.937 8.339-6.044c2.674-2.107 19.666-6.064 22.616-7.52 2.95-1.457 10.993.137 14.278 0 3.284-.138 8.849 1.102 12.94 0s12.331-.828 12.409 2.716a66 66 0 0 1-.806 9.332s-6.548 6.122-1.966 8.956c4.582 2.836 8.063 7.284 6.332 8.662a15.9 15.9 0 0 1-5.526 2.087c0 8.682-.571 6.222-.452 16.517a7.5 7.5 0 0 1-5.055 5.315c-4.071 1.063-3.146-9.114-5.31-7.874-6.214 3.74-7.709 1.772-8.063 3.464-.354 1.693-2.674 6.044-6.844 13.23-4.169 7.185-10.678 21.891-25.92 30.237-15.241 8.348-19.155 22.994-21.633 27.777s-17.66 37.935-29.44 62.858l-9.224 18.387a137 137 0 0 1-.61-19.351c.531-8.446-.452-29.746-.629-38.979s-.53-33.643.806-37.738M214.54 250.368l-2.262-11.812a241 241 0 0 0-1.003-27.56s3.246-13.781 9.243-16.773c0 0 3.265-5.552 5.39-10.099 2.123-4.548 6.116-6.261 8.377-8.386 2.262-2.126 8.536-8.112 10.797-5.552a59 59 0 0 1 4.13 5.256l3.736-5.906s2.36-7.874 6.077-7.874 7.218 3.169 7.532 5.237c.315 2.066 1.357 5.906.394 9.036-.964 3.13-3.107 8.13 3.284 9.843 6.392 1.712 3.737 4.35 4.7 6.436.964 2.088 7.612 4.982 7.493 8.328-.118 3.347-1.612 5.906 0 8.78 0 0 4.701 13.092 3.442 17.029s-9.499 20.355-10.325 23.623c-.826 3.267-8.063 16.536-8.653 19.39-.59 2.855-1.081 14.608-1.593 18.801s-1.416 11.812-.748 14.784c.67 2.973 3.03 27.029 3.934 31.833s4.503 40.454 4.169 41.045c-.334.59-20.689 2.323-28.398 3.091s-22.852.787-27.788.708c-4.936-.078-8.143.099-6.963-1.26s.492-9.153 1.26-13.031c.767-3.879 4.307-20.651 4.621-26.439s3.008-22.738 3.677-28.762c.669-6.023 1.18-16.595 1.101-21.378a66 66 0 0 0-2.123-17.049c-1.888-6.988-2.911-18.328-3.501-21.339"/><path fill="#def2f7" d="M111.547 295.882a15302 15302 0 0 0-5.349 48.467 83 83 0 0 0-11.8-3.544 36.5 36.5 0 0 0-11.465-2.204c-1.514-.316-2.97-.946-4.484-1.32-7.198-1.811-4.975 5.906 2.616-49.057a152 152 0 0 1 30.482 7.658"/><path fill="#ffef5f" d="M335.784 46.065c15.202 1.674 15.457.178 15.241 1.969-2.341 18.84-1.967 22.363-3.422 27.206-2.104 7.009-4.641 22.738-7.591 22.659-28.497-.63-6.235.768-30.995-1.555-6.469-.61-9.656.393-11.524 0 4.858-12.265 4.484-11.812 8.044-27.699 4.346-19.508 1.612-9.173 3.54-23.406 23.284-.138 15.418-.394 26.707.826"/><path fill="#def2f7" d="M265.731 46.479c1.967-.295 2.991-.335 2.833 1.358-3.737 40.83-.708 13.584-4.897 42.325-.276 1.811-.197 1.969-1.967 2.146-5.9.315-26.549-.748-39.529.512a128.2 128.2 0 0 0 4.818-27.049s1.259-19.686 2.4-19.843a73 73 0 0 1 12.252.295c2.93.118 22.085.57 24.09.256"/><path fill="#ffef5f" d="M254.817 119.219c2.537.217 4.307-.216 4.208 1.831a286 286 0 0 1-3.933 29.981c-2.832 16.655-2.261 14.214-6.215 21.124-4.189-4.765-3.303-4.331-6.097-4.272-4.837 0-6.843 6.654-9.833 4.98-.865-.472-15.005-.767-20.551-2.165 0-1.398.688-7.087 2.852-20.532 1.711-10.513 1.966-29.884 2.93-30.632-.904-.571-1.435-.591 8.772-.118 6.399-.484 12.825-.55 19.233-.197 4.347.118.059-.807 8.634 0"/><path fill="#006b99" d="M322.6 117.467c15.367 1.248 18.771-.225 18.564 1.492-1.361 19.47-8.931 38.347-15.079 55.547-.866 2.453-1.609 5.071-2.599 4.948-7.198-.961-25.144-5.357-25.186-5.357-1.155-.246-2.371-.205-3.528-.43-4.867-1.022-5.919-1.677-8.642-1.718-7.426 0-6.663-.245-6.89-.858 3.775-7.998 5.756-10.84 11.902-35.852 5.281-21.412-1.609-17.854 8.768-17.997 0 0 7.941-.818 10.519-.859 1.444-.021-1.795-.061 12.171 1.084"/><path fill="#fcd" d="M344.574 236.863c-3.933 60.299-3.127 40.337-4.621 69.295-3.127 1.732-17.976-3.111-23.148-3.799-6.509-.887-6.312-.827-6.725-1.024-3.069-1.614-5.173-1.241-16.068-3.701-1.377-.315-2.537-1.063-3.382-1.142-2.636-.275-1.496-1.063-1.18-7.539.55-11.399 6.922-57.838 6.961-58.507 1.711.334 14.613 2.224 15.359 1.968 2.44-.59 4.662.512 7.002.846 24.622 3.564 13.274 1.24 25.802 3.603"/><path fill="#006b99" d="M215.405 323.58c-4.11 31.498-5.9 34.136-7.316 48.172l-11.426-2.48c.355-8.623 4.15-41.341 5.094-49.215z"/><path fill="#fcd" d="M175.247 313.305c2.399.649-2.892 27.323-5.762 54.55-18.841-5.631-9.833-5.237-21.771-7.875-2.95-.61-2.419.394-8.457-2.245-2.301-.984-3.933-1.732-3.815-2.696 1.967-13.407 3.068-14.509 3.344-19.136.413-6.752 3.677-29.155 3.933-31.281 11.19 4.095 6.745 1.654 32.528 8.683"/><path fill="#ffef5f" d="M211.767 244.973c4.405 13.446-.196 6.851 6.294 37.404-6.136-.472-11.683-2.539-17.542-3.504 0 0 7.473-62.523 8.2-62.208.728.315 1.357-.177 1.396.807.57 16.024-1.652 17.658 1.652 27.501"/><path fill="#def2f7" d="M187.971 214.185c-2.792 19.214-6.509 38.132-10.246 57.089-3.088-1.555-.59 2.756-22.499-3.13-4.07-1.082-8.2-2.914-11.956-2.263a24.4 24.4 0 0 1-6.706-.749c6.902-26.202 1.966-7.599 5.25-24.096 2.537-13.052.846-10.886 1.672-15.946 1.16-7.185 1.278-2.795 2.615-14.862 9.539 2.204 6.215 1.201 17.955 1.259 5.173.08 15.93 2.698 23.915 2.698"/><path fill="#006b99" d="M118.313 207.353c-7.866 40.672-.866 10.552-10.482 52.248-.492 2.105-12.154-1.497-29.814-4.863-1.574-.295-1.24-1.359-1.102-1.969 6.706-25.73 4.858-23.8 5.9-24.588 10.541-7.381 14.809-22.284 17.484-22.029 7.689.807 14.474.552 18.014 1.201"/><path fill="#ffef5f" d="M118.175 119.12c0 7.698-.845 10.592-1.102 18.978a.704.704 0 0 1-.444.74.7.7 0 0 1-.302.048c-2.636.197-5.271.491-7.867.55-8.574.197-9.833-3.011-20.217-.727.905-6.812 1.79-13.427 2.675-20.199 21.947.414 3.048.61 27.257.61"/><path fill="#fcd" d="M188.049 121.719c0 33.21-.157 30.73-2.261 45.278-32.213-1.102-18.663-1.359-34.632-2.166 0-1.397.197-12.303 1.494-12.736 3.933-1.358 12.37-3.052 15.026-5.453.983-.887 1.533-2.166.275-3.15s-4.347-1.595-14.75 0c.57-7.383 1.141-14.607 1.672-21.655 15.988-1.417 25.035.669 33.176-.118M194.835 46.676c0 8.366.333 2.303-1.967 18.347-3.777 26.675-3.933 24.51-5.369 24.253-5.369-1.023-9.696 0-16.894-.236-1.967 0-1.967.374-13.333 1.004-2.163.138-3.403.69-3.088-1.2.767-4.647.688-5.552 2.753-17.895 1.515-9.017 1.967-8.249 2.302-14.568.353-7.363.374-9.075 1.336-8.682 2.124.867 3.933 0 11.683-1.22 4.759-.748 2.812.138 14.494.374 3.48.079 6.116-.374 8.083-.177"/><path fill="#ffef5f" d="M129.798 47.72c.629 0-3.501 30.06-5.585 36.497-1.515 4.548 2.341 2.402-14.298 2.402-4.594-.11-9.191.054-13.766.492-2.537 0-1.593.157 1.2-12.894 0 0 3.244-22.797 3.244-26.695 5.468.473 2.085 0 7.572 0 14.337.315 15.478-.078 21.633.197"/><path fill="#000001" d="M382.117 11.103c0 2.106 3.009 1.752-156.445 2.402-179.515.708-168.325-.256-170.724 4.488-1.691 3.347-1.102 1.969-2.282 42.798-3.5 120.912-5.604 106.422 2.282 93.036 5.27-8.898 2.91 14.115 5.447-61.775 1.357-40.691 1.967-60.712 2.242-63.468.335-3.7 1.967-5.63 5.566-5.63 5.9 0 303.943 1.319 312.695 1.811 3.127.158 1.515 2.087.314 2.225-1.061.984-311.514-2.225-315.428-1.004-1.003.315-4.209 122.683-4.209 122.722 20.847-9.134 24.013-8.05 24.013-9.999 0-4.725.826-4.45 1.967-14.942.786-7.323.216-7.304 3.048-7.678 9.597-1.241 10.777.788 25.979 0 1.691 0 3.934-.216 3.934 1.102 1.415 27.305-4.485 19.352 4.385 22.58a6.424 6.424 0 0 1 3.678 6.772c-.197 1.103 18.702-2.283 18.821-2.303 3.382-.551 2.732 2.737 4.228-16.419.609-8.051 0-8.642 1.454-9.036a4.3 4.3 0 0 1 1.967-.236c2.262.493 4.386-.374 6.569-.432 3.068-.119 23.049.512 23.088.512 8.299 0 5.802-3.937 6.058 18.367.354 12.402-.492 17.52-2.36 31.064-.158 1.024-.433 1.85-1.731 1.693-.118 0-.256.177-.394.216-3.933 1.044-32.823-1.279-34.513-1.968-3.6-1.595-4.74 3.937-2.36-13.781v-1.141c-8.654 1.969-17.012 4.745-25.98 5.906 5.114 4.882 8.437 6.791 6.942 11.595a5.17 5.17 0 0 1-4.464 3.741c.767 9.724-.354 4.626 0 10.374.334 6.319 0 11.162-5.9 11.595-4.641.354-6.097-2.48-6.667-6.555-.236-1.811.747-1.969-1.573-.906-7.513 3.385-2.104.748-8.634 10.414a25 25 0 0 0-1.966 4.37c10.502.925 15.319-.944 19.313 1.968.707.513-2.538 20.731-5.213 35.77-2.595 14.687-1.966 7.403-4.798 20.238-.492 2.205-.374 2.776-17.975-.984-.905-.197-1.73-.788-2.616-.985-4.405-.945-11.13-1.968-14.907-3.189-3.422-1.044-.944-1.968 4.464-25.139.295-1.3-.51 0-3.284 1.968-8.181 5.906-10.62 6.674-14.18 11.812-5.9 8.642-3.166-8.17-6.922 97.682-1.003 28.073 0 28.978-2.478 28.919-1.71 0-1.652 4.941 1.869-99.198.727-21.655 1.966-19.528-4.819-4.45-5.054 11.202-3.146-4.566-5.9 77.505-.806 25.395-.255 25.021-1.868 25.237-2.36.316-1.81 0-1.18-20.433 2.242-73.035 2.32-67.977 1.849-68.133-20.729 43.722-12.154 28.17-23.895 52.147a102 102 0 0 0-5.388 10.277 1.4 1.4 0 0 1-1.83.767 1.4 1.4 0 0 1-.766-1.831c3.303-8.504 6.037-11.024 12.704-26.399 7.984-18.386 1.967-6.574 17.13-37.403 9.36-19.057 12.802-28.407 17.365-34.825 3.127-4.409 6.568-6.89 13.766-12.363 16.186-12.461 14.416-8.662 27.867-32.777.807-1.437 1.79-2.756 2.557-4.212 5.035-9.47 1.062-5.021 9.598-10.159.59-.354.117-3.052 1.729-3.169q.212-.034.418.02.207.054.375.184.167.132.269.32c.066.124.108.26.118.402 0 .511.473.984.59 1.495a33.6 33.6 0 0 0 1.967 7.343c.669 1.181 5.743 1.771 5.9-2.225.217-7.519 1.573-3.563-2.97-4.724-8.633-2.185-6.667-7.284-8.063-12.56-2.753 2.107-6.253 1.968-9.046 4.095 1.573 3.366 3.442 6.89 1.829 7.402-1.613.511-1.632-1.457-3.756-5.453-1.318-2.46-5.172-7.875-3.6-8.308 1.574-.432 2.302 1.359 4.17 3.682 9.971-3.426 6.628-2.54 10.325-4.921a8 8 0 0 0-2.557-3.249c-.727-.689.551-1.575 1.102-1.417 6.706 1.968 9.833 8.149 15.733 6.377 1.062-.314 2.517-3.089.963-4.448-.55-.493-5.683-5.178-5.782-5.434-.708-1.968-1.75-.846-9.046.591-1.671.335-3.383.472-5.054.768-7.513 1.339-4.563 4.449-16.815 11.811-8.378 5.138-7.473 5.434-9.48 8.505-2.005 3.071-2.733 4.646-1.809 6.615 4.11 8.819 4.15 10.334 3.344 17.166-.295 2.559-.433 4.153-1.967 3.937-2.557-.472 1.436-6.615-.905-13.131-5.506 24.47-11.288 19.686-9.636 16.871 3.304-5.414 3.343-4.725 4.858-10.079s1.474-4.43 1.514-13.15a5.68 5.68 0 0 1 0-5.906c7.965-15.631 9.341-7.639 24.229-23.23 4.68-4.902 1.789-9.843-2.577-10.295 1.967 3.13 3.403 4.527.492 8.445-2.4 3.248-8.712 3.76-9.322-.335-.098-.67.394-2.658 1.73-1.968 1.338.688.512 2.578 2.597 1.968 4.307-1.122 4.838-3.524 2.95-5.906s-1.81-1.968-4.877-.59c-15.733 7.48-17.995 10.768-21.024 14.174-11.505 12.993-13.904 8.346-21.043 23.623-.157.314-.255 1.279-1.966 1.142-1.043-.099.708-4.272 1.042-5.02 5.9-13.229 16.657-14.469 8.594-13.091a38 38 0 0 0-7.965 1.594c-1.966.571-4.484 14.469-8.574 26.025a99 99 0 0 1-3.934 9.666c-9.557 18.505-13.53 22.875-20.905 32.954-1.966 2.638-2.38 4.331-3.933 3.937-4.504-1.102 3.48-4.665 20.138-34.371 6.352-11.32 7.237-18.722 12.134-34.254.866-2.776 1.81-3.76.512-3.779-1.672 0-3.56.747-4.917-1.969-1.967-4.095-1.101-8.032 4.523-9.843 3.363-1.044 2.144 4.487 3.383-35.632 0 0 3.343-105.636 3.796-108.136 1.553-8.563-3.03-9.272 84.762-9.272 26.057 0 60.434-.709 105.274-.59 144.724.55 140.673-1.438 140.653 1.023M185.788 167.096c2.104-14.647 2.261-12.167 2.261-45.278-8.141.787-17.188-1.3-33.176.255-.531 7.029-1.102 14.254-1.672 21.655 10.403-1.614 13.432-1.043 14.75 0s.708 2.264-.275 3.15c-2.656 2.401-10.994 4.095-15.026 5.453-1.297.433-1.494 11.339-1.494 12.737 16.008.669 2.419.925 34.632 2.028m-20.787-21.655c0-.846-2.754-.296-3.934-.158-10.148 1.123-8.908 1.063-9.066 3.938 9.775-1.969 12.902-3.032 13-3.859zm-40.788 2.46c1.967-.314 1.751-5.138-1.495-5.649-4.484-.689-11.171.197-16.618.118-4.622 0-11.505-2.303-15.202-1.162-22.734 6.989-33.433 9.449-36.54 20.592 10.207-3.071 24.504-3.779 35.045-10.769a18.16 18.16 0 0 1 9.224-2.618c8.22 2.993.767 3.328 25.586-.512m-8.752 28.821c.197 6.083 8.692 7.185 8.143 3.032-.257-1.811-.276-3.661-.394-5.63-3.933.157-6.176-2.697-9.243-4.508a22.6 22.6 0 0 1 1.494 7.106m1.612-38.624c.257-8.386 1.102-11.28 1.102-18.978-24.21 0-5.31-.196-27.297-.61-.885 6.772-1.77 13.387-2.674 20.199 10.403-2.284 11.642.924 20.217.727 2.635 0 5.27-.353 7.866-.55.106.012.214 0 .316-.035a.7.7 0 0 0 .268-.169.7.7 0 0 0 .202-.584m-9.242 121.503c9.597-41.715 2.556-11.576 10.482-52.248-3.54-.727-10.325-.394-17.916-1.141-2.675-.256-6.943 14.646-17.484 22.028-1.14.787.708-1.141-5.9 24.588-.137.551-.472 1.614 1.102 1.969 17.562 3.307 29.224 6.909 29.716 4.804"/><path fill="#000001" d="M351.221 44.333c.826 0 2.734.158 2.616 2.973-.629 15.453-5.211 42.561-10.266 53.054-.374.748-.609.787-6.529.59-26.078-.886-.925.63-27.297-1.791-8.024-.748-17.012 1.594-15.005-3.603 4.208-10.827 5.25-15.748 8.987-31.143 4.858-20.08-1.377-22.048 5.763-22.048 39.765.059 11.878.944 41.731 1.968m-.196 3.622c.216-1.712 0-.216-15.242-1.968-11.308-1.22-3.461-.965-26.706-.965-1.967 14.233.806 3.937-3.54 23.407-3.561 15.965-3.187 15.434-8.044 27.698 1.868.453 5.054-.551 11.524 0 24.76 2.323 2.498.925 30.995 1.556 2.95 0 5.487-15.651 7.59-22.66 1.437-4.704 1.082-8.228 3.423-27.068M347.327 235.682c0 .453-1.003 24.352-1.219 26.675-.689 7.52-1.042 10.847-1.199 12.106-.355 2.619.097-3.641 0 0-.452 16.025-2.302 27.561-1.515 27.679-1.18 10.453 1.967 10.118-22.203 4.587-5.211-1.181-9.047-1.575-12.527-2.323-1.318-.276-2.537-.965-3.933-1.26-3.482-.787-7.002-1.437-10.522-2.205-1.081-.237-2.989-1.102-6.352-1.968-2.892-.709-1.967-1.458-1.534-11.359a143 143 0 0 1 1.966-16.123 243 243 0 0 1 2.773-24.588c.472-2.934 1.258-6.221 2.596-14.843.472-3.091-.137-4.863 1.966-4.607 16.029 1.968 15.733 1.851 16.835 1.615 1.711-.374 14.081 2.382 14.121 2.382 4.368.104 8.728.452 13.058 1.043 7.572 1.555 7.551-.552 7.689 3.189m-7.374 70.476c1.494-28.958.727-8.996 4.621-69.295-12.528-2.363-1.18 0-25.802-3.505-2.34-.333-4.562-1.436-7.002-.846-.746.158-13.648-1.732-15.359-1.968 0 .67-6.411 47.108-6.961 58.506-.316 6.477-1.456 7.265 1.18 7.541.845 0 1.966.827 3.382 1.141 10.895 2.461 12.999 2.087 16.068 3.701.413.197.216.138 6.725 1.024 5.172.59 20.021 5.433 23.148 3.701M342.313 117.093c1.455 7.225-1.849 22.698-5.9 35.435-1.967 6.28-4.523 13.209-5.645 16.418-4.503 12.796-3.52 8.878-4.227 10.887-.611 1.692-.158 1.811-5.9.688 0 0-29.638-5.905-30.582-6.221-2.458-.944-5.9-.117-11.681-1.24-2.695-.532-1.299-3.11-.453-5.039 4.405-9.843 3.736-4.981 12.311-40.927.944-3.937-.374-1.969 2.203-10.985.216-.749.629-.67 5.605-1.28v.393c15.733-2.263 7.454-.571 25.919-.177 4.193.757 8.475.883 12.705.374 1.692-.236 5.33.197 5.645 1.674m-2.695 2.776c.119-1.654-3.127-.236-17.7-1.437-13.314-1.103-10.226-1.064-11.524-1.044-2.458 0-10.03.827-10.03.827-9.833.138-3.323-3.287-8.358 17.324-5.9 24.076-7.748 26.812-11.348 34.51.216.59-.51.728 6.57.826 2.595 0 3.598.669 8.24 1.653 1.1.218 2.261.178 3.363.415 0 0 17.148 4.232 24.012 5.157.944.118 1.652-2.401 2.477-4.764 5.783-16.556 12.941-34.726 14.298-53.467M323.885 342.951c18.388 3.13 16.284-2.717 14.357 18.072-1.79 19.293-1.554 23.308-4.268 22.816s.786-16.339 1.475-26.911c.275-4.193 0-2.913.53-9.153-11.897-1.969-44.701-8.052-48.969-8.682-1.336 9.312-4.778 34.982-5.9 39.018a1.375 1.375 0 0 1-2.313.401 1.4 1.4 0 0 1-.341-.855c.157-2.341 1.967-15.315 2.261-16.909 2.911-20.001 2.105-24.825 6.392-24.175 41.319 6.359 23.108 3.996 36.776 6.378"/><path fill="#000001" d="M323.531 100.635c-1.101 0 .432.118 0 0M284.041 207.314c-.157 2.343 4.602 6.477 3.54 14.233-1.751 13.052.433 4.685-8.987 25.592-3.442 7.658-2.163 8.15-6.628 16.202-4.11 7.421-4.248 8.268-4.13 14.666.374 21.931-3.402 2.126 0 38.309 2.242 23.624 3.225 25.789 4.307 34.805.452 3.8.944 12.343 1.023 12.481.825 1.417.334 3.031.668 4.547 2.675 11.97-3.422 9.942-3.677 7.6-.257-2.343.157 1.2-1.259-17.718-2.537-33.466-7.749-53.054-5.094-68.153 1.967-11.635-.59-10.946 1.475-19.923 1.18-5.177 5.369-9.843 7.415-17.343 1.554-5.67 2.674-5.355 7.493-16.301 1.966-4.409 3.657-6.555 3.756-13.366 0-5.905 1.141-5.158-1.554-10.277-2.694-5.118-1.121-6.239-1.632-9.311-1.18-6.949-4.76-3.937-6.903-10.375a6.8 6.8 0 0 0-1.637-3.256 6.8 6.8 0 0 0-3.083-1.94c-9.99-6.378-2.223-9.036-3.697-18.328a4.86 4.86 0 0 0-2.734-3.623c-8.142-5.098-6.824-.787-7.866 2.284-.296.866-2.931 4.744-3.934 7.087-2.262 5.906-6.805 10.867-10.875 15.434-2.813 3.17-4.858 8.957-9.46 12.382-1.2.906-4.346 1.477-6.627 5.906-.767 1.458-3.088.434-2.399-1.437 2.792-7.756 6.784-3.937 12.665-14.626 3.461-6.28 5.014-6.064 10.816-13.78a5.16 5.16 0 0 0 1.083-3.26 5.16 5.16 0 0 0-1.201-3.217 2.18 2.18 0 0 0-2.203-1.123 6.2 6.2 0 0 0-3.46 1.969c-8.949 7.599-10.719 7.993-12.705 13.17-3.069 7.875-8.693 10.512-12.842 21.064-1.967 5.138-.63 7.697-.63 12.934 0 3.937-.334 9.843-.433 13.17-.157 6.497 2.714 9.843 4.504 21.162.512 3.288 1.121 10.808 1.396 12.403 1.377 8.307 3.481 12.796 3.108 24.135-.197 5.807-.61 13.78-.945 17.718-.333 3.937-9.498 64.215-9.833 66.578-.452 2.914-.413 5.295-3.283 4.685-1.574-.335-1.024-2.539-.335-4.764.295-1.024.845-.571-10.384-3.484-1.967-.473-3.933-.65-3.481-2.54 0 0 3.245-29.194 3.245-29.234-.099-4.784 1.494-9.311 1.829-14.017.194-2.549.69-5.067 1.475-7.5.768-2.382-.334-2.263 16.028 1.497 1.672-14.312 2.183-8.958 2.183-34.687-10.698-1.221-12.351-2.796-17.346-3.761-6.077-1.141-3.068-3.563 2.892-52.365 1.966-15.237 1.474-16.909 5.9-15.749.57-5.335 1.297-11.102 10.324-22.048 3.284-3.937 4.602-9.154 6.726-11.812 1.416-1.772 3.265-2.618 4.484-4.055-11.8-1.417-23.442-.826-22.321-4.607a65 65 0 0 0 1.848-14.311c.512-6.989.433 6.477 3.776-32.462.256-3.012.295-5.414.295-5.454-.276-2.598 1.239-3.582 2.242-3.288 4.209 1.222 9.833-.314 28.87.218 3.206 0 0-.847 8.791-.158 6.903.552 6.804.689 6.981 1.712.59 3.465-2.083 27.561-5.074 42.798 4.091-.295 7.002 1.969 10.011 3.938a3.93 3.93 0 0 1 1.789 3.169c.485 2.47.578 5.001.276 7.5-1.022 4.272-2.498 6.93.472 8.446 5.035 2.598 5.133 2.539 7.04 5.906 1.377 2.401.709 3.662 2.773 4.941 4.779 3.031 5.507 7.618 5.153 13.012m-25.016-86.264c0-1.969-1.671-1.614-4.208-1.831-8.575-.807-4.287.118-8.653 0a147.5 147.5 0 0 0-19.234.197c-10.207-.473-9.676-.453-8.772.118-.983.748-1.219 20.119-2.93 30.632-2.163 13.445-2.831 19.134-2.831 20.532 5.545 1.398 19.666 1.693 20.551 2.165 3.029 1.674 5.034-4.902 9.834-4.98 2.792 0 1.966-.493 6.096 4.272 3.933-6.91 3.383-4.469 6.214-21.124a286 286 0 0 0 3.933-29.981m-40.964 161.327c-6.49-30.553-1.967-23.957-6.294-37.404-3.226-9.843-1.082-11.476-1.652-27.56 0-.985-.904-.57-1.396-.807-.492-.236-8.122 62.227-8.122 62.268 5.781.964 11.328 3.031 17.464 3.503m-9.972 89.375c1.476-14.036 3.206-16.595 7.316-48.171l-13.589-3.505c-.944 7.875-4.74 40.573-5.094 49.215zM270.668 44.55c1.16 2.795-1.593 39.372-5.9 50.278-.374.945-40.729.197-42.184.59-3.186.827-3.933-1.752-3.265-3.937a120.7 120.7 0 0 0 4.877-28.761c.909-5.308 1.5-10.666 1.77-16.044a3.25 3.25 0 0 1 1.967-3.11 24.5 24.5 0 0 1 6.647-.532c35.006 1.417 35.184-.69 36.088 1.516m-2.104 3.287c.156-1.693-.944-1.653-2.833-1.358-1.887.295-21.16-.138-24.17-.256a73 73 0 0 0-12.251-.295c-1.141 0-2.4 19.804-2.4 19.843a128.2 128.2 0 0 1-4.818 27.049c12.979-1.26 33.61-.197 39.529-.512 1.849 0 1.77-.335 1.967-2.146 4.268-28.741 1.239-1.575 4.976-42.325M197.115 45.672c.23 2.361.322 4.734.276 7.106-.118 3.623-5.506 38.605-6.018 38.684-.983.157-1.671 1.043-2.831.925a44 44 0 0 0-9.263-.296c-3.56.394-5.035-.118-10.738.197-24.681 1.28-17.268 4.666-12.095-33.466.984-12.58.137-14.568 5.33-13.78 1.061.177 0 .275 6.49-.866 14.277-2.54 8.712.728 26.254-.71 1.869-.157 2.419.237 2.595 2.206m-4.208 19.292c2.242-16.044 1.967-9.98 1.967-18.347-1.967-.197-4.602.256-8.044.177-11.681-.236-9.833-1.122-14.494-.374-7.729 1.22-9.557 2.087-11.682 1.22-.963-.393-.983 1.32-1.337 8.682-.294 6.32-.787 5.551-2.3 14.568-1.967 12.343-1.967 13.248-2.754 17.894-.315 1.969.924 1.339 3.087 1.201 11.467-.63 11.348-1.102 13.334-1.004 7.199.315 11.525-.787 16.894.236 1.357.315 1.554 2.48 5.329-24.253M175.62 209.735c12.803 1.654 15.34.335 14.966 3.701-1.966 18.624-8.397 54.472-10.343 60.279-.355 1.064-2.36 1.438-3.6.828-1.239-.611-3.717.117-5.664-.119a116.8 116.8 0 0 1-22.617-5.296c-2.457-1.043-5.545-.236-7.393-.61-6.117-1.24-7.493-.649-7.277-2.165 1.297-9.351 1.809-7.875 3.186-13.958.708-3.169-.551 1.3 2.891-16.398.419-2.682.531-5.403.334-8.11 0-4.253 1.043-4.115 3.442-17.718.728-4.095 3.501-2.481 9.518-1.654q1.057.003 2.104-.137c17.897.117 13.609.452 20.453 1.357m2.105 61.598c3.737-19.016 7.454-37.934 10.246-57.09-7.985 0-18.742-2.618-23.915-2.637-11.799 0-8.417.945-17.955-1.26-1.337 12.068-1.455 7.678-2.615 14.863-.827 5.059.865 2.894-1.672 15.946-3.205 16.497 1.653-2.107-5.251 24.095 2.19.56 4.447.812 6.707.748 3.756-.649 7.866 1.181 11.956 2.265 21.909 5.826 19.411 1.436 22.499 3.07M176.84 310.233c2.694.69 1.672 2.304 1.396 6.241-.708 10.434-.256 9.193-.511 11.161-1.082 8.229-3.245 20.888-3.717 24.825-2.222 18.071-.964 19.784-4.405 18.8-12.586-3.583-11.053-3.268-13.766-4.882-7.867-4.706-8.772-1.024-20.71-7.323-4.326-2.284-2.95-1.201.119-18.821.531-3.129 1.966-16.182 2.674-20.335 2.871-19.844 2.184-17.875 5.251-17.718 6.844 1.359 5.369 1.969 10.836 2.717 4.288.472 6.332 1.162 22.833 5.335m-7.355 57.622c2.872-27.227 8.161-53.901 5.762-54.55-25.881-7.029-21.338-4.588-32.548-8.604-.235 2.127-3.5 24.53-3.933 31.282-.276 4.625-1.416 5.728-3.343 19.134-.138.965 1.513 1.713 3.815 2.698 6.038 2.637 5.506 1.633 8.456 2.243 12.055 2.56 2.95 2.166 21.791 7.797M129.64 44.609c3.934-.197 4.465-2.087.138 26.222-.825 5.315-2.379 12.303-3.658 18.367-.354 1.693-2.144 1.2-4.484 1.063-22.223-1.32-29.5 1.968-29.834-3.406 8.968-49.215 3.108-41.538 12.508-41.951 4.15-.177 19.962-.02 25.33-.295m-5.467 39.608c1.966-6.437 6.215-36.478 5.586-36.498-6.116-.276-7.257.118-21.634-.118-5.486-.099-2.104.433-7.571 0 0 3.937-3.225 26.655-3.245 26.694-2.793 13.052-3.737 12.973-1.2 12.895a115 115 0 0 1 13.767-.492c16.676-.08 12.822 2.067 14.297-2.48M112.433 292.732c3.146.729 1.671 2.501.806 11.398-3.933 39.747-3.481 44.885-7.336 43.565a79 79 0 0 0-13.137-3.937c-11.8-3.09-4.169-1.279-11.583-2.323-2.262-.314-4.602-2.539-7.867-2.165-4.169.473-1.966-9.45 4.995-50.042.453-2.737-.354-4.745 1.967-4.193 3.147.729 10.07 1.752 15.733 2.834 9.184 1.733 10.876 3.485 16.422 4.863m-6.235 51.617q2.715-24.273 5.448-48.467a152 152 0 0 0-30.483-7.678c-7.591 54.924-9.833 47.247-2.615 49.058 1.514.374 2.97 1.004 4.483 1.319 3.87.136 7.694.886 11.328 2.224a83 83 0 0 1 11.839 3.544M94.162 184.872c1.24 2.146 3.52 3.091 3.383 5.06 0 .294-.649.531-1.121.885a12 12 0 0 1-4.346-4.154c-2.95-5.079-4.976-5.079-5.389-6.496-.511-1.772 1.003-2.402 1.967-1.595a22.1 22.1 0 0 1 5.506 6.3"/></g><defs><clipPath id="a"><path fill="#fff" d="M0 0h452v422H0z"/></clipPath></defs></svg>