<svg xmlns="http://www.w3.org/2000/svg" width="32" height="32" fill="none" viewBox="0 0 32 32"><path fill="#006b99" fill-rule="evenodd" d="M13.678 4.168c-.261.102-.392.247-.363.407.043.247-5.295 7.462-6.662 11.84-.422 1.367.262 1.556 3.375.96 1.89-.364 1.818-.742.567 2.778-.931 2.589-1.615 4.756-1.935 6.08-.436 1.745.48 2.661 2.75.29.974-1.018 3.185-3.301 8.363-9.206 4.392-5.004 4.378-4.873.916-5.004l-2.138-.087c1.004-1.062 4.756-5.105 5.905-6.051 1.15-.96 1.513-1.353-.029-1.57-1.789-.263-7.84-.364-9.614-.524-.407-.044-.916 0-1.135.087m8.625 1.469-.756.625c-1.847 1.513-5.498 5.862-5.498 6.531 0 .727 1.222.655 4.378.655-4.654 5.396-8.29 9.6-8.378 9.6-.029 0 .306-.96.757-2.153 1.687-4.524 1.774-5.367.582-5.222-2.066.247-4.088.524-4.364.61-.247.073-.087-.32.844-2.065 1.658-3.17 2.327-4.087 5.236-8.93 5.541.247 5.483.247 7.2.349" clip-rule="evenodd"/></svg>