<svg xmlns="http://www.w3.org/2000/svg" width="32" height="32" fill="none" viewBox="0 0 32 32"><path fill="#006b99" fill-rule="evenodd" d="M12.63 6.97c-1.755 1.489-2.162 1.686-3.89 1.868-2.247.239-2.205.225-2.12.674.084.478.21 2.29.252 2.767C5.187 14.203 5.145 14.12 5.3 15.2c.057.436-.056 4.48.225 8.23.07.942.38 1.377 1.25 1.826 1.685.843 3.076.351 1.742-.618-1.194-.87-1.307-1.25-1.433-4.705-.042-1.123-.14-2.654-.225-3.413-.337-3.005.689-1.755.646-1.502-.084.674.253 1.208 1.742 1.98.899.463 4.255 2.612 5.59 3.062 1.98.688 2.794-.548 7.457-3.736.857-.576 1.419-1.096 1.742-1.601.814-1.25.899 5.084.098 7.78-.534 1.798-.688 1.854-5.814 1.98-5.253.127-7.753.464-7.627.843.31.927 11.952 1.138 13.792.267.815-.393 1.7-2.387 1.868-3.356.253-1.433.267-3.638.042-6.573-.154-2.107-.365-2.57-1.53-3.61-.408-.365-.436-1.053-.07-2.43.14-.533.322-1.39-.956-1.39s-3.328.085-3.68.085c-.505-.31-2.598-1.503-2.963-1.868-.323-.253-2.29-1.405-4.564.52m4.565.787c.478.309.87.576.87.618 0 .028-1.207.056-2.682.056-2.865 0-2.92-.028-1.924-.646 1.433-.913 2.346-.913 3.736-.028m5.997 5.955c-.112.561-.716.814-1.123.491-.295-.224-.576-.28-1.714-.28-.351 0-6.39-.029-9.171.168-2.444.168-1.138 1.137.155 1.306 1.081.14 9.789-.197 9.62.07-.084.14-2.837 2.163-4.649 3.638-.379-.197-7.443-3.792-7.71-3.792-.239 0-.407-5.45-.393-5.464.042-.056 8.202-.28 14.9-.28.226 2.078.352 2.794.085 4.143m-6.854-2.121c-.884.885.085 1.222 3.329 1.166 2.907-.057 3.132-.113 2.57-.759-.491-.59-5.393-.927-5.899-.407" clip-rule="evenodd"/></svg>