<svg xmlns="http://www.w3.org/2000/svg" width="32" height="32" fill="none" viewBox="0 0 32 32"><path fill="#006b99" d="M27.613 16.554c-1.028-6.341-5.437-11-9.363-9.893-.825.234-1.48.779-4.113 3.505-1.37 1.418-1.791 1.76-2.025 1.683-2.555-.997-4.16.25-4.144 3.24 0 1.59.078 2.01.592 3.615.14.42-1.636 2.072-3.863 4.424-1.792 1.636.093 2.134 2.788 1.262 4.643-1.496 3.926-1.433 5.53-.53 2.634 1.48 6.061 2.025 7.619 1.215a.84.84 0 0 0 .452-.84c0-.017-.14-1.543-.14-1.528 2.134-.857 4.704-1.729 5.92-2.601 1.215-.888 1.043-1.745.747-3.552M7.47 22.94c-.172 0 1.87-2.243 2.01-2.4.03.188.467.889 1.09 1.31.015.077-2.82 1.09-3.1 1.09m15.781-3.412c-.872.203-3.614 1.293-4.58 1.838-.701.39-.732.437-.639.935.343 1.9.436 1.792-1.215 1.371-3.739-.966-8.07-8.303-6.356-10.78.483-.701 1.153.186 1.2 1.604.046 1.496 1.37 3.957 2.305 4.565.545.358.826-.078.686-.358-1.808-3.334-1.512-4.222-1.387-4.72 0 0 3.973-4.02 4.3-4.379 1.2-1.277 2.259-1.34 3.427-.218 2.15 2.088 3.802 5.406 4.222 8.444.094.81-.56 1.387-1.963 1.698"/><path fill="#006b99" d="M23.36 17.161c-1.791.95-5.359-5.655-3.707-6.854.747-.546-.406-1.216-1.029-.514-1.043 1.184-.03 7.664 4.269 8.412.779.14 1.418 0 1.48-.53.062-.451-.53-.779-1.013-.514"/></svg>