<svg xmlns="http://www.w3.org/2000/svg" width="106" height="37" fill="none" viewBox="0 0 106 37"><path fill="#2d2d2d" d="M43.153 29.581 37.558 9.628h3.862l3.572 14.663h.184l3.813-14.663h3.514l3.823 14.673h.174l3.572-14.673h3.862l-5.595 19.953h-3.542l-3.969-14h-.155l-3.978 14zM69.5 20.813v8.768h-3.504V9.628h3.427v7.532h.174a4.32 4.32 0 0 1 1.616-1.998q1.104-.74 2.807-.74 1.549 0 2.7.653 1.152.652 1.781 1.91.64 1.256.64 3.068v9.528h-3.505V20.6q0-1.51-.774-2.348-.765-.848-2.149-.848-.93 0-1.664.41a2.86 2.86 0 0 0-1.143 1.159q-.406.76-.406 1.841m12.94 8.768V14.617h3.503V29.58zm1.76-17.088a2.04 2.04 0 0 1-1.432-.556q-.6-.564-.6-1.354 0-.798.6-1.354.6-.565 1.433-.565.842 0 1.433.565.6.555.6 1.354 0 .79-.6 1.354-.591.555-1.433.556m5.073 17.088V14.617h3.398v2.494h.154q.408-1.296 1.394-1.998.997-.71 2.275-.71.29 0 .648.028.369.02.61.069v3.244a3.7 3.7 0 0 0-.706-.136 6.5 6.5 0 0 0-.92-.069q-.958 0-1.723.42-.755.408-1.19 1.14-.436.73-.436 1.685v8.797zm14.039-19.953v19.953h-3.504V9.628z"/><path fill="#006b99" fill-rule="evenodd" d="M18.53 5.617a13.1 13.1 0 0 0-11.629.767L5.135 7.41 3.096 3.855 4.862 2.83a17.152 17.152 0 0 1 15.23-1.005 17.26 17.26 0 0 1 6.368 4.594 17.4 17.4 0 0 1 3.694 6.956 17.5 17.5 0 0 1 .256 7.883 17.4 17.4 0 0 1-3.233 7.184 17.3 17.3 0 0 1-6.057 5.003c-2.374 1.179-5.435 1.791-7.631 1.791s-3.478-.331-5.162-1.033a13.5 13.5 0 0 1-4.376-2.943 13.6 13.6 0 0 1-2.924-4.405 13.66 13.66 0 0 1 0-10.392 13.6 13.6 0 0 1 2.924-4.405 13.5 13.5 0 0 1 4.376-2.943 13.41 13.41 0 0 1 10.324 0 13.5 13.5 0 0 1 4.376 2.943 13.6 13.6 0 0 1 3.614 6.588 13.3 13.3 0 0 0-.426-4.208 13.3 13.3 0 0 0-2.82-5.312 13.2 13.2 0 0 0-4.864-3.508M5.345 26.404c.232-4.413 3.86-7.92 8.302-7.92 4.27 0 7.788 3.241 8.259 7.413a9.5 9.5 0 0 0 .995-4.24 9.5 9.5 0 0 0-.717-3.624 9.5 9.5 0 0 0-2.04-3.073 9.4 9.4 0 0 0-3.053-2.054 9.36 9.36 0 0 0-7.203 0 9.4 9.4 0 0 0-3.053 2.054 9.5 9.5 0 0 0-2.04 3.073 9.53 9.53 0 0 0 .55 8.371m12.537.448c0 2.354-1.896 4.263-4.235 4.263S9.41 29.206 9.41 26.852s1.896-4.263 4.235-4.263 4.235 1.909 4.235 4.263" clip-rule="evenodd"/></svg>