<svg xmlns="http://www.w3.org/2000/svg" width="117" height="34" fill="none" viewBox="0 0 117 34"><path fill="#969fa4" d="M54.32 22.406q.27 0 .465.207l1.296 1.405a7.1 7.1 0 0 1-2.653 2.04q-1.563.708-3.764.708-1.968 0-3.544-.671a7.8 7.8 0 0 1-2.677-1.87q-1.113-1.196-1.711-2.858-.588-1.66-.587-3.627 0-1.992.66-3.64a8.3 8.3 0 0 1 1.858-2.859 8.35 8.35 0 0 1 2.86-1.856q1.674-.672 3.69-.672 1.97 0 3.435.635 1.48.624 2.53 1.661l-1.1 1.527a1 1 0 0 1-.256.257q-.146.11-.416.11-.281 0-.574-.22a7 7 0 0 0-.746-.477 6 6 0 0 0-1.149-.476q-.685-.22-1.747-.22-1.248 0-2.298.44a5.1 5.1 0 0 0-1.797 1.234q-.745.806-1.173 1.966-.416 1.149-.416 2.59 0 1.49.416 2.65.427 1.16 1.149 1.954a4.95 4.95 0 0 0 1.699 1.222 5.3 5.3 0 0 0 2.102.415q.672 0 1.21-.073a5 5 0 0 0 1.002-.232q.465-.159.868-.403.415-.257.819-.623.122-.11.256-.171a.6.6 0 0 1 .294-.073M67.738 26.57h-1.356q-.428 0-.673-.121-.245-.135-.366-.526l-.27-.891q-.475.427-.94.757-.453.318-.941.538a4.8 4.8 0 0 1-1.04.33q-.549.11-1.221.11-.795 0-1.467-.208a3.3 3.3 0 0 1-1.161-.648 2.95 2.95 0 0 1-.746-1.062q-.27-.636-.269-1.478 0-.71.367-1.393.378-.697 1.247-1.246.867-.561 2.31-.928 1.442-.367 3.58-.415v-.733q0-1.258-.537-1.857-.525-.61-1.54-.61-.733 0-1.222.17a4.7 4.7 0 0 0-.856.391q-.354.208-.66.379a1.35 1.35 0 0 1-.672.171.88.88 0 0 1-.526-.159 1.25 1.25 0 0 1-.354-.39l-.55-.966q2.163-1.979 5.219-1.979 1.1 0 1.955.367.868.354 1.467 1.002.599.635.905 1.526.317.892.317 1.955zm-5.866-1.88q.464 0 .855-.086t.734-.256a4 4 0 0 0 .672-.415q.33-.257.66-.599v-2.113q-1.32.06-2.213.232-.88.159-1.417.415-.538.256-.77.599-.22.342-.22.745 0 .795.464 1.136.477.342 1.235.342M70.218 26.57V14.04h1.772q.465 0 .648.17.183.172.244.587l.184 1.515q.672-1.161 1.576-1.833a3.32 3.32 0 0 1 2.03-.671q.928 0 1.54.427l-.392 2.26q-.036.22-.159.317a.57.57 0 0 1-.33.086q-.183 0-.5-.086a3.4 3.4 0 0 0-.844-.085q-.942 0-1.613.525-.674.513-1.137 1.515v7.805zM88.532 26.57q-.587 0-.77-.549l-.244-1.21q-.391.441-.82.795a5 5 0 0 1-.929.61 4.5 4.5 0 0 1-1.063.392 4.8 4.8 0 0 1-1.222.146 4.15 4.15 0 0 1-1.882-.427 4.3 4.3 0 0 1-1.48-1.234q-.61-.819-.952-2.016-.33-1.197-.33-2.736 0-1.392.379-2.59a6.3 6.3 0 0 1 1.087-2.076 5 5 0 0 1 1.7-1.368q.989-.5 2.224-.5 1.051 0 1.796.342.746.33 1.332.891V8.42h3.02v18.15zm-4.022-2.21q.942 0 1.602-.39.66-.392 1.246-1.112v-5.62q-.513-.622-1.124-.879-.599-.256-1.295-.256-.685 0-1.248.256-.549.257-.94.782-.379.513-.587 1.32-.207.794-.208 1.88 0 1.1.171 1.87.184.757.514 1.245.33.477.806.696.478.208 1.063.208M98.342 13.843q1.185 0 2.175.379a4.7 4.7 0 0 1 1.724 1.111q.721.72 1.124 1.784.404 1.05.404 2.406 0 .343-.037.574a.8.8 0 0 1-.11.354.46.46 0 0 1-.208.183q-.134.05-.342.05h-7.75q.135 1.929 1.04 2.833.904.904 2.395.904.734 0 1.26-.171a5.6 5.6 0 0 0 .928-.379q.403-.207.697-.378.305-.171.587-.171.183 0 .318.073a.7.7 0 0 1 .231.208l.881 1.099q-.502.585-1.125.99-.623.39-1.307.635a7.3 7.3 0 0 1-1.382.33 10 10 0 0 1-1.357.097 6.8 6.8 0 0 1-2.432-.427 5.6 5.6 0 0 1-1.956-1.283q-.83-.855-1.307-2.1-.477-1.26-.477-2.908 0-1.282.416-2.406a5.8 5.8 0 0 1 1.186-1.967 5.6 5.6 0 0 1 1.894-1.331q1.125-.489 2.53-.489m.06 2.162q-1.318 0-2.065.745-.745.745-.953 2.113h5.672q0-.585-.16-1.099a2.6 2.6 0 0 0-.488-.916 2.25 2.25 0 0 0-.832-.61q-.5-.233-1.173-.233M114.553 26.57q-.586 0-.77-.549l-.244-1.21a7.5 7.5 0 0 1-.819.795q-.428.355-.929.61a4.5 4.5 0 0 1-1.063.392 4.8 4.8 0 0 1-1.223.146 4.16 4.16 0 0 1-1.882-.427 4.3 4.3 0 0 1-1.479-1.234q-.61-.819-.953-2.016-.33-1.197-.33-2.736 0-1.392.378-2.59.38-1.196 1.088-2.076a5 5 0 0 1 1.7-1.368q.989-.5 2.224-.5 1.052 0 1.797.342a4.6 4.6 0 0 1 1.332.891V8.42h3.018v18.15zm-4.021-2.21q.942 0 1.601-.39.66-.392 1.247-1.112v-5.62q-.513-.622-1.125-.879a3.3 3.3 0 0 0-1.295-.256q-.684 0-1.247.256a2.46 2.46 0 0 0-.941.782q-.378.513-.587 1.32-.207.794-.207 1.88 0 1.1.171 1.87.183.757.513 1.245.33.477.807.696.477.208 1.063.208"/><path fill="#969fa4" fill-rule="evenodd" d="M7.076 6.881a3.52 3.52 0 0 1 4.363-2.388L23.19 7.924a3.515 3.515 0 0 1 2.39 4.36l-5.262 18a3.52 3.52 0 0 1-4.363 2.388L4.204 29.24a3.515 3.515 0 0 1-2.39-4.36zm3.604.208a.81.81 0 0 0-1.007.55l-5.262 18c-.126.43.121.88.552 1.006l11.751 3.431a.81.81 0 0 0 1.007-.551l5.262-17.999a.81.81 0 0 0-.552-1.006z" clip-rule="evenodd"/><path fill="#969fa4" fill-rule="evenodd" d="M14.417 3.717a3.52 3.52 0 0 1 4.363-2.389L30.53 4.76a3.515 3.515 0 0 1 2.39 4.36L27.66 27.119a3.52 3.52 0 0 1-4.363 2.388l-11.751-3.431a3.515 3.515 0 0 1-2.39-4.36zm3.604.207a.81.81 0 0 0-1.007.551l-5.262 17.999c-.126.43.121.88.552 1.006l11.751 3.431a.81.81 0 0 0 1.007-.55l5.262-18a.81.81 0 0 0-.552-1.006z" clip-rule="evenodd"/></svg>