<svg xmlns="http://www.w3.org/2000/svg" width="145" height="27" fill="none" viewBox="0 0 145 27"><path fill="#969fa4" d="M47.165 20.348q-2.83 0-4.958-1.278-2.102-1.28-3.314-3.53-1.185-2.28-1.186-5.255t1.186-5.226q1.212-2.28 3.314-3.558Q44.337.223 47.165.222q2.802 0 4.931 1.28 2.13 1.278 3.314 3.557 1.185 2.252 1.186 5.226T55.41 15.54q-1.185 2.252-3.314 3.53-2.129 1.28-4.93 1.28m0-3.197q2.695 0 4.284-1.834 1.617-1.834 1.617-5.032 0-3.196-1.617-5.031-1.59-1.835-4.284-1.835t-4.311 1.835-1.617 5.031 1.617 5.032 4.311 1.834M59.56 26.13V6.228h3.072L63.01 8.2q.646-.918 1.697-1.613 1.078-.695 2.776-.695 1.886 0 3.368.945t2.344 2.586.862 3.725-.862 3.725a6.74 6.74 0 0 1-2.344 2.557q-1.482.918-3.368.917-1.51 0-2.641-.583a4.8 4.8 0 0 1-1.832-1.64v8.006zm7.195-8.895q1.644 0 2.722-1.14 1.077-1.14 1.077-2.946t-1.078-2.975Q68.4 9.007 66.756 9.007q-1.671 0-2.748 1.167-1.051 1.14-1.051 2.947 0 1.806 1.05 2.974 1.079 1.14 2.749 1.14M82.567 20.015q-2.102 0-3.368-1.057t-1.267-3.752V9.2h-2.29V6.227h2.29l.405-3.697h3.044v3.697h3.611V9.2h-3.61v6.032q0 1.002.404 1.39.43.362 1.455.362h1.67v3.03zM89.813 4.086q-.944 0-1.563-.583-.593-.584-.593-1.474T88.25.584Q88.87 0 89.813 0q.942 0 1.536.584.62.555.62 1.445t-.62 1.474q-.594.583-1.536.583m-1.725 15.929V6.227h3.449v13.788zM95.137 20.015V6.227h3.045l.297 1.862a4.7 4.7 0 0 1 1.697-1.584q1.078-.612 2.479-.612 3.099 0 4.392 2.474a5.3 5.3 0 0 1 1.94-1.807 5.6 5.6 0 0 1 2.695-.667q2.614 0 4.015 1.613t1.401 4.725v7.784h-3.45v-7.45q0-1.779-.673-2.724-.646-.945-2.02-.945-1.402 0-2.264 1.056-.835 1.056-.835 2.946v7.117h-3.45v-7.45q0-1.779-.674-2.724-.672-.945-2.074-.945-1.374 0-2.236 1.056-.836 1.056-.836 2.946v7.117zM126.866 20.348q-2.02 0-3.584-.89a6.34 6.34 0 0 1-2.451-2.501q-.89-1.613-.889-3.725-.001-2.14.862-3.808.888-1.668 2.424-2.586 1.564-.945 3.665-.945 1.967 0 3.477.89a6.17 6.17 0 0 1 2.343 2.446q.863 1.53.862 3.42 0 .304-.026.639 0 .333-.027.695h-10.159q.108 1.611 1.078 2.53.997.916 2.398.917 1.05 0 1.752-.473.727-.5 1.078-1.279h3.502a6.6 6.6 0 0 1-1.266 2.39 6.1 6.1 0 0 1-2.155 1.669q-1.267.611-2.884.611m.027-11.564q-1.266 0-2.236.75-.97.724-1.24 2.225h6.656q-.08-1.362-.97-2.169t-2.21-.806M136.477 20.015V6.227h3.071l.323 2.585a5.6 5.6 0 0 1 1.968-2.113q1.266-.806 2.964-.806v3.753h-.97q-1.132 0-2.021.361-.89.361-1.402 1.251-.485.89-.485 2.474v6.283z"/><path fill="#969fa4" fill-opacity=".8" d="M27.87 2.383 9.792 21.275a.185.185 0 0 1-.318-.133l.117-9.277c0-.069.038-.132.098-.164l17.962-9.614c.186-.1.365.143.219.296"/><path fill="#969fa4" d="m28.74.871-.24.343L7.972 12.32.476 7.344c-.175-.121-.127-.399.085-.439z"/><path fill="#969fa4" fill-rule="evenodd" d="M29.048.665a.38.38 0 0 1-.007.422l-.239.343a.4.4 0 0 1-.128.114L8.144 12.65a.37.37 0 0 1-.376-.017L.272 7.658l-.006-.005c-.42-.291-.34-1.005.222-1.115L28.662.505a.37.37 0 0 1 .386.16M.942 7.206l7.048 4.679L26.92 1.643z" clip-rule="evenodd"/><path fill="url(#a)" fill-rule="evenodd" d="M29.088.993a.38.38 0 0 0-.178-.455.37.37 0 0 0-.47.112l-.189.263L7.69 12.25a.38.38 0 0 0-.187.4l1.59 8.425a.37.37 0 0 0 .708.066l2.442-6.33 16.52-13.054a.37.37 0 0 0 .122-.172z" clip-rule="evenodd"/><path fill="#969fa4" d="M28.739.87 22.56 20.895a.245.245 0 0 1-.36.132l-8.034-5.036-1.707-1.164 15.77-13.279c.197-.165.357-.37.472-.6z"/><path fill="#969fa4" fill-rule="evenodd" d="M28.878.523a.376.376 0 0 1 .214.46l-6.178 20.024-.002.004a.613.613 0 0 1-.905.335l-8.036-5.037-.012-.008-1.706-1.164a.375.375 0 0 1-.03-.598L27.993 1.26c.158-.132.286-.296.378-.48l.038-.078a.37.37 0 0 1 .469-.179m-.969 1.783-14.834 12.49 1.292.88 7.89 4.946z" clip-rule="evenodd"/><defs><linearGradient id="a" x1="22.328" x2="9.873" y1="-2.673" y2="24.467" gradientUnits="userSpaceOnUse"><stop offset="0" stop-color="#abb3b7"/><stop offset="1" stop-color="#bbd3df"/></linearGradient></defs></svg>