<svg xmlns="http://www.w3.org/2000/svg" width="159" height="27" fill="none" viewBox="0 0 159 27"><g fill="#969fa4" clip-path="url(#a)"><path d="m28.17 10.251-10.723 7.58h-4.766l-10.723-7.58 13.106-8.663z" opacity=".4"/><path fill-rule="evenodd" d="M14.458.687a1.1 1.1 0 0 1 1.212 0L28.776 9.35c.304.201.486.54.486.901V24.33c0 .574-.23 1.125-.64 1.531-.409.407-.965.635-1.544.635H3.05c-.58 0-1.135-.229-1.545-.635a2.16 2.16 0 0 1-.64-1.531V10.25c0-.362.183-.7.487-.9zM3.05 10.831v13.498h24.028V10.83L15.064 2.89z" clip-rule="evenodd"/><path fill-rule="evenodd" d="M13.573 17.207c.348.488.231 1.164-.262 1.509L2.925 25.99a1.1 1.1 0 0 1-1.523-.26 1.077 1.077 0 0 1 .262-1.509l10.387-7.274a1.1 1.1 0 0 1 1.522.26M16.555 17.207a1.1 1.1 0 0 1 1.522-.26l10.387 7.274c.493.345.61 1.02.262 1.51a1.1 1.1 0 0 1-1.522.26l-10.387-7.275a1.077 1.077 0 0 1-.262-1.51" clip-rule="evenodd"/><path fill-rule="evenodd" d="M1.068 9.623c.35-.487 1.033-.6 1.524-.253l10.438 7.379h4.068l10.438-7.38a1.1 1.1 0 0 1 1.524.254c.35.487.236 1.163-.256 1.51l-10.723 7.58c-.185.131-.407.201-.634.201h-4.766c-.227 0-.449-.07-.634-.2l-10.723-7.58a1.077 1.077 0 0 1-.256-1.511" clip-rule="evenodd"/><path d="M41.017 22.504q-.44 0-.74-.298a1 1 0 0 1-.3-.734V7.79q0-.619.439-1.055a1.42 1.42 0 0 1 1.063-.458h.3q.74 0 1.272.687l8.9 12.744V7.33q0-.436.3-.733.3-.321.74-.321t.74.32a.96.96 0 0 1 .323.734v13.683q0 .62-.462 1.054-.44.435-1.063.436h-.278a1.54 1.54 0 0 1-.693-.16 1.7 1.7 0 0 1-.532-.459L42.08 9.073v12.4q0 .435-.324.733a1 1 0 0 1-.74.298M63.002 22.618q-1.78 0-3.121-.756a5.25 5.25 0 0 1-2.08-2.131q-.717-1.399-.717-3.186 0-1.788.717-3.163a5.2 5.2 0 0 1 2.08-2.155q1.341-.756 3.12-.756 1.758 0 3.098.756a5.2 5.2 0 0 1 2.08 2.155q.74 1.375.74 3.163t-.74 3.186a5.25 5.25 0 0 1-2.08 2.131q-1.34.756-3.097.756m0-1.902a3.9 3.9 0 0 0 1.803-.435q.878-.436 1.433-1.375.578-.94.578-2.384 0-1.42-.578-2.36-.555-.94-1.433-1.353a3.9 3.9 0 0 0-1.803-.436q-.972 0-1.85.436-.855.413-1.41 1.352t-.554 2.36q0 1.445.554 2.384.555.94 1.41 1.376a4.1 4.1 0 0 0 1.85.435M75.22 22.504a1.36 1.36 0 0 1-.832-.275 1.4 1.4 0 0 1-.509-.688l-3.282-9.534a1.2 1.2 0 0 1-.07-.39q0-.435.301-.733.3-.298.74-.298.323 0 .578.183a.79.79 0 0 1 .37.436l2.704 8.824 2.682-8.618q.115-.367.416-.596.323-.23.716-.23t.694.23q.324.229.439.596l2.682 8.618 2.704-8.824a.8.8 0 0 1 .347-.436q.278-.183.6-.183.44 0 .74.298.3.297.301.733 0 .183-.07.39L84.19 21.54a1.4 1.4 0 0 1-.508.688 1.36 1.36 0 0 1-.832.275 1.36 1.36 0 0 1-.833-.275 1.53 1.53 0 0 1-.531-.71l-2.45-7.587-2.451 7.586q-.162.435-.532.71a1.36 1.36 0 0 1-.832.276"/><path fill-rule="evenodd" d="m43.172 6.872.004.006 8.62 12.342V7.331c0-.328.115-.611.344-.839.228-.243.515-.367.85-.367s.62.123.848.365q.368.343.369.841v13.683q-.002.684-.509 1.163a1.6 1.6 0 0 1-1.17.48h-.278a1.7 1.7 0 0 1-.77-.181 1.9 1.9 0 0 1-.578-.5l-.003-.004L42.233 9.56v11.911c0 .332-.125.617-.371.844-.23.227-.515.34-.846.34-.332 0-.618-.114-.849-.342a1.14 1.14 0 0 1-.345-.842V7.79c0-.452.162-.842.483-1.161.32-.334.714-.504 1.173-.504h.3c.55 0 1.016.258 1.394.747m-2.757-.137a1.42 1.42 0 0 1 1.063-.458h.3q.74 0 1.272.687l8.9 12.744V7.33q0-.436.3-.733.3-.321.74-.321t.74.32a.96.96 0 0 1 .323.734v13.683q0 .62-.462 1.054-.44.435-1.063.436h-.278q-.369 0-.693-.16a1.7 1.7 0 0 1-.532-.459L42.08 9.073v12.4q0 .435-.324.733a1 1 0 0 1-.74.298q-.439 0-.739-.298a1 1 0 0 1-.3-.734V7.79q0-.619.439-1.055M57.663 19.8q-.734-1.435-.734-3.254-.001-1.82.734-3.233a5.37 5.37 0 0 1 2.141-2.217c.92-.52 1.988-.776 3.197-.776q1.792-.001 3.173.776a5.37 5.37 0 0 1 2.14 2.215q.76 1.414.758 3.235.002 1.82-.757 3.256v.001a5.4 5.4 0 0 1-2.14 2.192q-1.382.778-3.174.777-1.815.001-3.197-.777a5.4 5.4 0 0 1-2.14-2.192zm10.516-6.417a5.2 5.2 0 0 0-2.08-2.155q-1.341-.756-3.098-.756-1.78 0-3.12.756a5.2 5.2 0 0 0-2.081 2.155q-.717 1.375-.717 3.163t.717 3.186a5.25 5.25 0 0 0 2.08 2.131q1.341.756 3.12.756 1.758 0 3.098-.756a5.25 5.25 0 0 0 2.08-2.131q.74-1.399.74-3.186 0-1.788-.74-3.163m-3.445 6.763h.001c.556-.276 1.013-.712 1.37-1.317v-.002c.367-.596.556-1.361.556-2.304 0-.927-.188-1.685-.555-2.281l-.001-.003q-.536-.903-1.367-1.291l-.004-.002a3.8 3.8 0 0 0-1.733-.42q-.934 0-1.78.42h-.002c-.54.26-.988.688-1.345 1.293-.352.597-.534 1.356-.534 2.284 0 .944.182 1.71.534 2.307q.536.904 1.347 1.316.846.42 1.78.419.91 0 1.733-.419m-3.582.136q-.855-.436-1.41-1.375t-.555-2.384q0-1.42.554-2.36.555-.94 1.41-1.353a4.1 4.1 0 0 1 1.85-.435q.948 0 1.803.435.878.413 1.433 1.352.578.94.578 2.36 0 1.445-.578 2.384-.555.94-1.433 1.376-.855.435-1.803.435a4.1 4.1 0 0 1-1.85-.435m26.319-8.274-3.283 9.534a1.4 1.4 0 0 1-.508.688 1.36 1.36 0 0 1-.832.275 1.36 1.36 0 0 1-.833-.275 1.53 1.53 0 0 1-.531-.71l-2.45-7.587-2.45 7.586q-.163.435-.533.71a1.36 1.36 0 0 1-.832.276 1.36 1.36 0 0 1-.832-.275 1.4 1.4 0 0 1-.508-.688l-3.283-9.534a1.2 1.2 0 0 1-.07-.39q0-.435.301-.733.3-.298.74-.298.323 0 .578.183a.79.79 0 0 1 .37.436l2.704 8.824 2.682-8.618q.115-.367.416-.596.323-.23.716-.23t.694.23q.323.229.44.596l2.68 8.618 2.705-8.824a.8.8 0 0 1 .347-.436 1.07 1.07 0 0 1 .601-.183q.44 0 .74.298.3.297.3.733 0 .183-.07.39m-1.656-1.366q.315-.207.685-.208c.332 0 .618.115.848.343s.346.512.346.841q-.001.212-.077.438l-3.283 9.534v.001q-.156.46-.562.76a1.5 1.5 0 0 1-.924.306q-.514 0-.925-.305a1.7 1.7 0 0 1-.583-.78l-.003-.006-2.304-7.134-2.304 7.134-.002.006a1.7 1.7 0 0 1-.583.78 1.5 1.5 0 0 1-.925.305q-.513 0-.924-.305c-.27-.201-.46-.455-.562-.76v-.002l-3.283-9.534a1.4 1.4 0 0 1-.077-.438q0-.497.345-.841c.23-.228.517-.343.849-.343q.368 0 .662.208c.21.124.358.296.431.515l.002.004 2.558 8.348 2.534-8.142q.13-.412.47-.672l.004-.003q.362-.257.805-.258.443 0 .785.26.363.257.495.672v.001l2.534 8.142 2.56-8.352a.96.96 0 0 1 .408-.515" clip-rule="evenodd"/><path d="M92.31 22.504q-.44 0-.741-.298a1 1 0 0 1-.3-.734V7.332q0-.437.3-.734.3-.321.74-.321t.74.32a.96.96 0 0 1 .323.734v14.141q0 .435-.323.734a1 1 0 0 1-.74.298M98.26 22.504q-.44 0-.74-.298a1 1 0 0 1-.3-.734V11.64q0-.435.3-.733.3-.321.74-.321.439 0 .739.32a.96.96 0 0 1 .323.734v.94a7.7 7.7 0 0 1 1.896-1.536q1.017-.573 2.404-.573 1.272 0 2.196.596.948.596 1.433 1.627a5.06 5.06 0 0 1 .509 2.27v6.508a.96.96 0 0 1-.323.734 1.01 1.01 0 0 1-.74.298q-.439 0-.74-.298a1 1 0 0 1-.301-.734v-6.28q0-2.796-2.542-2.796-1.157 0-2.081.596-.902.596-1.71 1.605v6.875a.96.96 0 0 1-.324.734 1 1 0 0 1-.74.298"/><path fill-rule="evenodd" d="M92.309 22.656c-.332 0-.618-.114-.848-.342a1.15 1.15 0 0 1-.346-.842V7.332q0-.497.343-.84.347-.366.85-.367.504.001.85.365.366.343.368.841v14.141c0 .332-.125.617-.37.844-.23.227-.516.34-.847.34m.74-.45a.96.96 0 0 0 .324-.734V7.332a.96.96 0 0 0-.325-.734.97.97 0 0 0-.74-.321.97.97 0 0 0-.739.32q-.3.3-.3.734v14.141q0 .435.3.734.3.297.74.298.44 0 .74-.298m5.21.45c-.332 0-.618-.114-.848-.342a1.15 1.15 0 0 1-.346-.842V11.64c0-.328.115-.611.344-.84.228-.243.515-.367.85-.367s.62.124.848.366c.244.226.369.51.369.841v.556a7.6 7.6 0 0 1 1.666-1.284q1.058-.595 2.48-.593 1.31-.002 2.279.62a3.94 3.94 0 0 1 1.489 1.69q.525 1.065.524 2.334v6.51c0 .331-.126.616-.371.843-.23.227-.516.34-.847.34q-.5 0-.848-.342a1.15 1.15 0 0 1-.346-.842v-6.28c0-.912-.207-1.568-.595-1.995-.386-.424-.974-.648-1.793-.648q-1.113 0-1.996.57-.86.569-1.642 1.531v6.822c0 .332-.126.617-.37.844-.23.227-.516.34-.847.34m.74-.45a.96.96 0 0 0 .323-.734v-6.875q.81-1.009 1.711-1.605a3.76 3.76 0 0 1 2.081-.596q2.542 0 2.542 2.797v6.28q0 .435.3.733.302.297.74.298.439 0 .741-.298a.96.96 0 0 0 .323-.734v-6.509a5.06 5.06 0 0 0-.509-2.269 3.78 3.78 0 0 0-1.433-1.627q-.925-.596-2.196-.596-1.387 0-2.404.573a7.6 7.6 0 0 0-1.896 1.536v-.94a.96.96 0 0 0-.323-.733.97.97 0 0 0-.74-.321.98.98 0 0 0-.74.32q-.3.3-.3.734v9.832q0 .435.3.734.301.297.74.298.44 0 .74-.298" clip-rule="evenodd"/><path d="M114.904 22.504q-.439 0-.74-.298a1 1 0 0 1-.301-.734V8.34h-4.715a.94.94 0 0 1-.693-.275.93.93 0 0 1-.278-.688q0-.412.278-.688a.9.9 0 0 1 .693-.298h11.512q.417 0 .693.298.3.276.3.688t-.3.688a.94.94 0 0 1-.693.275h-4.693v13.132a.96.96 0 0 1-.323.734 1 1 0 0 1-.74.298M127.57 22.618q-2.82 0-4.415-1.581-1.572-1.605-1.573-4.492 0-1.627.602-3.003a5.1 5.1 0 0 1 1.849-2.223q1.248-.848 3.075-.848 1.71 0 2.958.802a5.04 5.04 0 0 1 1.896 2.109q.647 1.306.647 2.865 0 .436-.3.733-.277.298-.763.298h-7.837q.185 1.605 1.203 2.498 1.017.894 2.843.894.971 0 1.687-.183a7 7 0 0 0 1.433-.527.9.9 0 0 1 .417-.092q.37 0 .646.252a.83.83 0 0 1 .278.642q0 .504-.601.848a8.4 8.4 0 0 1-1.78.756q-.878.252-2.265.252m2.958-7.036q-.068-1.123-.6-1.88-.51-.755-1.272-1.1a3.54 3.54 0 0 0-1.548-.366 3.54 3.54 0 0 0-1.549.366q-.763.345-1.272 1.1-.508.757-.578 1.88zM140.848 22.618a6.56 6.56 0 0 1-3.074-.733 5.76 5.76 0 0 1-2.266-2.109q-.832-1.375-.832-3.231 0-1.857.832-3.232a5.76 5.76 0 0 1 2.266-2.109 6.56 6.56 0 0 1 3.074-.733q1.225 0 2.104.32.901.3 1.664.78.463.298.462.802 0 .344-.277.642a.8.8 0 0 1-.601.275q-.255 0-.509-.137a7.7 7.7 0 0 0-1.317-.55q-.532-.184-1.341-.184-1.989 0-3.121 1.146-1.132 1.123-1.132 2.98t1.132 3.002q1.132 1.123 3.121 1.123.81 0 1.341-.16a10 10 0 0 0 1.317-.573q.254-.138.509-.138.346 0 .601.298.277.275.277.619 0 .504-.462.802a8.4 8.4 0 0 1-1.664.802q-.879.298-2.104.298M148.758 22.504q-.438 0-.74-.298a1 1 0 0 1-.3-.734V6.598q0-.435.3-.734a.98.98 0 0 1 .74-.32q.44 0 .74.32a.96.96 0 0 1 .324.734v5.982a7.7 7.7 0 0 1 1.896-1.536q1.017-.573 2.403-.573 1.272 0 2.196.596a3.8 3.8 0 0 1 1.434 1.627 5.06 5.06 0 0 1 .508 2.27v6.508q0 .435-.324.734-.3.297-.739.298-.44 0-.74-.298a1 1 0 0 1-.3-.734v-6.28q0-2.796-2.543-2.796a3.76 3.76 0 0 0-2.081.596q-.901.596-1.71 1.605v6.875q0 .435-.324.734a1 1 0 0 1-.74.298"/><path fill-rule="evenodd" d="M123.044 21.143c-1.083-1.105-1.615-2.645-1.615-4.598q0-1.657.614-3.063a5.26 5.26 0 0 1 1.903-2.288c.863-.587 1.92-.875 3.162-.875q1.748-.002 3.041.826a5.2 5.2 0 0 1 1.951 2.17q.663 1.34.662 2.932 0 .494-.342.839c-.22.234-.518.345-.874.345h-7.662c.141.957.521 1.696 1.13 2.231.641.564 1.547.856 2.74.856q.958 0 1.65-.179h.001q.723-.18 1.402-.515.22-.109.485-.108.429.001.75.292a.98.98 0 0 1 .328.754c0 .41-.25.735-.678.98h-.001a8.6 8.6 0 0 1-1.813.77q-.909.26-2.308.259c-1.911 0-3.425-.537-4.524-1.626zm.685-3.713-.02-.152h7.837q.485 0 .762-.298a1 1 0 0 0 .301-.733q0-1.56-.647-2.865a5.04 5.04 0 0 0-1.896-2.109q-1.248-.801-2.958-.802-1.827 0-3.075.848a5.1 5.1 0 0 0-1.85 2.223q-.6 1.376-.601 3.003 0 2.887 1.573 4.492 1.595 1.581 4.415 1.581 1.386 0 2.265-.252a8.4 8.4 0 0 0 1.78-.756q.601-.344.601-.848a.83.83 0 0 0-.278-.642.93.93 0 0 0-.646-.252.9.9 0 0 0-.417.092q-.692.344-1.433.527-.716.183-1.688.183-1.825 0-2.842-.894-.969-.85-1.183-2.346m6.07-3.643q-.486-.723-1.207-1.046l-.003-.001a3.4 3.4 0 0 0-1.481-.352q-.749 0-1.482.352l-.004.001q-.72.324-1.207 1.046-.446.66-.54 1.643h6.487q-.095-.981-.561-1.64zm.718 1.643q.007.075.011.152h-6.819l.011-.152q.095-1.023.567-1.727.509-.757 1.271-1.1a3.54 3.54 0 0 1 1.55-.367q.785 0 1.548.367.763.343 1.272 1.1.495.704.589 1.727m4.861 4.426-.001-.001c-.572-.944-.855-2.05-.855-3.31q-.001-1.893.855-3.31l.001-.002a5.9 5.9 0 0 1 2.324-2.163q1.445-.751 3.146-.751 1.243-.002 2.154.33a7.7 7.7 0 0 1 1.696.794h.002c.347.225.532.538.532.93 0 .275-.112.524-.318.745a.95.95 0 0 1-.714.325q-.298-.002-.581-.156a7.5 7.5 0 0 0-1.289-.538l-.003-.001-.004-.002q-.497-.173-1.29-.175c-1.294 0-2.291.373-3.011 1.1l-.001.002c-.721.715-1.088 1.667-1.088 2.872s.366 2.164 1.088 2.895c.72.713 1.717 1.078 3.012 1.078q.792-.002 1.294-.153.539-.179 1.292-.563.283-.153.581-.155c.28 0 .52.122.714.347.206.207.318.449.318.722 0 .393-.185.706-.532.93h-.002q-.777.491-1.695.818h-.002q-.91.308-2.153.307a6.7 6.7 0 0 1-3.146-.751 5.9 5.9 0 0 1-2.324-2.164m9.423.241q-.255-.297-.601-.298-.255 0-.509.138a10 10 0 0 1-1.317.573q-.532.16-1.341.16-1.989 0-3.121-1.123-1.132-1.146-1.132-3.002 0-1.857 1.132-2.98 1.132-1.146 3.121-1.146.81 0 1.341.184.554.16 1.317.55.254.137.509.137a.8.8 0 0 0 .601-.275q.277-.298.277-.642 0-.504-.462-.802a7.6 7.6 0 0 0-1.664-.779q-.879-.32-2.104-.32-1.665 0-3.075.732a5.76 5.76 0 0 0-2.265 2.11q-.832 1.374-.832 3.23 0 1.858.832 3.232a5.76 5.76 0 0 0 2.265 2.109q1.41.733 3.075.733 1.225 0 2.104-.298a8.4 8.4 0 0 0 1.664-.802q.462-.297.462-.802a.85.85 0 0 0-.277-.619m-29.898 2.56a1.16 1.16 0 0 1-.847-.343 1.15 1.15 0 0 1-.346-.842V8.492h-4.562a1.097 1.097 0 0 1-1.125-1.115c0-.312.107-.58.32-.793.214-.23.487-.345.805-.345h11.512c.317 0 .588.115.802.343.229.212.345.48.345.795s-.117.585-.348.797a1.1 1.1 0 0 1-.799.318h-4.539v12.98c0 .332-.126.617-.371.843-.23.227-.515.341-.847.341m.74-.451a.96.96 0 0 0 .324-.734V8.34h4.693a.94.94 0 0 0 .693-.275q.3-.276.3-.688t-.3-.688a.9.9 0 0 0-.693-.298h-11.512q-.417 0-.693.298a.93.93 0 0 0-.278.688q0 .412.278.688a.94.94 0 0 0 .693.275h4.715v13.132q0 .435.301.734.3.297.739.298.44 0 .74-.298m33.115.45q-.5 0-.848-.342a1.14 1.14 0 0 1-.346-.842V6.598c0-.329.115-.612.344-.84q.345-.366.85-.367c.334 0 .62.123.849.366.244.226.369.51.369.84v5.6a7.6 7.6 0 0 1 1.665-1.285q1.06-.595 2.48-.593c.872 0 1.635.204 2.28.62a3.94 3.94 0 0 1 1.488 1.69q.524 1.065.524 2.334v6.51c0 .331-.125.616-.371.843-.23.227-.515.34-.846.34-.332 0-.619-.114-.849-.342a1.14 1.14 0 0 1-.345-.842v-6.28c0-.912-.207-1.568-.597-1.995-.385-.424-.973-.648-1.793-.648q-1.11 0-1.995.57-.86.569-1.641 1.531v6.822c0 .332-.126.616-.371.843-.23.227-.516.341-.847.341m.74-.45a.96.96 0 0 0 .324-.734v-6.875q.808-1.009 1.71-1.605a3.76 3.76 0 0 1 2.08-.596q2.544 0 2.544 2.796v6.28q0 .435.3.734.3.297.74.298.439 0 .739-.298a.96.96 0 0 0 .324-.734v-6.509a5.06 5.06 0 0 0-.508-2.269 3.8 3.8 0 0 0-1.434-1.627q-.924-.596-2.196-.596-1.387 0-2.403.573-.93.524-1.742 1.371l-.154.165V6.598a.96.96 0 0 0-.324-.734.97.97 0 0 0-.74-.32.98.98 0 0 0-.74.32q-.3.298-.3.734v14.874q0 .435.3.734.302.297.74.298.44 0 .74-.298" clip-rule="evenodd"/></g><defs><clipPath id="a"><path fill="#fff" d="M0 0h159v27H0z"/></clipPath></defs></svg>