<svg xmlns="http://www.w3.org/2000/svg" width="22" height="22" fill="none" viewBox="0 0 22 22"><path fill="#000" d="M21.36 2.488a7.6 7.6 0 0 1-2.517.834c.915-.662 1.6-1.705 1.927-2.934a7.9 7.9 0 0 1-2.783 1.287 4.5 4.5 0 0 0-1.455-1.24A3.74 3.74 0 0 0 14.789 0c-2.42 0-4.383 2.375-4.383 5.305q.002.624.114 1.209C6.878 6.293 3.65 4.181 1.488.971c-.39.81-.595 1.73-.594 2.667 0 .873.177 1.733.517 2.504s.833 1.427 1.433 1.911A3.8 3.8 0 0 1 .859 7.39v.067c0 2.569 1.51 4.713 3.514 5.201a3.67 3.67 0 0 1-1.979.09c.558 2.108 2.176 3.642 4.094 3.685-1.552 1.474-3.47 2.274-5.443 2.27A7 7 0 0 1 0 18.63c2.004 1.558 4.336 2.385 6.717 2.382 8.06 0 12.469-8.082 12.469-15.092q0-.345-.013-.687c.858-.75 1.599-1.68 2.187-2.745"/></svg>