<svg xmlns="http://www.w3.org/2000/svg" width="481" height="479" fill="none" viewBox="0 0 481 479"><path fill="#cceff6" d="M371.353 163.284H137.669v-9.231a10.191 10.191 0 0 1 10.192-10.19h220.378a27.8 27.8 0 0 0-.565 5.563v.225H174.211v7.765h194.45l.187-.053a29.3 29.3 0 0 0 2.505 5.921"/><path fill="#f7cedc" d="M264.803 314.621a7.55 7.55 0 0 1 6.977 4.659 7.56 7.56 0 0 1 .432 4.363 7.56 7.56 0 0 1-5.933 5.932 7.56 7.56 0 0 1-4.364-.431 7.549 7.549 0 0 1-4.66-6.976 7.54 7.54 0 0 1 2.213-5.334 7.55 7.55 0 0 1 5.335-2.213M400.999 201.153v86.939a47 47 0 0 0-5.216 2.634l-3.937-1.331.102-.305V184.632z"/><path fill="#006b99" d="M400.999 183.284v17.869l-9.053-16.526v-4.095a52 52 0 0 0 9.053 2.752M383.499 335.932H366.99l7.711-27.527h5.071a27.9 27.9 0 0 0-2.018 10.383 29.13 29.13 0 0 0 5.745 17.144"/><path fill="#f7cedc" d="m374.707 308.405-7.712 27.527H142.366a13.75 13.75 0 0 1-13.75-13.747v-65.656l9.053-11.559v53.246c0 2.701 1.074 5.294 2.986 7.204a10.19 10.19 0 0 0 7.206 2.985zm-102.34 13.763a7.54 7.54 0 0 0-1.271-4.196 7.55 7.55 0 0 0-11.619-1.148 7.54 7.54 0 0 0-1.642 8.227 7.55 7.55 0 0 0 2.781 3.39 7.55 7.55 0 0 0 4.195 1.276 7.553 7.553 0 0 0 7.55-7.549z"/><path fill="#cceff6" d="M371.453 188.84a4 4 0 0 1 2.884 1.133 3.98 3.98 0 0 1 1.203 2.853 3.98 3.98 0 0 1-1.203 2.855 4 4 0 0 1-1.328.857 4 4 0 0 1-1.556.275h-91.917a4 4 0 0 1-2.217-.668 4 4 0 0 1-1.47-1.79 3.96 3.96 0 0 1-.226-2.305 3.98 3.98 0 0 1 1.094-2.041 3.95 3.95 0 0 1 2.819-1.169z"/><path fill="#006b99" d="M371.455 205.888a3.99 3.99 0 0 1 3.988 3.989 3.98 3.98 0 0 1-1.169 2.818 3.98 3.98 0 0 1-2.819 1.169H233.032a4 4 0 0 1-3.99-3.993 4 4 0 0 1 1.173-2.815 4 4 0 0 1 2.817-1.168z"/><path fill="#cceff6" d="M371.453 222.938a3.992 3.992 0 0 1 2.884 1.132 3.988 3.988 0 0 1 .889 4.403 4 4 0 0 1-2.217 2.164 4 4 0 0 1-1.556.274h-45.412a3.989 3.989 0 0 1-2.821-6.806 4 4 0 0 1 2.821-1.167z"/><path fill="#006b99" d="M371.455 239.979a3.99 3.99 0 0 1 3.988 3.987 3.99 3.99 0 0 1-3.988 3.987H225.282a3.99 3.99 0 0 1-2.82-1.17 3.98 3.98 0 0 1-1.171-2.821 3.99 3.99 0 0 1 3.991-3.983z"/><path fill="#cceff6" d="M371.453 257.035a3.99 3.99 0 0 1 3.892 3.987 3.992 3.992 0 0 1-3.892 3.988h-76.414a4 4 0 0 1-3.992-3.991 3.996 3.996 0 0 1 3.992-3.984z"/><path fill="#006b99" d="M371.455 274.084a3.985 3.985 0 0 1 3.773 5.535c-.207.489-.51.933-.891 1.305-.38.372-.832.663-1.326.856a3.95 3.95 0 0 1-1.556.276h-22.161a3.99 3.99 0 0 1-3.99-3.991 3.99 3.99 0 0 1 1.173-2.814 3.98 3.98 0 0 1 2.817-1.167z"/><path fill="#cceff6" d="M371.455 291.13a3.99 3.99 0 0 1 3.988 3.99 3.992 3.992 0 0 1-3.988 3.987h-122.92a4.01 4.01 0 0 1-2.823-1.171 4 4 0 0 1-1.17-2.822 4 4 0 0 1 3.993-3.984z"/><path fill="#006b99" d="m371.763 171.822-3.867 7.944H248.535a4 4 0 0 1-2.821-1.168 3.99 3.99 0 0 1 0-5.639 4 4 0 0 1 2.821-1.168h122.92c.107 0 .201.024.308.031"/><path fill="#f7cedc" d="M142.366 137.259h228.096a28.8 28.8 0 0 0-2.223 6.603H147.861a10.196 10.196 0 0 0-10.192 10.191v32.531a46 46 0 0 0-9.053-5.223v-30.355a13.74 13.74 0 0 1 4.027-9.72 13.75 13.75 0 0 1 9.723-4.027"/><path fill="#006b99" d="m368.85 157.363-.187.053H174.211v-7.765h193.472a27.2 27.2 0 0 0 1.167 7.712"/><path fill="#cceff6" d="M327.277 274.084a3.985 3.985 0 0 1 2.758 6.771 3.99 3.99 0 0 1-2.758 1.201H173.353a3.99 3.99 0 0 1-3.99-3.989 3.993 3.993 0 0 1 3.99-3.983z"/><path fill="#006b99" d="M304.023 222.938a3.985 3.985 0 0 1 3.892 3.987 3.99 3.99 0 0 1-1.135 2.784 3.98 3.98 0 0 1-2.757 1.202h-130.67a3.995 3.995 0 0 1-3.99-3.99 3.99 3.99 0 0 1 3.99-3.983z"/><path fill="#f7cedc" d="m294.497 355.7 3.273 14.421h-65.922l7.751-34.189z"/><path fill="#006b99" d="m290.016 335.932 4.481 19.768-54.9-19.768zM273.02 257.035a4 4 0 0 1 2.756 1.202 3.984 3.984 0 0 1 0 5.569 4 4 0 0 1-2.756 1.204h-99.667a3.997 3.997 0 0 1-3.99-3.991 3.99 3.99 0 0 1 3.99-3.984zM257.519 188.84a4 4 0 0 1 1.556.275 4 4 0 0 1 2.53 3.711c0 .533-.108 1.06-.313 1.55a4 4 0 0 1-2.217 2.162 4 4 0 0 1-1.556.275h-84.166a4 4 0 0 1-1.556-.275 3.99 3.99 0 0 1-2.217-5.26 3.983 3.983 0 0 1 3.773-2.438z"/><path fill="#cceff6" d="M226.515 171.791a3.987 3.987 0 1 1 0 7.975h-53.162a3.995 3.995 0 0 1-3.99-3.99 3.993 3.993 0 0 1 3.99-3.985z"/><path fill="#006b99" d="M226.515 291.13a3.987 3.987 0 0 1 2.82 6.808 4 4 0 0 1-2.82 1.169h-53.162a3.996 3.996 0 0 1-3.99-3.993 3.99 3.99 0 0 1 3.99-3.984z"/><path fill="#cceff6" d="M211.013 205.888a3.99 3.99 0 0 1 3.99 3.989 3.98 3.98 0 0 1-1.169 2.818 3.99 3.99 0 0 1-2.821 1.169h-37.66a3.995 3.995 0 0 1-3.99-3.993 3.99 3.99 0 0 1 3.99-3.983zM203.262 239.979c1.058 0 2.073.42 2.821 1.167a4 4 0 0 1 1.169 2.82 4 4 0 0 1-1.169 2.821 4 4 0 0 1-2.821 1.166h-29.909a3.992 3.992 0 0 1-3.99-3.991 3.994 3.994 0 0 1 3.99-3.983z"/><path fill="#006b99" d="M151.171 207.114c.526.195.985.538 1.322.987a2.93 2.93 0 0 1 .247 3.155 2.94 2.94 0 0 1-1.152 1.181v-.504c0-.395 0-.79-.031-1.186v-.092a27 27 0 0 0-.386-3.541M150.117 172.806a2.972 2.972 0 0 1 2.924 3.543 2.978 2.978 0 0 1-2.331 2.339 2.97 2.97 0 1 1-.593-5.882M150.117 189.856a2.975 2.975 0 0 1 2.747 1.826 2.96 2.96 0 0 1-.639 3.237 2.968 2.968 0 1 1-2.108-5.063M150.117 223.954a2.966 2.966 0 1 1 0 5.933 3 3 0 0 1-1.748-.611 3 3 0 0 1-1.059-1.519l-.407-.257a30 30 0 0 0 1.883-3.384l.131.06c.247-.243.997-.222 1.2-.222M150.117 258.049a2.96 2.96 0 0 1 2.751 1.828 2.96 2.96 0 0 1-.638 3.238 2.96 2.96 0 0 1-3.238.649 2.97 2.97 0 0 1-1.836-2.745c0-.786.312-1.541.867-2.096a2.96 2.96 0 0 1 2.094-.874M150.117 275.099a2.96 2.96 0 0 1 1.651.497 2.96 2.96 0 0 1 1.268 3.044 2.96 2.96 0 0 1-.811 1.521 2.96 2.96 0 0 1-3.235.648 2.965 2.965 0 0 1-1.834-2.742 2.966 2.966 0 0 1 2.961-2.968M150.117 292.146a2.96 2.96 0 0 1 2.751 1.828 2.966 2.966 0 0 1-2.16 4.054 2.96 2.96 0 0 1-1.717-.169 2.96 2.96 0 0 1-1.835-2.745 2.97 2.97 0 0 1 2.961-2.968M133.568 239.992l4.312 2.039-.219.464v2.475l-9.052 11.559v-14.034a45 45 0 0 0 4.959-2.503M118.811 245.681l.084.381c-4.005 9.082-9.103 18.095-15.074 23.109a145 145 0 0 0-5.596 4.943c-.676-9.903-1.404-19.924-2.1-28.052 3.434.625 6.918.939 10.41.937a57 57 0 0 0 12.276-1.318"/><path fill="#cceff6" d="M90.73 291.079a23.7 23.7 0 0 1 6.628-8.906c.441-.339.882-.682 1.332-1.008a97.4 97.4 0 0 1 23.044-11.975c-.218.464-8.542 18.095-16.528 24.83-1.852 1.556-3.706 2.952-5.457 4.311a48 48 0 0 0-5.03 4.408 18.1 18.1 0 0 0-5.402 13.106v.395H85.9v-.395a75.6 75.6 0 0 1 1.164-12.454 51 51 0 0 1 3.665-12.312"/><path fill="#006b99" d="M100.597 315.845v.395h-4.154a81.7 81.7 0 0 0-1.736-13.5 48 48 0 0 1 5.03-4.409c.534 8.99.86 15.715.86 17.514"/><path fill="#cceff6" d="M98.69 281.158c-.45.333-.891.676-1.332 1.015a23.7 23.7 0 0 0-6.628 8.906c-.922-1.437-2.063-3.031-3.38-4.806-3.061-4.138-7.028-9.175-11.098-14.772a155.6 155.6 0 0 1-13.084-20.752s-.024-.038-.062-.107a90 90 0 0 1-1.634-3.419c-16.952-37.383-5.97-74.657-5.97-74.657a177.5 177.5 0 0 1 16.323 17.005 30.7 30.7 0 0 0-10.353 22.364c0 16.577 14.78 30.472 34.652 34.129.697 8.128 1.425 18.149 2.101 28.052.156 2.363.319 4.716.465 7.042"/><path fill="#006b99" d="M85.399 289.216s1.272 7.572 1.676 14.167a75.6 75.6 0 0 0-1.164 12.454v.395h-3.404v-.395c1.198-8.013-.03-17.033 0-21.296a54 54 0 0 1 2.892-5.325"/><path fill="#cceff6" d="M87.35 286.273a54.103 54.103 0 0 0-4.843 8.268 52.4 52.4 0 0 0-4.843 21.653v.038h-1.366a133.6 133.6 0 0 0-2.565-24.76c.783-4.101 1.197-8.751 1.698-13.495.225-2.138.465-4.299.76-6.43l.061-.048c4.07 5.603 8.037 10.632 11.099 14.774"/><path fill="#cceff6" d="M76.298 316.24H70.26c-.395-20.536-14.283-27.022-28.189-38.738-14.373-12.098-29.33-44.034-29.33-44.034a171.2 171.2 0 0 1 41.978 22.101q.603.512 1.255.958c10.06 7.891 15.185 22.149 17.757 34.944a133.6 133.6 0 0 1 2.566 24.769"/><path fill="#006b99" d="m76.253 271.501-.063.048a201 201 0 0 0-.76 6.432c-1.379-9.153-8.711-14.019-19.452-21.45-.42-.325-.831-.651-1.258-.958-9.742-8.168-12.787-28.092-12.787-28.092 11.154 6.557 20.338 21.752 21.173 23.162.039.069.063.108.063.108a155.5 155.5 0 0 0 13.084 20.75"/><path stroke="#006b99" stroke-linecap="round" stroke-linejoin="round" stroke-width="1.543" d="M128.616 242.495a45 45 0 0 0 4.952-2.503l4.311 2.039 21.08 9.919-13.654-22.139a30 30 0 0 0 1.612-2.311 30 30 0 0 0 1.883-3.385 28 28 0 0 0 2.788-11.678v-.504c0-.395 0-.79-.031-1.186"/><path stroke="#006b99" stroke-linecap="round" stroke-linejoin="round" stroke-width="1.543" d="M151.567 210.655a27 27 0 0 0-.395-3.541 33.16 33.16 0 0 0-13.503-20.529 46 46 0 0 0-9.052-5.224 54.95 54.95 0 0 0-22.081-4.493 50.85 50.85 0 0 0-34.71 12.694 30.7 30.7 0 0 0-10.353 22.365c0 16.575 14.78 30.47 34.652 34.128a58 58 0 0 0 10.411.937 57 57 0 0 0 12.276-1.319 52.8 52.8 0 0 0 9.805-3.174M371.771 171.822l2.202-4.524a32.4 32.4 0 0 1-2.635-4.014 29.2 29.2 0 0 1-2.495-5.921 27.1 27.1 0 0 1-1.164-7.712v-.225a27.7 27.7 0 0 1 .56-5.564 28.8 28.8 0 0 1 2.219-6.602c6.355-13.374 22.885-22.906 42.278-22.906 24.88 0 45.057 15.699 45.057 35.072s-20.177 35.068-45.057 35.068a56.3 56.3 0 0 1-11.737-1.217 51.3 51.3 0 0 1-9.051-2.745 47.4 47.4 0 0 1-6.228-3.053l-21.08 8.991 3.271-6.706 3.873-7.945M391.846 289.396l-13.479-4.563 5.682 16.079a31.5 31.5 0 0 0-4.279 7.493 27.8 27.8 0 0 0-2.016 10.383 29.1 29.1 0 0 0 5.749 17.144c7.711 10.693 22.43 17.924 39.317 17.924 24.882 0 45.057-15.701 45.057-35.068 0-19.365-20.175-35.065-45.057-35.065a55.15 55.15 0 0 0-21.817 4.378 47 47 0 0 0-5.217 2.635z"/><path stroke="#006b99" stroke-linecap="round" stroke-linejoin="round" stroke-width="1.543" d="M128.616 181.361v-30.355a13.75 13.75 0 0 1 13.75-13.747h228.096M239.605 335.932h-97.239a13.75 13.75 0 0 1-13.75-13.747v-79.688M383.497 335.932h-93.481M400.999 183.284v104.817"/><path stroke="#006b99" stroke-linecap="round" stroke-linejoin="round" stroke-width="1.543" d="M137.669 186.594v-32.541a10.191 10.191 0 0 1 10.192-10.19h220.378M379.772 308.407H147.861a10.193 10.193 0 0 1-10.192-10.191v-55.719M391.946 180.542v108.552M137.669 163.283h233.674"/><path stroke="#006b99" stroke-linecap="round" stroke-linejoin="round" stroke-width="1.543" d="M368.664 157.416H174.213v-7.765h193.403M272.361 322.168a7.57 7.57 0 0 1-1.271 4.196 7.558 7.558 0 0 1-7.751 3.217 7.57 7.57 0 0 1-5.939-5.93 7.55 7.55 0 0 1 3.208-7.754 7.55 7.55 0 0 1 9.536.933 7.55 7.55 0 0 1 2.217 5.338M231.848 370.121l7.751-34.189h50.419l4.479 19.768 3.273 14.421M293.147 370.12h-54.703M239.597 335.932l54.9 19.768M210.99 370.12h11.953M226.492 370.12h11.952M40.475 370.12h11.953M99.116 370.12h30.817M55.977 370.12h16.167M293.149 370.12H305.1M308.649 370.12h11.952M159.246 158.316l7.929-4.572-7.929-4.581M154.123 149.163l-7.937 4.581 7.937 4.572M391.946 184.632l9.053 16.521M374.701 308.405l-7.711 27.527M137.669 244.97l-9.053 11.559M99.116 370.119H72.144c-4.288 0-8.4-1.701-11.432-4.732a16.17 16.17 0 0 1-4.735-11.431V316.24h59.306v37.716a16.163 16.163 0 0 1-16.167 16.163M76.298 316.24c-.082-8.318-.941-16.61-2.566-24.769-2.572-12.795-7.696-27.063-17.754-34.944-.42-.325-.832-.651-1.258-.958a171.2 171.2 0 0 0-41.977-22.101s14.959 31.936 29.329 44.034c13.905 11.716 27.787 18.202 28.19 38.738M82.506 294.549a52.4 52.4 0 0 0-4.843 21.652M87.35 286.273a54.104 54.104 0 0 0-4.844 8.268M118.895 246.062c-4.005 9.082-9.102 18.095-15.074 23.109a145 145 0 0 0-5.596 4.943M73.733 291.471c.783-4.1 1.197-8.748 1.698-13.494.225-2.138.465-4.297.76-6.43M121.751 269.171c-.225.479-8.55 18.103-16.529 24.837-1.851 1.556-3.706 2.953-5.456 4.311a48 48 0 0 0-5.03 4.409 18.11 18.11 0 0 0-5.403 13.105M98.69 281.158a97.5 97.5 0 0 1 23.044-11.975M85.901 315.845a75.6 75.6 0 0 1 1.164-12.454 51 51 0 0 1 3.665-12.305 23.7 23.7 0 0 1 6.628-8.905c.441-.339.882-.682 1.332-1.008"/><path stroke="#006b99" stroke-linecap="round" stroke-linejoin="round" stroke-width="1.543" d="M94.707 302.74a81.7 81.7 0 0 1 1.736 13.5M63.168 250.756a155.6 155.6 0 0 0 13.084 20.753c4.072 5.596 8.037 10.633 11.098 14.772 1.318 1.774 2.458 3.376 3.38 4.803M71.825 189.568a177.5 177.5 0 0 0-16.322-17.004s-10.983 37.272 5.97 74.657a91 91 0 0 0 1.633 3.417M98.69 281.173c-.147-2.334-.31-4.688-.465-7.051-.675-9.904-1.404-19.924-2.1-28.054M100.597 315.845c0-1.799-.326-8.524-.853-17.514"/><path stroke="#006b99" stroke-linecap="round" stroke-linejoin="round" stroke-width="1.543" d="M63.169 250.757s-.024-.039-.063-.11c-.836-1.41-10.02-16.606-21.173-23.16 0 0 3.045 19.922 12.787 28.09q.604.512 1.258.958c10.74 7.425 18.073 12.299 19.453 21.45M82.507 294.541c-.03 4.263 1.198 13.284 0 21.296M85.398 289.216s1.272 7.572 1.676 14.167M163.208 168.823v131.058M226.515 179.766h-53.162a3.995 3.995 0 0 1-3.99-3.99 3.993 3.993 0 0 1 3.99-3.985h53.162a3.987 3.987 0 1 1 0 7.975M371.771 171.822c-.115 0-.209-.031-.316-.031h-122.92a3.988 3.988 0 0 0 0 7.975h119.361zM153.085 175.776a2.96 2.96 0 0 1-1.833 2.735 2.97 2.97 0 0 1-1.713.168 3 3 0 0 1-1.517-.812 2.968 2.968 0 0 1 4.196-4.193 2.96 2.96 0 0 1 .867 2.102M257.519 196.813h-84.166a4 4 0 0 1-1.556-.275 3.99 3.99 0 0 1-2.217-5.26 3.983 3.983 0 0 1 3.773-2.438h84.166a4 4 0 0 1 1.556.275 4 4 0 0 1 2.53 3.711c0 .533-.108 1.06-.313 1.55a4 4 0 0 1-2.217 2.162 4 4 0 0 1-1.556.275M371.453 196.813h-91.917a4 4 0 0 1-2.217-.668 4 4 0 0 1-1.47-1.79 3.96 3.96 0 0 1-.226-2.305 3.98 3.98 0 0 1 1.094-2.041 3.95 3.95 0 0 1 2.819-1.169h91.917a4 4 0 0 1 2.884 1.133 3.98 3.98 0 0 1 1.203 2.853 3.98 3.98 0 0 1-1.203 2.855 4 4 0 0 1-1.328.857 4 4 0 0 1-1.556.275M153.085 192.824a2.95 2.95 0 0 1-1.831 2.736 2.96 2.96 0 0 1-1.713.169 3 3 0 0 1-1.518-.81 2.969 2.969 0 0 1 3.231-4.838 2.97 2.97 0 0 1 1.607 1.607c.149.36.225.745.224 1.136M211.013 213.874h-37.66a3.996 3.996 0 0 1-3.99-3.993 4 4 0 0 1 3.99-3.984h37.66c1.058 0 2.074.42 2.821 1.169a3.984 3.984 0 0 1 0 5.639 4 4 0 0 1-2.821 1.169M371.455 213.874H233.032a4 4 0 0 1-3.99-3.993 4 4 0 0 1 1.173-2.815 4 4 0 0 1 2.817-1.169h138.423c1.057 0 2.071.42 2.819 1.169a3.985 3.985 0 0 1 0 5.639 4 4 0 0 1-2.819 1.169M151.597 211.933c0 .17 0 .341-.016.504a2.96 2.96 0 0 0 1.489-2.794 2.95 2.95 0 0 0-1.906-2.529h-.017a28 28 0 0 1 .412 3.55v.096c.029.383.038.778.038 1.173M304.023 230.911h-130.67a3.995 3.995 0 0 1-3.99-3.99 3.99 3.99 0 0 1 3.99-3.983h130.67a3.985 3.985 0 0 1 3.892 3.987 3.99 3.99 0 0 1-1.135 2.784 3.98 3.98 0 0 1-2.757 1.202M371.453 230.911h-45.412a3.989 3.989 0 0 1-2.821-6.806 4 4 0 0 1 2.821-1.167h45.412a3.992 3.992 0 0 1 2.884 1.132 3.988 3.988 0 0 1 .889 4.403 4 4 0 0 1-2.217 2.164 4 4 0 0 1-1.556.274M148.922 224.172c.24-.24.992-.222 1.198-.222.787 0 1.542.312 2.099.868a2.97 2.97 0 0 1 0 4.198 2.98 2.98 0 0 1-2.099.868 3.01 3.01 0 0 1-2.807-2.131M203.262 247.961h-29.909a3.995 3.995 0 0 1-3.99-3.993 3.996 3.996 0 0 1 3.99-3.983h29.909a3.99 3.99 0 0 1 3.99 3.989 3.99 3.99 0 0 1-3.99 3.987M371.455 247.961H225.282a4 4 0 0 1-3.991-3.993 4.002 4.002 0 0 1 3.991-3.983h146.173a3.988 3.988 0 0 1 0 7.976M273.02 265.01h-99.667a3.997 3.997 0 0 1-3.99-3.991 3.99 3.99 0 0 1 3.99-3.984h99.667a4 4 0 0 1 2.756 1.202 3.984 3.984 0 0 1 0 5.569 4 4 0 0 1-2.756 1.204M371.453 265.01h-76.414a4 4 0 0 1-3.992-3.991 3.996 3.996 0 0 1 3.992-3.984h76.414a3.99 3.99 0 0 1 3.892 3.987 3.992 3.992 0 0 1-3.892 3.988M153.085 261.019c0 .586-.175 1.159-.501 1.645a2.963 2.963 0 0 1-4.562.445 2.964 2.964 0 0 1 .449-4.56 2.96 2.96 0 0 1 1.647-.5 2.956 2.956 0 0 1 2.744 1.833c.148.361.224.748.223 1.137M327.277 282.056H173.353a3.99 3.99 0 0 1-3.99-3.989 3.993 3.993 0 0 1 3.99-3.983h153.924a3.985 3.985 0 0 1 2.758 6.771 3.99 3.99 0 0 1-2.758 1.201M371.455 282.056h-22.161a3.99 3.99 0 0 1-3.99-3.991 3.99 3.99 0 0 1 1.173-2.814 3.98 3.98 0 0 1 2.817-1.167h22.161a3.985 3.985 0 0 1 3.773 5.535c-.207.489-.51.933-.891 1.305-.38.372-.832.663-1.326.856a3.95 3.95 0 0 1-1.556.276M153.085 278.059a2.967 2.967 0 0 1-5.874.577 2.97 2.97 0 0 1 1.26-3.044 2.96 2.96 0 0 1 1.647-.5 2.97 2.97 0 0 1 2.743 1.831c.149.36.225.746.224 1.136M226.515 299.107h-53.162a3.996 3.996 0 0 1-3.99-3.993 3.99 3.99 0 0 1 3.99-3.984h53.162a3.987 3.987 0 0 1 2.82 6.808 4 4 0 0 1-2.82 1.169M371.455 299.107h-122.92a4.01 4.01 0 0 1-2.823-1.171 4 4 0 0 1-1.17-2.822 4 4 0 0 1 3.993-3.984h122.92a3.99 3.99 0 0 1 3.988 3.99 3.992 3.992 0 0 1-3.988 3.987M153.086 295.114a2.968 2.968 0 0 1-3.545 2.906 2.974 2.974 0 0 1-2.33-2.329 2.97 2.97 0 0 1 1.26-3.043 2.962 2.962 0 0 1 4.389 1.33c.149.36.226.747.226 1.136"/><path stroke="#006b99" stroke-linecap="round" stroke-linejoin="round" stroke-width="2.316" d="M96.853 211.747h-.566a11.05 11.05 0 0 1-7.542-3.526 11.04 11.04 0 0 1 .395-15.416 11.05 11.05 0 0 1 7.713-3.136"/><path stroke="#006b99" stroke-linecap="round" stroke-linejoin="round" stroke-width="2.316" d="M81.165 211.731h15.688-.278a11.045 11.045 0 0 0 .278 22.088M116.687 211.747h.565a11.05 11.05 0 0 0 10.481-11.314 11.049 11.049 0 0 0-11.046-10.764"/><path stroke="#006b99" stroke-linecap="round" stroke-linejoin="round" stroke-width="2.316" d="M132.374 211.731h-15.687.287a11.047 11.047 0 0 1-.287 22.088M422.251 162.345l21.059-12.15-21.059-12.16M400.635 138.035l-21.059 12.16 21.059 12.15"/><path stroke="#006b99" stroke-linecap="round" stroke-linejoin="round" stroke-width="1.543" d="m417.439 132.541-12.588 35.128"/><path stroke="#006b99" stroke-linecap="round" stroke-linejoin="round" stroke-width="2.316" d="m398.797 333.25 3.411-10.354 8.093-24.565 8.098 24.565 3.411 10.354M402.208 322.896h16.191"/><path stroke="#006b99" stroke-linecap="round" stroke-linejoin="round" stroke-width="1.543" d="M439.333 327.222c-2.223 4.765-6.387 7.532-9.285 6.183s-3.439-6.315-1.216-11.088c2.223-4.774 6.377-7.534 9.284-6.185a5.51 5.51 0 0 1 2.589 5.323 13.9 13.9 0 0 1-1.372 5.767"/><path stroke="#006b99" stroke-linecap="round" stroke-linejoin="round" stroke-width="1.543" d="M440.699 321.384v.071c.426 4.192-2.138 15.236 4.552 10.741"/></svg>